SplineFontDB: 3.2
FontName: linjapimejapona0.9
FullName: linja pimeja pona 0.9
FamilyName: linja pimeja pona
Weight: Medium
Copyright: Copyright (c) 2021, Ret "jan Ke Tami" Samys, SIL Open Font License. components: 2020, Jack Humbert, SIL Open Font License; 2020, jan Inkepa, Creative Commons 0; 2011, wrp, Unlicense
Version: 0.9
ItalicAngle: 0
UnderlinePosition: 0
UnderlineWidth: 0
Ascent: 1000
Descent: 100
InvalidEm: 0
sfntRevision: 0x00010000
LayerCount: 2
Layer: 0 0 "Hinten" 1
Layer: 1 0 "Vorne" 0
XUID: [1021 4 -197776663 12803]
StyleMap: 0x0040
FSType: 0
OS2Version: 4
OS2_WeightWidthSlopeOnly: 0
OS2_UseTypoMetrics: 1
CreationTime: 1583342003
ModificationTime: 1636241067
PfmFamily: 17
TTFWeight: 500
TTFWidth: 5
LineGap: 0
VLineGap: 0
Panose: 2 0 5 3 0 0 0 0 0 0
OS2TypoAscent: 1100
OS2TypoAOffset: 0
OS2TypoDescent: -110
OS2TypoDOffset: 0
OS2TypoLinegap: 0
OS2WinAscent: 968
OS2WinAOffset: 0
OS2WinDescent: 0
OS2WinDOffset: 0
HheadAscent: 1100
HheadAOffset: 0
HheadDescent: -110
HheadDOffset: 0
OS2SubXSize: 715
OS2SubYSize: 769
OS2SubXOff: 0
OS2SubYOff: 154
OS2SupXSize: 715
OS2SupYSize: 769
OS2SupXOff: 0
OS2SupYOff: 527
OS2StrikeYSize: 54
OS2StrikeYPos: 284
OS2CapHeight: 968
OS2XHeight: 792
OS2Vendor: 'PfEd'
OS2CodePages: 00000001.00000000
OS2UnicodeRanges: 00000001.10000000.00000000.00000000
Lookup: 4 0 1 "'liga' Standard-Ligaturen in Lateinisch Nachschlagetabelle 0" { "'liga' Standard-Ligaturen in Lateinisch Nachschlagetabelle 0 Subtabelle"  } ['liga' ('DFLT' <'dflt' > 'latn' <'dflt' > ) ]
Lookup: 6 0 0 "'liga' Standard-Ligaturen in Lateinisch Nachschlagetabelle 1" { "'liga' Standard-Ligaturen in Lateinisch Nachschlagetabelle 1 kontextuelle 0"  "'liga' Standard-Ligaturen in Lateinisch Nachschlagetabelle 1 kontextuelle 1"  "'liga' Standard-Ligaturen in Lateinisch Nachschlagetabelle 1 kontextuelle 2"  "'liga' Standard-Ligaturen in Lateinisch Nachschlagetabelle 1 kontextuelle 3"  } ['liga' ('DFLT' <'dflt' > 'latn' <'dflt' > ) ]

StartChar: .notdef
Encoding: 65536 -1 0
Width: 550
Flags: HMW
HStem: 0 55<110 440 110 495> 531 55<110 440 110 110>
VStem: 55 55<55 55 55 531> 440 55<55 531 531 531>
LayerCount: 2
Fore
SplineSet
55 0 m 1
 55 586 l 1
 495 586 l 1
 495 0 l 1
 55 0 l 1
110 55 m 1
 440 55 l 1
 440 531 l 1
 110 531 l 1
 110 55 l 1
EndSplineSet
Validated: 1
EndChar

StartChar: exclam
Encoding: 33 33 2
Width: 1024
GlyphClass: 2
Flags: HMW
LayerCount: 2
Fore
SplineSet
236 78 m 1
 223 54 l 2
 223 51.3333333333 216.666666667 44 204 32 c 1
 203 32 l 1
 186.333333333 15.3333333333 166 7 142 7 c 0
 137.333333333 7 132.333333333 7.33333333333 127 8 c 2
 126 8 l 2
 110 10 95.6666666667 15 83 23 c 0
 63 35.6666666667 53 54.3333333333 53 79 c 0
 53 95 57.3333333333 113.333333333 66 134 c 1
 67 134 l 1
 72.3333333333 145.333333333 77.6666666667 153.5 83 158.5 c 128
 88.3333333333 163.5 91 166.333333333 91 167 c 2
 92 170 l 2
 98.6666666667 184 108 194 120 200 c 128
 132 206 141.333333333 209.166666667 148 209.5 c 128
 154.666666667 209.833333333 163.666666667 210 175 210 c 128
 186.333333333 210 198 206.333333333 210 199 c 0
 231.333333333 186.333333333 243.333333333 167.333333333 246 142 c 0
 246 132 246 132 246 119 c 128
 246 110.333333333 242.666666667 97 236 79 c 1
 236 78 l 1
198 480 m 1
 198 462 l 2
 198 459 198 459 198 456 c 0
 198 448.666666667 198.333333333 444.666666667 199 444 c 1
 199 444 l 1
 199 442 199 442 199 441 c 0
 199 434.333333333 200 424.666666667 202 412 c 1
 202 412 l 1
 202 395.333333333 203 383 205 375 c 0
 205 373.666666667 204.666666667 372.333333333 204 371 c 0
 204 349 203.666666667 337.333333333 203 336 c 0
 199.666666667 303.333333333 186.666666667 285.333333333 164 282 c 1
 151 282 l 2
 146.333333333 282 138.666666667 286.666666667 128 296 c 0
 100.666666667 320.666666667 83 346.666666667 75 374 c 1
 75 374 l 1
 67.6666666667 396 63.6666666667 413.333333333 63 426 c 0
 59.6666666667 456 58.3333333333 472 59 474 c 0
 59 476 59 476 59 478 c 1
 59 478 l 1
 58.3333333333 497.333333333 58 511.333333333 58 520 c 2
 58 651 l 1
 63 743 l 1
 63 743 l 1
 67.6666666667 767 73.3333333333 785 80 797 c 1
 82.6666666667 817.666666667 91 834.666666667 105 848 c 0
 117.666666667 861.333333333 133.333333333 868 152 868 c 256
 170.666666667 868 187 860 201 844 c 0
 214.333333333 828 221.333333333 808.666666667 222 786 c 1
 222 786 l 1
 221.333333333 763.333333333 215.333333333 740.666666667 204 718 c 1
 204 718 l 1
 204.666666667 715.333333333 204 712.666666667 202 710 c 0
 202 709 202 709 202 708 c 1
 202 708 l 1
 201.333333333 706.666666667 200.666666667 700.666666667 200 690 c 2
 199 649 l 1
 198 480 l 1
EndSplineSet
Validated: 37
EndChar

StartChar: quotedbl
Encoding: 34 34 3
Width: 1024
GlyphClass: 2
Flags: HMW
LayerCount: 2
Fore
SplineSet
717 747 m 1
 714 704 l 2
 714 703 714 703 714 701 c 0
 714 695 711 680.333333333 705 657 c 1
 704 657 l 1
 694 621 676.666666667 594.666666667 652 578 c 0
 647.333333333 574.666666667 642 571.666666667 636 569 c 2
 634 568 l 2
 621.333333333 561.333333333 608.666666667 558 596 558 c 2
 584 559 l 2
 557.333333333 563.666666667 538.666666667 583.333333333 528 618 c 0
 520.666666667 641.333333333 517 671.666666667 517 709 c 1
 518 710 l 1
 518.666666667 729.333333333 520.666666667 744.666666667 524 756 c 0
 526.666666667 764.666666667 528 770.333333333 528 773 c 0
 528 774 528 774 528 774 c 1
 528 778 l 2
 528 803.333333333 533 824.666666667 543 842 c 128
 553 859.333333333 561.5 870.666666667 568.5 876 c 128
 575.5 881.333333333 584.666666667 888 596 896 c 0
 605.333333333 902 616.333333333 905 629 905 c 0
 633 905 633 905 636 905 c 0
 664 901.666666667 685 882.333333333 699 847 c 0
 702.333333333 838.333333333 705.833333333 827.5 709.5 814.5 c 128
 713.166666667 801.5 715.666666667 779.666666667 717 749 c 2
 717 747 l 1
427 751 m 1
 424 708 l 2
 424 707 424 707 424 705 c 0
 424 699 421 684.333333333 415 661 c 1
 414 661 l 1
 404 625 386.666666667 598.666666667 362 582 c 0
 357.333333333 578.666666667 352 575.666666667 346 573 c 2
 344 572 l 2
 331.333333333 565.333333333 318.666666667 562 306 562 c 2
 294 563 l 2
 267.333333333 567.666666667 248.666666667 587.333333333 238 622 c 0
 230.666666667 645.333333333 227 675.666666667 227 713 c 1
 228 714 l 1
 228.666666667 733.333333333 230.666666667 748.666666667 234 760 c 0
 236.666666667 768.666666667 238 774.333333333 238 777 c 0
 238 778 238 778 238 778 c 1
 238 782 l 2
 238 807.333333333 243 828.666666667 253 846 c 128
 263 863.333333333 271.5 874.666666667 278.5 880 c 128
 285.5 885.333333333 294.666666667 892 306 900 c 0
 315.333333333 906 326.333333333 909 339 909 c 0
 343 909 343 909 346 909 c 0
 374 905.666666667 395 886.333333333 409 851 c 0
 412.333333333 842.333333333 415.833333333 831.5 419.5 818.5 c 128
 423.166666667 805.5 425.666666667 783.666666667 427 753 c 2
 427 751 l 1
EndSplineSet
Validated: 1
EndChar

StartChar: percent
Encoding: 37 37 4
Width: 500
VWidth: 820
GlyphClass: 2
Flags: HMW
LayerCount: 2
Fore
SplineSet
379.253833834 789.420204839 m 5
 393.244007309 800.787300837 409.947576485 807.995097764 428 807.995097764 c 0
 444.733492477 807.995097764 460.791276596 801.564062463 472.67766953 789.67766953 c 0
 484.87741726 777.477921799 490.995097764 760.971704581 490.995097764 744 c 0
 490.995097764 733.381800414 488.330527425 723.409494414 484.328856818 713.00374386 c 0
 483.603040094 711.116365184 482.640098339 709.299565447 481.440031551 707.599461066 c 0
 395.80328397 586.280038411 409.353048502 600.80348622 327.03268651 482.231630858 c 2
 299.983363674 443.37899516 l 1
 315.64096419 449.041597786 332.039941257 451.995097764 349 451.995097764 c 0
 389.144998082 451.995097764 426.935996002 434.036206959 456.237925267 404.734277694 c 0
 484.121810836 376.850392125 498.995097764 341.899465596 498.995097764 303 c 0
 498.995097764 261.461268459 481.933732407 224.066316413 452.198695292 195.855780713 c 0
 422.485086977 167.665575168 387.356651771 152.004902236 349 152.004902236 c 0
 308.563129943 152.004902236 269.936973148 170.549793055 240.222561349 200.264204855 c 0
 213.977505688 226.509260516 199.316408437 259.296990898 197.256815048 295.964311183 c 1
 128.238571987 197.311116298 l 2
 120.842616488 187.141508198 110.709324157 178.324179858 98.4240509075 173.643504461 c 0
 89.5021346145 170.244264311 80.5263166716 168.004902236 71 168.004902236 c 0
 53.7902182659 168.004902236 37.2121723099 175.376887523 25.5795944276 187.009465405 c 0
 13.807749729 198.781310104 8.00490223649 214.74758317 8.00490223649 231 c 0
 8.00490223649 245.85087157 12.8374676608 259.996088406 20.5534458999 272.856052138 c 0
 20.8680362901 273.380369455 21.2035438063 273.895601124 21.5599684485 274.400538934 c 0
 95.1823998703 378.69958259 131.295403821 432.500210351 200.131201235 531.275606298 c 1
 186.936356596 527.147971718 173.189059368 525.004902237 159 525.004902236 c 0
 118.46609691 525.004902236 79.8210522875 543.659969543 50.0775874952 573.403434335 c 0
 21.9715903022 601.509431528 7.00490223649 636.752497669 7.00490223649 676 c 0
 7.00490223649 714.353936668 21.7739708431 748.854190392 49.3486167769 776.428836325 c 0
 78.9988996248 806.079119173 118.209414256 824.995097764 159 824.995097764 c 0
 199.144998082 824.995097764 236.935996002 807.036206959 266.237925267 777.734277694 c 0
 291.556580746 752.415622214 306.148391984 721.270405659 308.618911295 686.633204229 c 1
 328.985605542 715.794607192 l 2
 356.94909721 755.850419581 373.478392646 780.896400247 373.921261283 781.752198306 c 5
 379.253833834 789.420204839 l 5
159 699.004902236 m 0
 153.21803006 699.004902236 146.942069703 696.632225642 140.255582634 689.945738573 c 0
 134.80593876 684.496094699 132.995097764 679.892307658 132.995097764 673 c 0
 132.995097764 665.749722833 135.373013252 660.606246308 141.08884673 655.247815948 c 0
 148.094351501 648.680355649 153.36967935 646.995097764 159 646.995097764 c 0
 163.63324298 646.995097764 169.906432886 649.216276947 176.744417366 656.054261427 c 0
 182.19406124 661.503905301 184.004902236 666.107692342 184.004902236 673 c 0
 184.004902236 680.250277167 181.626986748 685.393753692 175.91115327 690.752184052 c 0
 168.656250495 697.553447845 163.570153701 699.004902236 159 699.004902236 c 0
349 326.004902236 m 0
 343.21803006 326.004902236 336.942069703 323.632225642 330.255582634 316.945738573 c 0
 324.80593876 311.496094699 322.995097764 306.892307658 322.995097764 300 c 0
 322.995097764 292.749722833 325.373013252 287.606246308 331.08884673 282.247815948 c 0
 338.094351501 275.680355649 343.36967935 273.995097764 349 273.995097764 c 0
 353.63324298 273.995097764 359.906432886 276.216276947 366.744417366 283.054261427 c 0
 372.19406124 288.503905301 374.004902236 293.107692342 374.004902236 300 c 0
 374.004902236 307.250277167 371.626986748 312.393753692 365.91115327 317.752184052 c 0
 358.656250495 324.553447845 353.570153701 326.004902236 349 326.004902236 c 0
EndSplineSet
Validated: 1
EndChar

StartChar: quotesingle
Encoding: 39 39 5
Width: 1024
GlyphClass: 2
Flags: HMW
LayerCount: 2
Fore
SplineSet
578 624 m 1
 575 581 l 2
 575 580 575 580 575 578 c 0
 575 572 572 557.333333333 566 534 c 1
 565 534 l 1
 555 498 537.666666667 471.666666667 513 455 c 0
 508.333333333 451.666666667 503 448.666666667 497 446 c 2
 495 445 l 2
 482.333333333 438.333333333 469.666666667 435 457 435 c 2
 445 436 l 2
 418.333333333 440.666666667 399.666666667 460.333333333 389 495 c 0
 381.666666667 518.333333333 378 548.666666667 378 586 c 1
 379 587 l 1
 379.666666667 606.333333333 381.666666667 621.333333333 385 632 c 0
 387.666666667 641.333333333 389 647.333333333 389 650 c 0
 389 651 389 651 389 651 c 1
 389 655 l 2
 389 680.333333333 394 701.666666667 404 719 c 128
 414 736.333333333 422.5 747.666666667 429.5 753 c 128
 436.5 758.333333333 445.666666667 764.666666667 457 772 c 0
 466.333333333 778.666666667 477.333333333 782 490 782 c 0
 494 782 494 782 497 782 c 0
 525 778.666666667 546 759.333333333 560 724 c 0
 563.333333333 715.333333333 566.833333333 704.5 570.5 691.5 c 128
 574.166666667 678.5 576.666666667 656.666666667 578 626 c 2
 578 624 l 1
EndSplineSet
Validated: 1
EndChar

StartChar: parenleft
Encoding: 40 40 6
Width: 500
VWidth: 820
GlyphClass: 2
Flags: HMW
LayerCount: 2
Fore
SplineSet
390.995097764 127 m 0
 390.995097764 110.852830539 385.044151592 94.6089390028 373.780091747 83.3448791576 c 0
 364.355894253 73.9206816631 352.341748627 68.1632696201 339.593784528 65.5258486206 c 0
 335.405394489 64.6593143445 331.221544587 64.2559038555 327.065134397 64.2559038555 c 0
 314.521042303 64.2559038555 302.226881829 67.9303243252 290.812144542 73.6376929689 c 0
 288.783730949 74.6518997653 286.864948754 75.9591270284 285.119146463 77.5593747583 c 0
 277.657621646 84.3988022298 269.878726141 90.9340044215 261.776028676 97.1669188551 c 0
 251.73759741 104.888876067 242.782061865 114.053775104 235.432900901 124.358163444 c 0
 204.129392641 159.013533989 178.473010278 206.155770216 156.999393827 265.463860955 c 0
 135.412931115 325.083615111 124.004902236 375.839087944 124.004902236 419 c 0
 124.004902236 458.49544394 125.126595266 484.781286438 129.117353318 502.517555868 c 0
 132.362710626 516.941013978 139.858765592 545.168072517 151.914426497 588.702076532 c 0
 152.05157682 589.19733787 152.204238175 589.689188247 152.372410559 590.176856139 c 0
 172.937478572 649.811637367 200.738193067 699.700333947 233.316258668 747.548901781 c 2
 266.316258668 796.048901781 l 2
 267.695325386 798.075711957 269.475220031 799.998234787 271.401553791 801.539301795 c 0
 285.257612426 812.624148703 300.175807088 820.101251444 319.569004936 820.101251444 c 0
 332.467371864 820.101251444 345.321746167 816.496789856 356.013972676 808.859485207 c 0
 367.679788047 800.526759942 376.184508269 787.342231855 380.091995486 773.178842635 c 0
 381.694352093 767.370813322 382.429075655 761.477122494 382.429075655 755.586491365 c 0
 382.429075655 745.190900842 380.140851106 734.804839452 376.294898233 724.915936146 c 0
 375.70589903 723.401472406 374.96386482 721.933020501 374.068795603 720.534490215 c 0
 363.227088909 703.594509609 352.855208452 688.117311593 342.926182762 674.079861898 c 0
 324.57014536 648.128478583 309.926302845 622.942075689 295.362602371 593.812735242 c 0
 288.774276374 580.635205857 282.607789931 565.324477394 276.981608501 547.905040354 c 0
 261.9533764 491.643185124 254.037224753 452.437017557 252.949002057 434.476948884 c 0
 252.598028431 428.684469862 252.426625249 423.115232951 252.426625249 417.770314914 c 0
 252.426625249 404.341424228 253.508599826 392.328535946 255.543017937 381.748727255 c 0
 258.418251921 366.796331129 265.972177887 341.001597001 278.096987113 306.265060251 c 0
 289.180580129 274.51151849 308.546175017 241.806245594 336.883642729 208.387318084 c 0
 346.976842627 197.079022964 360.441106558 186.612629351 371.593958942 176.699587869 c 0
 373.099941376 175.361018521 374.492122722 173.782799306 375.616458705 172.147279005 c 0
 384.939901662 158.584891546 390.995097764 143.340440195 390.995097764 127 c 0
EndSplineSet
Validated: 1
EndChar

StartChar: parenright
Encoding: 41 41 7
Width: 500
VWidth: 820
GlyphClass: 2
Flags: HMW
LayerCount: 2
Fore
SplineSet
252.578099399 436.16202076 m 0
 252.578099399 485.292573259 244.548996345 525.020478419 234.886805468 543.327316982 c 0
 234.248398734 544.536898657 233.716058145 545.78799918 233.289783703 547.066822507 c 0
 222.00737038 580.914062475 207.598700198 604.229767663 191.416380684 631.875221961 c 0
 174.463192835 660.837607695 154.160474936 689.292643298 135.324922369 716.938373678 c 0
 134.251673545 718.513625984 133.378400011 720.184718564 132.705101767 721.915936146 c 0
 128.859148894 731.804839452 126.570924345 742.190900842 126.570924345 752.586491365 c 0
 126.570924345 758.477122494 127.305647907 764.370813322 128.908004514 770.178842635 c 0
 132.816040563 784.344221196 141.316997964 797.524464235 152.986027324 805.859485207 c 0
 163.678253833 813.496789856 176.532628136 817.101251444 189.430995064 817.101251444 c 0
 208.847756471 817.101251444 223.730793731 809.633423777 237.598446209 798.539301795 c 0
 239.524667153 796.998325039 241.304797698 795.07553106 242.683741332 793.048901781 c 0
 264.316298572 761.255596616 287.076335882 729.067058577 306.602634777 695.592235819 c 0
 326.319933676 661.789973062 342.861947394 627.094596817 356.627589441 587.176856139 c 0
 356.735089507 586.865126416 356.836251625 586.551687691 356.931075793 586.236741481 c 0
 374.904645824 526.539853481 384.577984131 481.382055274 384.577984131 447.426592761 c 0
 384.577984131 445.457629401 384.545458004 443.526333346 384.480138027 441.632054006 c 0
 383.455985876 411.931641621 381.433458784 387.546907469 378.153014062 367.86423914 c 0
 374.626404766 346.704583363 365.323548455 315.884414228 350.098547758 272.239412229 c 0
 334.152216224 226.526595167 308.264680438 177.637160494 272.73225757 125.022669719 c 0
 265.282243923 113.991092284 255.750120197 104.264047684 245.223971324 96.1669188551 c 0
 237.121273859 89.9340044215 229.342378354 83.3988022298 221.880853537 76.5593747583 c 0
 220.135051246 74.9591270284 218.216269051 73.6518997653 216.187855458 72.6376929689 c 0
 204.773118171 66.9303243252 192.478957697 63.2559038555 179.934865603 63.2559038555 c 0
 175.778455413 63.2559038555 171.594605511 63.6593143445 167.406215472 64.5258486206 c 0
 153.502408938 67.4024013818 140.29529054 74.2950619994 130.856492136 84.8431591304 c 0
 120.602298821 96.3024808 116.004902236 111.192017856 116.004902236 126 c 0
 116.004902236 142.340440195 122.060098338 157.584891546 131.383541295 171.147279005 c 0
 132.508099325 172.783122307 133.899794434 174.3607837 135.406041058 175.699587869 c 0
 146.150955244 185.250039752 159.100382744 195.335869472 168.980697607 206.130895873 c 0
 188.55664937 237.279155883 207.865990131 273.408261324 226.796932669 314.478411037 c 0
 243.947497963 351.686085116 252.578099399 391.959097618 252.578099399 436.16202076 c 0
EndSplineSet
Validated: 1
EndChar

StartChar: comma
Encoding: 44 44 8
Width: 1024
GlyphClass: 2
Flags: HMW
LayerCount: 2
Fore
SplineSet
267 110 m 1
 231 76 l 2
 229 72 215 61 189 43 c 1
 188 43 l 1
 152.666666667 19 120.333333333 7 91 7 c 0
 84.3333333333 7 78.3333333333 7.66666666667 73 9 c 2
 71 9 l 1
 52.3333333333 11.6666666667 38.3333333333 18.6666666667 29 30 c 0
 20.3333333333 42 18.3333333333 57 23 75 c 0
 25.6666666667 85.6666666667 30.6666666667 97.6666666667 38 111 c 0
 51.3333333333 134.333333333 72.6666666667 161.333333333 102 192 c 1
 103 192 l 1
 118.333333333 208 131.5 219.5 142.5 226.5 c 128
 153.5 233.5 159 237.666666667 159 239 c 2
 163 243 l 2
 182.333333333 263.666666667 202.333333333 278.333333333 223 287 c 128
 243.666666667 295.666666667 258.166666667 300.166666667 266.5 300.5 c 128
 274.833333333 300.833333333 286 301 300 301 c 128
 314 301 325.333333333 296 334 286 c 0
 346 272.666666667 349 255 343 233 c 0
 341 223.666666667 337.333333333 213.666666667 332 203 c 0
 327.333333333 193.666666667 321.5 182.666666667 314.5 170 c 128
 307.5 157.333333333 291.666666667 138 267 112 c 1
 267 110 l 1
EndSplineSet
Validated: 33
EndChar

StartChar: hyphen
Encoding: 45 45 9
Width: 930
GlyphClass: 2
Flags: W
HStem: 265 197<387.262 723.199> 275 179<326.438 560.862> 282 180<387.262 689.125> 296 125<125.547 263.094>
LayerCount: 2
Fore
SplineSet
594 463 m 0x80
 714 463 774 427 774 355 c 0
 774 325 766.666666667 305 752 295 c 1
 752 294 l 1
 733.333333333 273.333333333 713.666666667 263 693 263 c 2
 662 263 l 2
 658.666666667 263.666666667 655 264 651 264 c 0
 647 264 643.333333333 264.333333333 640 265 c 2
 609 265 l 1x80
 567 268 l 1
 450.333333333 272.666666667 380 275 356 275 c 2
 355 275 l 2x40
 345 275.666666667 335.333333333 276 326 276 c 0
 316.666666667 276 307 276.333333333 297 277 c 2
 235 282 l 1
 233 282 l 1x20
 199 286 l 2
 187.666666667 287.333333333 178.666666667 289.333333333 172 292 c 0
 165.333333333 294.666666667 161.333333333 296 160 296 c 0
 142.666666667 299.333333333 128.666666667 311.333333333 118 332 c 0
 114 338.666666667 112 348 112 360 c 0
 112 388 128 408.333333333 160 421 c 0x10
 200 437 264 448 352 454 c 1x40
 569 462 l 1
 570 462 l 2
 578 462.666666667 586 463 594 463 c 0x80
EndSplineSet
Validated: 1
Substitution2: "'liga' Standard-Ligaturen in Lateinisch Nachschlagetabelle 387 Subtabelle" tp_combine
EndChar

StartChar: period
Encoding: 46 46 10
Width: 1024
GlyphClass: 2
Flags: HMW
LayerCount: 2
Fore
SplineSet
311 110 m 1
 295 76 l 2
 295 72 287 61 271 43 c 1
 270 43 l 1
 249.333333333 19 224 7 194 7 c 0
 188 7 181.666666667 7.66666666667 175 9 c 2
 173 9 l 1
 153 11.6666666667 135.333333333 18.6666666667 120 30 c 0
 94.6666666667 48.6666666667 82 75.6666666667 82 111 c 0
 82 134.333333333 87.6666666667 161.333333333 99 192 c 1
 100 192 l 1
 106.666666667 208 113.333333333 219.5 120 226.5 c 128
 126.666666667 233.5 130 237.666666667 130 239 c 2
 131 243 l 1
 139 263.666666667 150.666666667 278.333333333 166 287 c 128
 181.333333333 295.666666667 193.166666667 300.166666667 201.5 300.5 c 128
 209.833333333 300.833333333 221 301 235 301 c 128
 249 301 263.333333333 296 278 286 c 0
 304.666666667 267.333333333 319.666666667 239.666666667 323 203 c 0
 323.666666667 193.666666667 324 182.666666667 324 170 c 128
 324 157.333333333 319.666666667 138 311 112 c 1
 311 110 l 1
EndSplineSet
Validated: 1
EndChar

StartChar: slash
Encoding: 47 47 11
Width: 500
VWidth: 820
GlyphClass: 2
Flags: W
VStem: 33.0049 121.914<103.938 174.394>
LayerCount: 2
Fore
SplineSet
400 912.995097764 m 0
 417.492478309 912.995097764 434.145059512 905.262957265 445.908052535 893.499964242 c 0
 458.081403721 881.326613055 463.995097764 864.838008842 463.995097764 848 c 0
 463.995097764 837.303606662 461.350601092 826.342859004 456.975603921 816.134503789 c 0
 356.882836915 582.584062461 256.004584688 352.200059635 154.919391058 120.004367336 c 0
 152.436057845 114.300077185 147.951854294 109.537612988 143.781366534 105.367125229 c 0
 132.746463483 94.3322221778 115.324900809 85.0049022365 95 85.0049022365 c 0
 78.4674815893 85.0049022365 62.8828273715 91.7618335692 51.3223304703 103.32233047 c 0
 38.2550095564 116.389651384 33.0049022365 134.124859207 33.0049022365 152 c 2
 33.0049022365 158.5 l 2
 33.0049022365 164.582953383 34.0107149093 171.166893706 36.0243960786 175.865496211 c 0
 136.117163085 409.415937539 236.995415312 639.799940365 338.080608942 871.995632664 c 0
 338.542731839 873.057142683 339.082017939 874.093018367 339.698467242 875.094699104 c 0
 343.771523864 881.713089838 348.344279762 887.729571848 353.662052724 893.04734481 c 0
 365.95588542 905.341177507 382.250851845 912.995097764 400 912.995097764 c 0
EndSplineSet
Validated: 1
EndChar

StartChar: zero
Encoding: 48 48 12
Width: 500
VWidth: 820
GlyphClass: 2
Flags: HMW
LayerCount: 2
Fore
SplineSet
359.015238398 475.780136099 m 1
 303.970624986 434.804164204 225.432694973 375.029414271 164.187756832 327.561323441 c 1
 168.247955277 319.338258702 172.92576064 310.259085072 178.211263626 300.359873553 c 0
 182.125738301 295.101734063 186.147925575 290.438263515 190.245221581 286.340966717 c 0
 204.505273575 272.080914723 219.902520419 264.060852173 237.828619279 261.019776847 c 0
 252.666125229 261.424176709 265.223847887 266.829183418 277.947193141 279.552532201 c 0
 282.390983821 283.996322881 286.865273326 289.444688883 291.254189969 295.957241421 c 0
 291.801691478 296.769658842 292.402100307 297.556928309 293.055416455 298.314189521 c 0
 320.751155063 330.416424611 336.256899541 358.933238524 341.629336566 382.570544944 c 0
 341.692811493 382.849817887 341.761125679 383.128209068 341.834279125 383.405584038 c 0
 351.131913194 418.659302378 356.74796323 449.542717686 359.015238398 475.780136099 c 1
261.802531689 682.106673691 m 0
 261.623103533 682.106673691 261.451649841 682.103427204 261.288148841 682.097315166 c 0
 232.770520163 678.552519988 213.840805473 669.006668781 200.595297497 654.289437697 c 0
 198.43773297 651.892143777 196.250402539 650.549619288 193.858080036 648.157296785 c 0
 183.481351802 637.780568552 169.897325634 612.650993413 157.938206892 572.786986208 c 0
 148.097341359 540.581231983 142.626747901 504.232126417 141.819720125 463.718630502 c 1
 238.230512635 537.471147862 303.17542388 586.799059879 337.100567385 612.023419625 c 1
 331.44427839 624.344342215 322.46414488 639.073852966 309.795342012 655.659866112 c 0
 296.278892439 667.026230042 284.643756465 674.514549122 275.835862311 678.40976659 c 0
 269.215720101 681.337468466 264.564412309 682.106673691 261.802531689 682.106673691 c 0
245.374876081 130.007812706 m 0
 212.385413547 130.007812706 182.175958871 136.506456192 159.2402751 147.428743658 c 0
 136.815365966 158.10779323 116.76544216 170.450647352 100.301956473 186.91413304 c 0
 93.2608875927 193.955201919 86.759894308 201.780234265 80.7411210795 210.341073363 c 0
 48.9196426333 252.87869227 26.9114159787 305.199304205 16.8385239665 366.415336008 c 0
 12.5915927996 392.225229836 10.4692925792 418.349371097 10.4692925792 444.730181111 c 0
 10.4692925792 475.538597671 12.7944897411 504.511979488 17.2769391693 533.693251213 c 0
 30.1004585908 623.233150171 69.935844327 703.49634238 122.693862452 756.254360505 c 0
 132.363656101 765.924154154 142.505798589 774.712897173 153.115951143 782.589974652 c 0
 182.390436302 804.323628962 216.990945372 814.22114074 260.044004553 814.22114074 c 0
 285.06664169 814.22114074 310.215336142 809.449921385 326.7597249 801.571256342 c 0
 385.377919465 773.656467398 432.076134701 726.282701845 457.081989714 666.113436322 c 0
 477.726101202 616.439428976 488.995097764 559.058837215 488.995097764 492.5 c 0
 488.995097764 463.179441597 487.270302978 434.941882071 483.790883425 407.799758961 c 0
 483.672983173 406.880047178 483.504031892 405.965654963 483.284029581 405.061189084 c 0
 476.92408183 378.91439217 467.675283727 351.254489728 455.612891304 321.961262026 c 0
 430.345635321 260.600343148 392.859191792 206.248177025 343.072584358 168.551382354 c 0
 318.658845369 150.066095782 299.370600954 137.824453229 280.391810231 132.830650689 c 0
 279.418116486 132.5744471 278.431930607 132.377862405 277.439066464 132.240896604 c 0
 266.678642216 130.756493986 255.979482011 130.007812706 245.374876081 130.007812706 c 0
EndSplineSet
Validated: 1
EndChar

StartChar: one
Encoding: 49 49 13
Width: 500
VWidth: 820
GlyphClass: 2
Flags: HMW
LayerCount: 2
Fore
SplineSet
359.078675993 275.712970237 m 0
 373.380949578 275.712970237 384.793649026 277.078156812 398.649571545 277.078156812 c 0
 416.121992875 277.078156812 430.480971534 276.219616303 442.53479568 274.128257697 c 0
 457.577529496 271.518318276 469.992131328 267.045416553 478.051991825 255.950017685 c 0
 485.686951011 246.180052967 490.747161853 234.551001885 492.300802586 222.121888143 c 0
 492.518151292 220.383098494 492.618573568 218.689536311 492.618573568 217.040609038 c 0
 492.618573568 208.692233831 490.04444059 201.487989161 487.03805212 195.350974152 c 0
 482.422266096 185.928656183 475.501383178 176.146044119 466.67766953 167.32233047 c 0
 461.104709121 161.749370061 453.402223528 158.332267505 446.692621923 156.195992051 c 0
 432.720492866 151.747394639 416.625004006 150.608639198 398.101835864 150.608639198 c 0
 381.504469955 150.608639198 362.187312292 151.788274732 339.751596857 154.004902236 c 1
 292.5 154.004902236 l 2
 259.439141021 154.004902236 216.081709503 155.687810192 162.034868398 159.016584381 c 0
 147.708170983 159.231080146 133.96557618 159.337897345 120.810745548 159.337897345 c 0
 94.1111477879 159.337897345 69.8328133575 158.897869559 48.0063565712 158.025015883 c 0
 47.6710505489 158.011606785 47.3355252744 158.004902236 47 158.004902236 c 0
 36.0967363913 158.004902236 25.2641591094 162.499594265 17.3720024645 170.39175091 c 0
 5.66415269147 182.099600683 2.52563767302 196.097057358 2.00490223649 211 c 0
 1.4231052073 227.650466142 6.57937173325 244.60173915 19.0998499039 257.12221732 c 0
 24.8932708871 262.915638303 31.7821433416 267.141541631 39.0918705174 269.984871145 c 0
 48.1385242948 274.265358456 57.8570918474 276.343697115 69.211648114 277.888739567 c 0
 82.628163397 279.714356861 98.5420815091 280.522427752 117.45503412 280.522427752 c 0
 148.382847147 280.522427752 178.657879641 279.586182429 207.745801775 278.273246574 c 1
 208.580736942 310.346646837 208.991231246 338.674413037 208.991231246 363.164542775 c 0
 208.991231246 429.205131967 205.20449057 444.856675788 205.20449057 511.351298091 c 0
 205.20449057 537.107679297 205.617062545 567.405568015 206.427957173 602.360716906 c 1
 194.432705891 591.927942798 183.763159496 583.057689984 174.356479948 575.711316966 c 0
 158.624567293 563.425100918 147.101495081 555.209680111 134.801930957 550.597343565 c 0
 130.838311904 549.11098642 126.142166676 548.751854747 120.984264588 548.751854747 c 0
 104.523261287 548.751854747 88.1873927036 554.455331424 76.4441972008 566.708580381 c 0
 65.0661960782 578.58077312 58.0049022365 594.162653089 58.0049022365 611 c 0
 58.0049022365 621.24229569 60.5744369408 631.097121798 64.7035413546 640.273357421 c 0
 67.5602516629 646.621912523 69.8156954201 648.578796825 72.7134629145 651.920973315 c 0
 76.2017745632 655.944261313 80.6446567761 660.586345439 86.4005824228 666.342271085 c 0
 103.26051546 683.202204123 131.341837448 709.392986566 171.224957425 745.537064045 c 0
 171.493573901 745.780497726 171.766223126 746.017049287 172.042677081 746.246718726 c 2
 237.042677081 800.246718726 l 2
 239.172040826 802.015728606 241.527128657 803.376441303 244.00374386 804.328856818 c 0
 254.409494414 808.330527425 264.381800414 810.995097764 275 810.995097764 c 0
 291.516430683 810.995097764 307.846390685 805.368576247 319.889685989 793.325280943 c 0
 329.808528416 783.406438516 335.703344149 770.872105006 339.204592956 757.25632738 c 0
 339.731596161 755.206899063 339.995097764 753.103449531 339.995097764 751 c 0
 339.995097764 750.729289898 339.990733329 750.458579796 339.98200446 750.187984848 c 0
 337.902183362 685.713530823 336.870988535 629.010342513 336.870988535 580.188983967 c 0
 336.870988535 535.432305144 337.737624503 497.29966766 339.457466397 465.876255492 c 0
 341.237499154 433.353089744 342.125842383 400.051157696 342.125842383 365.969477275 c 0
 342.125842383 336.615683679 341.466869917 306.683473215 340.151062917 276.17221844 c 1
 346.694963089 275.864757825 353.00521008 275.712970237 359.078675993 275.712970237 c 0
EndSplineSet
Validated: 33
EndChar

StartChar: two
Encoding: 50 50 14
Width: 500
VWidth: 820
GlyphClass: 2
Flags: HMW
LayerCount: 2
Fore
SplineSet
345 289.995097764 m 2
 355.185954479 289.995097764 389.748520694 290.995097764 399 290.995097764 c 0
 412.98326833 290.995097764 427.225753546 286.089302014 437.672828229 275.642227331 c 0
 450.444232851 262.870822708 458.995097764 239.460094192 458.995097764 218 c 0
 458.995097764 215.31829272 458.566803941 212.63658544 457.710216297 210.066822507 c 0
 451.602099272 191.742471433 447.995628996 181.178135423 445.572583476 175.363961756 c 0
 439.442927674 160.655660545 425.35727035 157.490181421 407.95540711 155.226268805 c 0
 394.125430307 153.42704429 374.827688618 152.100869437 349.048455736 151.026734733 c 0
 348.69913579 151.012179735 348.349567895 151.004902236 348 151.004902236 c 2
 110 151.004902236 l 2
 109.14248509 151.004902236 108.284970179 151.048695008 107.43111537 151.13628055 c 0
 90.9034203541 152.831635684 75.1675792792 158.9231559 63.2601084749 170.830626704 c 0
 50.0152838776 184.075451302 43.8686694068 201.797865606 42.1131357605 220.667763148 c 0
 42.0409800778 221.443350869 42.0049022365 222.221675434 42.0049022365 223 c 0
 42.0049022365 224.829333443 42.2042010973 226.658666887 42.6027988191 228.452466119 c 0
 47.925210521 252.404780711 52.5794942513 273.680138764 56.5623926928 292.267322286 c 0
 61.2562271968 314.17226529 70.4366075452 335.99465488 83.5534458999 357.856052138 c 0
 107.855517034 398.359504029 132.136384057 423.862836033 164.298083729 454.662920911 c 0
 193.816411868 485.619399615 223.681556893 514.00112196 259.380139295 539.783431473 c 0
 275.109231548 551.143331433 288.479855611 564.244655749 299.798791695 579.733037258 c 0
 309.047804521 592.389018189 314.004902236 607.675702185 314.004902236 628 c 0
 314.004902236 631.289090477 313.355420073 635.360562961 311.511605731 640.430208473 c 0
 306.661566175 653.765597348 300.99666175 664.21986039 291.905470059 672.300919671 c 0
 286.398287261 677.196193268 282.081311208 679.22454019 278.853952831 679.988844928 c 0
 254.991487388 679.630375068 234.127799062 673.265368631 214.653533624 660.552739427 c 0
 192.353265469 645.99531747 171.595921835 628.482167571 153.247420344 608.910731288 c 0
 152.11418717 607.701967681 150.835940279 606.584856385 149.514774724 605.641087709 c 0
 136.49789287 596.342536655 121.08746198 591.004902236 105 591.004902236 c 0
 87.6408152245 591.004902236 70.5948523792 597.984442663 59.0257514254 610.655900753 c 0
 47.4070553376 623.38167963 42.0049022365 640.019760765 42.0049022365 657 c 0
 42.0049022365 672.496532356 46.5476020857 687.512979115 54.5534458999 700.856052138 c 0
 55.4777049151 702.39648383 56.5825143493 703.858490906 57.8678742025 705.211433476 c 0
 98.6499901932 748.137825398 145.536019554 788.643958402 207.433551433 809.665374347 c 0
 227.635140351 816.526164923 248.626281323 819.995097764 270 819.995097764 c 0
 326.450746852 819.995097764 370.370911791 792.173564452 397.689833274 759.525550032 c 0
 427.093644876 724.38594667 447.995097764 673.009903319 447.995097764 611 c 0
 447.995097764 600.305559626 446.89948863 588.998348383 444.30688454 578.155953092 c 0
 436.362198098 544.930891391 423.993500401 516.537611777 406.269622974 493.693887726 c 0
 390.337327281 473.159274586 372.041360359 454.809735846 351.389824963 439.414314876 c 2
 298.852461229 400.386613006 l 2
 283.548098136 389.061904417 270.408584965 377.180563416 258.220518629 363.429619283 c 2
 215.218678353 314.927543853 l 2
 208.777996177 307.664664015 202.558106262 299.361873063 196.606748872 289.995097764 c 1
 345 289.995097764 l 2
EndSplineSet
Validated: 1
EndChar

StartChar: three
Encoding: 51 51 15
Width: 500
VWidth: 820
GlyphClass: 2
Flags: HMW
LayerCount: 2
Fore
SplineSet
27.0049022365 282 m 0
 27.0049022365 299.00113192 33.3509563235 315.759433868 45.7448366099 327.590481131 c 0
 58.016869899 339.305214732 74.3331230312 344.995097764 91 344.995097764 c 0
 98.2628284707 344.995097764 103.557248146 342.707076415 108.9617923 340.554910017 c 0
 128.335977705 332.839833661 151.747093266 319.608245793 164.67766953 306.67766953 c 0
 168.721878026 302.633461034 177.509981039 296.079343347 190.400840108 288.713138164 c 0
 199.859511065 283.308183332 214.62510952 278.861363151 235.050345326 277.000364676 c 0
 264.888588787 277.300721583 285.33517855 291.755235272 298.608786319 309.148099842 c 0
 312.721023157 327.63984891 323.004902236 355.071452157 323.004902236 386 c 0
 323.004902236 397.452721798 319.754655787 404.584710467 313.085544523 411.062908861 c 0
 304.069636836 419.820723267 292.696360967 427.104554893 278.350432579 432.730683862 c 0
 263.079249191 438.719675647 247.443657823 442.886340555 231.311983394 445.276509981 c 0
 214.204065296 447.811325754 199.662369903 449.004902236 188 449.004902236 c 0
 185.850171961 449.004902236 183.700343921 449.280151721 181.608189769 449.830650689 c 0
 165.344791735 454.10996435 150.287618878 462.3420696 140.294411079 475.11171062 c 0
 131.466692337 486.392052392 126.004902236 500.273507524 126.004902236 515 c 0
 126.004902236 532.104713221 134.190775284 548.18247798 145.223237624 559.21494032 c 0
 155.996948779 569.988651475 169.757320301 576.458863311 184.906846532 580.245967466 c 0
 185.999304692 580.519062002 187.106664608 580.717489328 188.220777653 580.841249444 c 0
 225.510354159 584.983524178 263.231135908 595.496677949 287.621361349 613.593990107 c 0
 293.185184326 617.722293121 297.750113908 622.616093495 301.248771748 628.600253223 c 1
 301.909727714 645.124152376 l 1
 300.743014334 651.24939762 299.525536679 657.365818082 298.410160013 663.501615431 c 0
 297.979877602 665.868641534 297.523375363 666.321619734 296.551841186 667.171823329 c 0
 286.051553822 676.360776509 263.42540696 679.004902236 244 679.004902236 c 0
 230.309567079 679.004902236 214.997203239 677.657226334 198.13576086 674.846985938 c 0
 183.67102458 672.436196558 168.814007615 667.238191895 153.404663773 658.835982314 c 0
 138.544273647 648.106591473 122.67499443 636.004902236 100 636.004902236 c 0
 82.2256103815 636.004902236 65.5809286897 644.096673823 54.0913641688 656.584312857 c 0
 40.7713893416 671.061366124 36.0049022365 690.216516363 36.0049022365 710 c 0
 36.0049022365 711.46320376 36.1324076679 712.92640752 36.3874185309 714.371427571 c 0
 39.4245353148 731.581261691 49.0140200663 747.08283941 61.7467721481 757.997007565 c 0
 86.2877270605 779.032845447 111.424928766 789.595706465 148.713996278 800.062174274 c 0
 168.969460596 805.747571613 186.514261828 809.070399416 202.338104477 809.48639898 c 0
 215.126391092 809.822595552 224.744631441 809.995097764 231.5 809.995097764 c 2
 237 809.995097764 l 2
 324.737210777 809.995097764 388.131554331 776.649360859 417.862307031 717.187855458 c 0
 428.912352886 695.087763748 433.995097764 669.697916736 433.995097764 642 c 0
 433.995097764 636.19073361 433.621513009 628.866480007 432.931046003 619.204996595 c 0
 432.05895002 607.00203713 429.105597486 594.627517214 424.488848984 581.931458834 c 0
 416.496324958 559.952017763 399.306011218 536.452834017 381.88353591 520.584542238 c 1
 411.705892044 497.724510176 436.602416061 467.759410276 450.489076308 429.567915999 c 0
 456.861080275 412.043446565 459.995097764 393.356091717 459.995097764 374 c 0
 459.995097764 344.754189806 453.170528562 315.935269902 440.099327221 288.299422018 c 0
 414.877413507 234.973874308 373.412806183 191.25126122 321.188226757 165.137878622 c 0
 292.238100242 150.662209536 265.504446111 144.863756677 233.076752099 144.863756677 c 0
 198.212659639 144.863756677 163.656431851 154.20240987 130.279288589 171.912221774 c 0
 95.8474508887 190.181651308 67.7631868569 210.128156564 45.0296614235 233.61983619 c 0
 44.2248708482 234.451466217 43.4892308146 235.325357278 42.8227413225 236.234246931 c 0
 33.0037878345 249.624323335 27.0049022365 265.343339744 27.0049022365 282 c 0
EndSplineSet
Validated: 1
EndChar

StartChar: four
Encoding: 52 52 16
Width: 500
VWidth: 820
GlyphClass: 2
Flags: HMW
LayerCount: 2
Fore
SplineSet
192.059773478 468.1979141 m 0
 205.485681074 468.1979141 222.390393778 469.180349559 234.004902236 469.345716777 c 1
 234.004902236 523 l 2
 234.004902236 525.047663173 234.254612336 527.095326345 234.754032534 529.093153468 c 0
 238.825113524 545.378670244 245.810426708 560.257816705 257.74073748 571.051352608 c 0
 269.002468648 581.240014247 283.69803313 586.995097764 299 586.995097764 c 0
 316.832009671 586.995097764 334.853033795 579.031767123 346.034521541 567.850279377 c 0
 355.805408732 558.079392186 361.650388819 545.765509771 365.169349311 532.391810231 c 0
 365.719848279 530.299656079 365.995097764 528.149828039 365.995097764 526 c 2
 365.995097764 467.995097764 l 1
 423 467.995097764 l 2
 425.804560615 467.995097764 428.609121229 467.526663418 431.285636867 466.589794727 c 0
 447.230710196 461.008493516 461.348177722 453.056107967 471.365882239 440.812790387 c 0
 480.463688354 429.693743166 485.995097764 415.742585645 485.995097764 401 c 0
 485.995097764 383.870522203 478.192636217 367.774743505 466.827540861 356.409648149 c 0
 455.795792005 345.377899293 441.683756813 338.651397891 426.093153468 334.754032534 c 0
 424.095326345 334.254612336 422.047663173 334.004902236 420 334.004902236 c 2
 393 334.004902236 l 2
 386.904383511 334.004902236 377.950311715 334.134243093 365.995097764 334.391122523 c 1
 365.995097764 198 l 2
 365.995097764 197.635070911 365.971304321 197.270141823 365.971304321 196.905494828 c 0
 365.118856991 177.30919099 358.849167288 158.440148945 344.807288491 144.959418708 c 0
 332.490605317 133.134940968 316.34703097 126.004902236 299 126.004902236 c 0
 282.114822245 126.004902236 266.026049713 133.570952103 254.745949044 144.851052772 c 0
 242.226429002 157.370572814 236.536389784 173.957236145 234.216233305 191.744724853 c 0
 234.075345926 192.824838495 234.004902236 193.912419247 234.004902236 195 c 2
 234.004902236 336.492022853 l 1
 171.147237007 337.881767029 157.561757071 338.488741763 95.8781118567 346.199197414 c 0
 93.0288664419 346.555353091 90.229387724 347.401151129 87.6165140835 348.736591527 c 0
 61.7371317213 361.963550592 34.3405786868 384.326220322 34.3405786868 419.059424417 c 0
 34.3405786868 422.825875864 34.6880355312 426.647142441 35.4103374792 430.499360716 c 0
 46.6185644763 492.143070031 69.9349027126 545.877445888 105.590774651 590.514526539 c 1
 128.240063143 626.378625127 174.376991719 689.601738241 245.119513778 782.162146087 c 0
 247.951029766 785.866937346 251.526096841 789.302360395 254.568376821 792.344640374 c 0
 264.387678538 802.163942092 273.366667225 810.248933233 286.602120195 814.030491224 c 0
 296.745240249 816.928525525 306.573832536 818.078226876 317.652694303 818.078226876 c 0
 333.237371102 818.078226876 349.087683089 812.311169552 360.067364602 801.331488039 c 0
 371.322390014 790.076462626 375.295350834 775.302766942 375.295350834 760.849807151 c 0
 375.295350834 757.957145177 375.154076441 755.035876799 374.841137836 752.219773121 c 0
 371.305499382 720.402910927 354.129753877 692.281863367 329.169819718 667.321929208 c 0
 309.366247193 647.518356683 274.200497196 601.937568025 226.729762475 533.017212826 c 0
 209.024846841 506.302428256 194.83166666 484.395749478 184.591887187 468.29847848 c 1
 187.029581507 468.231709799 189.518952005 468.1979141 192.059773478 468.1979141 c 0
EndSplineSet
Validated: 1
EndChar

StartChar: five
Encoding: 53 53 17
Width: 500
VWidth: 820
GlyphClass: 2
Flags: HMW
LayerCount: 2
Fore
SplineSet
182.064786168 590.852137607 m 1
 197.850666565 593.448582895 216.040309751 594.995097764 233 594.995097764 c 0
 308.435746203 594.995097764 367.44359973 566.118864296 406.339482856 526.514389468 c 0
 441.745004278 490.463862542 470.995097764 438.930103009 470.995097764 373 c 0
 470.995097764 345.350359352 464.979696864 317.854442136 453.459290143 291.096525533 c 0
 429.549372644 235.562064476 384.584712693 190.934750377 329.725599577 164.912524583 c 0
 300.205104092 150.90958222 267.64672233 144.004902236 233 144.004902236 c 0
 164.303888924 144.004902236 104.750340585 168.873125567 60.2832674998 198.094132327 c 0
 58.6800291145 199.147681311 57.136380648 200.440457755 55.7868315997 201.874268677 c 0
 41.7186757348 216.820798826 33.0049022365 235.532326958 33.0049022365 256 c 0
 33.0049022365 273.479337064 39.63036379 290.498571574 51.8927052404 302.760913025 c 0
 64.5283235871 315.396531371 81.6562630542 320.995097764 99 320.995097764 c 0
 109.9165382 320.995097764 123.795279212 319.085306919 131.66880921 313.937280798 c 0
 147.451562667 303.617890755 163.679068778 295.521427675 180.434206506 289.537262084 c 0
 196.350261755 283.852778214 213.046011609 280.995097764 231 280.995097764 c 0
 264.293724962 280.995097764 289.631658823 294.326293606 307.093160667 311.78779545 c 0
 322.84613567 327.540770452 335.004902236 350.182421838 335.004902236 381 c 0
 335.004902236 403.773951494 326.887232541 416.275155421 315.849388659 427.312999303 c 0
 297.310916736 445.851471226 263.736415486 458.004902236 229 458.004902236 c 0
 207.684074037 458.004902236 189.765073934 454.843700134 172.126405157 449.89745912 c 0
 170.217453492 448.647870423 168.915896501 447.560556971 168.17766953 446.82233047 c 0
 160.405970214 439.050631154 152.28596597 431.482308658 141.86000437 426.742730376 c 0
 134.039992261 423.18780077 125.903040368 422.004902236 118 422.004902236 c 0
 100.224340979 422.004902236 83.0191429982 430.025517942 71.1979427389 441.846718202 c 0
 58.4180634826 454.626597458 52.4817558823 471.617644114 50.1991974145 489.878111857 c 0
 50.1105266746 490.587477776 50.0522060193 491.299928443 50.0242354486 492.013352173 c 0
 47.4340498588 558.079214073 46.7752436332 622.218779941 44.3620587896 688.873304973 c 1
 34.5941667948 701.081238461 29.0049025947 716.056800006 29.0049022365 732 c 0
 29.0049022365 750.879649378 37.7890647729 769.304331964 50.3123135795 781.827580771 c 0
 63.847934059 795.36320125 82.2333335579 800.995097764 101 800.995097764 c 0
 122.953121425 800.995097764 151.891327511 802.015066975 179.08028437 802.491600398 c 0
 235.392361654 803.428012426 291.848345789 804.355774502 347.914992501 805.48830284 c 0
 362.346668583 805.823603074 371.819488576 805.995097764 377 805.995097764 c 0
 379.047663173 805.995097764 381.095326345 805.745387664 383.093153468 805.245967466 c 0
 400.108391592 800.992469501 415.914109782 792.452362683 426.017256971 778.981499765 c 0
 434.842657439 767.214299141 439.995097764 752.928184152 439.995097764 738 c 0
 439.995097764 720.134831276 431.990875134 702.999172439 420.190058887 691.198356191 c 0
 409.296098669 680.304395973 395.397129119 673.579746216 380.093153468 669.754032534 c 0
 378.38764981 669.327687849 376.645827217 669.08332398 374.898690412 669.020940927 c 0
 337.274753959 667.677545252 300.141257911 667.004902236 263.5 667.004902236 c 0
 235.687080717 667.004902236 207.772795302 666.610709419 179.756888419 665.822606169 c 1
 180.53400367 640.840265984 181.305610411 615.852417287 182.064786168 590.852137607 c 1
EndSplineSet
Validated: 1
EndChar

StartChar: six
Encoding: 54 54 18
Width: 500
VWidth: 820
GlyphClass: 2
Flags: HMW
LayerCount: 2
Fore
SplineSet
259 285.995097764 m 0
 282.320476849 285.995097764 297.383577232 290.328983142 305.492293654 295.541729413 c 0
 315.256811216 301.818919275 323.014965231 308.675214105 328.286972722 317.901034157 c 0
 333.548715353 327.10889108 336.26806738 335.484709567 337.167564729 343.357453028 c 0
 338.441004514 354.503083152 339.004902236 362.78577237 339.004902236 367 c 0
 339.004902236 394.26318325 332.363508868 411.490892352 318.727261011 422.601415915 c 0
 306.826142559 432.298193091 291.71293093 438.004902236 272 438.004902236 c 0
 251.051275571 438.004902236 231.849956997 432.816186091 213.072803723 421.886042037 c 0
 193.009844453 410.207432836 176.909200169 394.543352153 163.0181338 376.019669412 c 0
 161.267304794 373.684945771 159.377089312 371.448585219 157.334569654 369.329066691 c 0
 159.774580849 361.763168436 162.747552323 354.331775001 164.990283218 346.594127437 c 0
 173.898477049 333.416338518 182.540070112 322.779425298 190.605701328 314.713793323 c 0
 198.147662045 307.171832606 205.201759978 301.862630735 211.445195808 298.467184882 c 0
 227.114212337 289.945707503 242.598721737 285.995097764 259 285.995097764 c 0
270 569.995097764 m 0
 334.330666441 569.995097764 384.327391207 547.637708796 418.133792299 513.831307704 c 0
 450.910232843 481.05486716 472.995097764 432.893867761 472.995097764 370 c 0
 472.995097764 265.338533677 422.380468912 196.877500088 345.951690964 167.654054123 c 0
 320.074126026 157.759461524 291.58820666 153.004902236 261 153.004902236 c 0
 226.433358524 153.004902236 192.981642762 159.692225011 161.327821146 172.942511505 c 0
 128.898087635 186.517594638 101.812996952 207.323678442 81.8562505134 234.188659155 c 0
 72.37770721 247.053175759 64.8653351553 257.624960179 59.1845915203 266.146595751 c 0
 47.5742799475 283.563126131 39.8948685086 301.341141461 34.253987734 323.907025749 c 0
 31.8212310761 333.639070696 28.9458783481 346.166939195 25.5780085419 361.660324436 c 0
 22.79829757 374.447972245 22.0049022365 388.436211406 22.0049022365 402 c 0
 22.0049022365 438.559974662 27.5730678514 475.78666589 38.4949697003 513.486374918 c 0
 69.900671577 621.891105061 131.949222495 713.489829696 202.970354234 784.510961435 c 0
 210.946879303 792.487486504 219.053233317 800.182804041 227.289551536 807.595399952 c 0
 240.611510239 819.585016427 258.984069753 826.995097764 277 826.995097764 c 0
 293.733492477 826.995097764 309.791276596 820.564062463 321.67766953 808.67766953 c 0
 333.564062463 796.791276596 339.995097764 780.733492477 339.995097764 764 c 0
 339.995097764 745.947576485 332.787300837 729.244007309 321.420204839 715.253833834 c 0
 320.523327807 714.149992952 319.494692446 713.084714161 318.41832433 712.145756168 c 0
 286.384147671 684.201091356 260.389453618 654.383028369 233.906199255 617.051651212 c 0
 220.516473826 598.17720009 208.672266378 578.821885967 198.352752222 558.967319558 c 1
 221.492652262 566.271823141 245.443326445 569.995097764 270 569.995097764 c 0
EndSplineSet
Validated: 1
EndChar

StartChar: seven
Encoding: 55 55 19
Width: 500
VWidth: 820
GlyphClass: 2
Flags: HMW
LayerCount: 2
Fore
SplineSet
199 132.004902236 m 0
 181.742760617 132.004902236 165.590062948 140.004551597 154.146822807 151.447791737 c 0
 141.751794073 163.842820471 135.765989791 180.307937363 134.118232926 197.613609469 c 0
 134.042679133 198.407118021 134.004902236 199.20355901 134.004902236 200 c 0
 134.004902236 200.822545511 134.045196103 201.645091023 134.125783836 202.464406197 c 0
 143.361530824 296.361918857 170.23004178 389.851532945 200.671628448 468.997517898 c 0
 227.841030928 539.636054036 263.613298002 609.934190824 303.262540929 669.004902236 c 1
 66 669.004902236 l 2
 64.8637523208 669.004902236 63.7275046416 669.081791391 62.5997720101 669.235569701 c 0
 44.1183111832 671.755712971 26.5939784267 678.926520994 14.670748753 692.553069192 c 0
 4.46105529216 704.221290291 -1.99509776351 719.031953445 -1.99509776351 735 c 0
 -1.99509776351 752.655259674 5.97679273541 769.375528864 17.8431797065 781.241915835 c 0
 31.1157066289 794.514442757 49.8712455308 800.995097764 69 800.995097764 c 2
 442 800.995097764 l 2
 444.103449531 800.995097764 446.206899063 800.731596161 448.25632738 800.204592956 c 0
 461.872105006 796.703344149 474.406438516 790.808528416 484.325280943 780.889685989 c 0
 496.368576247 768.846390685 501.995097764 752.516430683 501.995097764 736 c 0
 501.995097764 725.381800414 499.330527425 715.409494414 495.328856818 705.00374386 c 0
 494.393329878 702.571044888 493.063857517 700.255601567 491.340439734 698.15616536 c 0
 473.225512177 676.088924286 455.407711464 655.0740968 438.420634044 631.570042702 c 0
 394.740708793 568.589266577 354.33386133 495.281234028 323.666062872 419.591432873 c 0
 295.610303869 350.348287718 273.313491227 271.928011005 264.870184061 187.49493935 c 0
 264.630186357 185.094962304 264.044356507 182.723169038 263.112694511 180.460784133 c 0
 253.043393977 156.009176539 231.858188312 132.004902236 199 132.004902236 c 0
EndSplineSet
Validated: 1
EndChar

StartChar: eight
Encoding: 56 56 20
Width: 500
VWidth: 820
GlyphClass: 2
Flags: HMW
LayerCount: 2
Fore
SplineSet
267 697.004902236 m 0
 246.880423455 697.004902236 223.02946372 692.301152584 206.951151671 686.153847925 c 0
 197.381152346 682.494900316 188.790889698 677.702427979 182.387731029 671.29926931 c 0
 179.940943678 668.852481959 178.403706914 666.508144713 177.429184 663.692961932 c 0
 178.294195731 657.490856179 179.177540955 650.729271858 180.041912713 644.523549956 c 0
 198.271513618 614.774957095 220.208376759 594.060431595 247.286387806 573.174796471 c 1
 262.129081163 582.701728961 275.877825705 592.732464766 288.549270998 603.252194846 c 0
 303.841611303 615.947770493 316.169246895 630.192532451 327.624101468 647.841538388 c 0
 329.076515094 654.620746759 329.636938478 661.560092386 331.072886593 668.276606786 c 0
 330.341635091 671.341114986 329.927685183 674.390809077 329.576090628 677.539247862 c 0
 322.339980976 685.034003138 314.524860431 689.75797133 306.749873443 691.927784419 c 0
 294.837565774 695.25222485 281.656215523 697.004902236 267 697.004902236 c 0
237 259.995097764 m 0
 246.900750267 259.995097764 258.3849759 261.248782484 271.349372983 263.96232257 c 0
 296.344407658 269.19396027 317.033009511 282.309713716 331.013892376 299.664708023 c 0
 337.083944231 307.199691071 342.001882236 316.88130216 345.363778688 329.393319663 c 0
 343.66607678 335.384660676 340.269555589 341.640955196 334.239959924 348.474302234 c 0
 314.772921272 370.536312348 289.969046585 389.145256503 264.215214076 405.316634877 c 0
 255.156648902 411.00470033 246.573173631 416.353939022 238.467396697 421.362846323 c 1
 220.223811789 409.136389297 204.947884372 397.993691203 192.746099165 388.079740723 c 0
 178.198855861 376.260105538 167.689179249 363.342920293 156.323340408 345.188941261 c 0
 154.436721185 337.531644696 152.511862194 329.18726002 150.626552331 321.487551458 c 0
 152.164706777 313.393779743 152.782688685 304.633476805 154.411572733 296.754756382 c 0
 159.736095259 288.616383926 164.224025647 283.188027385 170.689256066 277.966306636 c 0
 181.942286631 268.877661782 196.234979853 262.114523673 212.795003405 260.931046003 c 0
 221.616800681 260.300587958 229.698529629 259.995097764 237 259.995097764 c 0
465.995097764 674 m 0
 465.995097764 582.101220538 416.690391112 533.857405431 361.151382205 495.845146153 c 1
 403.45742515 466.942888796 444.141107002 433.184096756 467.771511019 386.867618707 c 0
 477.988427341 366.842079567 482.995097764 344.512242519 482.995097764 321 c 0
 482.995097764 269.68251471 450.561043748 227.754967632 421.36289025 201.042925066 c 0
 391.366985636 173.601056835 348.509907154 147.590745116 302.203162951 140.355826327 c 0
 275.730193115 135.4975524 250.676077472 133.00490225 227 133.004902236 c 0
 199.951785614 133.004902236 174.095784305 136.864037634 149.786175217 144.717793344 c 0
 124.916763067 152.752405788 100.180911694 166.305720161 75.2290261474 184.826062776 c 0
 68.9825090268 189.358522345 63.2270859647 194.210819065 57.996819347 199.441086307 c 0
 44.1788174696 213.259088184 34.3266481361 229.617340894 29.7542117371 247.906129713 c 0
 23.8737007 271.426943372 19.2205960869 295.672876953 15.2973335695 321.174083316 c 0
 15.1023793475 322.441285759 15.0049022365 323.72064288 15.0049022365 325 c 0
 15.0049022365 326.917303333 15.2238299407 328.834606667 15.661685349 330.710998958 c 0
 20.3704663026 350.890081179 25.0842430986 370.086161254 29.8078936164 388.304685285 c 0
 35.7648471749 411.27990353 48.9565008724 432.115564818 67.5959456504 450.947553056 c 0
 80.0702893431 465.487686697 94.5832059688 478.481785983 110.535106302 489.240650969 c 0
 115.746821702 492.755726989 121.02081206 496.247569868 126.35697139 499.71628128 c 1
 108.215670586 516.301060111 91.7964326328 535.093355053 77.876753634 555.362599796 c 0
 55.9633863268 587.27191359 45.0049022365 624.496070211 45.0049022365 665 c 0
 45.0049022365 694.52780213 52.615602814 721.515844025 68.9359680809 743.418929258 c 0
 97.48171081 781.729336276 144.109910302 807.089329559 199.531246839 817.095208067 c 0
 224.888731739 821.673298908 249.726428883 823.995097764 274 823.995097764 c 0
 338.087135463 823.995097764 393.673981155 804.086671548 427.03532306 770.725329643 c 0
 434.350544044 763.410108658 440.847907537 755.324324234 446.513641216 746.551298944 c 0
 459.896357943 725.829020251 465.995097764 701.016639879 465.995097764 674 c 0
EndSplineSet
Validated: 1
EndChar

StartChar: nine
Encoding: 57 57 21
Width: 500
VWidth: 820
GlyphClass: 2
Flags: HMW
LayerCount: 2
Fore
SplineSet
245 501.995097764 m 0
 285.246297488 501.995097764 323.776102325 521.023235728 349.004902236 538.841762511 c 1
 349.004902236 544.561175007 349.004902236 550.280587504 349.004902236 556 c 0
 349.004902236 573.885073943 347.465804054 591.387340331 344.396240383 608.578875514 c 0
 338.886438254 639.43731902 326.947835452 662.077566886 304.286818476 675.468373575 c 0
 294.370992574 681.327815274 280.761290182 685.004902236 262 685.004902236 c 0
 227.078421857 685.004902236 199.201481262 669.501323987 180.831942899 651.131785623 c 0
 164.759514138 635.059356862 150.995097764 610.357787095 150.995097764 580 c 0
 150.995097764 559.983044726 156.971840896 546.366486665 168.019742097 534.336714404 c 0
 179.845225592 522.58847651 191.891362077 514.621405333 204.222380495 509.740628272 c 0
 217.355891256 504.542214131 230.749571535 501.995097764 245 501.995097764 c 0
184 125.004902236 m 0
 165.44524642 125.004902236 147.234127688 130.894345169 134.09110669 144.037366167 c 0
 122.741379774 155.387093083 116.004902236 170.706874854 116.004902236 187 c 0
 116.004902236 209.957830675 129.450100052 229.777437806 145.40103017 242.538882886 c 0
 146.870569207 243.714578697 148.442445625 244.700271822 150.083582199 245.495962262 c 0
 213.213756399 276.104064522 265.084537195 320.310672739 300.910268659 377.583872248 c 1
 282.681408178 373.882182383 264.357188567 372.004902236 246 372.004902236 c 0
 209.229240709 372.004902236 175.919905653 378.143540152 146.77596653 391.181411226 c 0
 118.913682022 403.645919599 95.1257135734 419.875052171 75.8067578556 440.353122593 c 0
 57.0361442538 460.249951014 42.6928638012 482.745931181 33.1713858037 507.503112985 c 0
 23.8584351217 531.718094443 19.0049022365 556.364082928 19.0049022365 581 c 0
 19.0049022365 609.557290013 24.5053587998 637.782058941 35.228512405 665.144028525 c 0
 58.1051296589 723.51764962 103.773455718 767.685941562 161.306107826 793.332048776 c 0
 192.662616354 807.30971798 228.14251751 813.995097764 267 813.995097764 c 0
 285.757548319 813.995097764 303.623766582 811.390280647 320.259157122 805.933111114 c 0
 361.016452752 794.726157568 392.129596436 777.360469737 417.511350726 751.978715447 c 0
 446.339685658 723.150380514 466.480876235 684.020860561 475.084174204 637.029441525 c 0
 479.68427145 611.903600471 482.292514852 585.098757246 482.987602321 556.61441879 c 0
 482.992599283 556.409645778 482.995097764 556.204822889 482.995097764 556 c 0
 482.995097764 454.268870623 452.925641552 370.283802398 410.528825334 304.472241817 c 0
 361.770591379 228.786005114 293.294977888 170.332686371 208.898947193 129.495575712 c 0
 202.292021395 126.298650955 193.027549369 125.004902236 184 125.004902236 c 0
EndSplineSet
Validated: 1
EndChar

StartChar: colon
Encoding: 58 58 22
Width: 1024
GlyphClass: 2
Flags: HMW
LayerCount: 2
Fore
SplineSet
155 463 m 1
 125 485 110 515.666666667 110 555 c 0
 110 560.333333333 110.333333333 566 111 572 c 0
 111 584.666666667 115.333333333 598.333333333 124 613 c 0
 142.666666667 646.333333333 170 664.333333333 206 667 c 1
 221 667 l 1
 242 663 l 2
 244 662.333333333 249 661 257 659 c 128
 265 657 273.333333333 654.333333333 282 651 c 128
 290.666666667 647.666666667 299.666666667 640.5 309 629.5 c 128
 318.333333333 618.5 325 606.333333333 329 593 c 1
 329 592 l 1
 330 591 l 1
 332.666666667 579.666666667 334 569 334 559 c 128
 334 549 332.666666667 540 330 532 c 1
 330 531 l 1
 322.666666667 497 305 472 277 456 c 1
 277 455 l 1
 259.666666667 445 241.333333333 440 222 440 c 0
 219 440 219 440 216 440 c 0
 189.333333333 441.333333333 169 449 155 463 c 1
132 225 m 1
 133 225 l 1
 153.666666667 241.666666667 176 250 200 250 c 0
 211.333333333 250 223.333333333 248 236 244 c 1
 265.333333333 242.666666667 288.666666667 231 306 209 c 0
 322 189.666666667 330 167.666666667 330 143 c 0
 330 139.666666667 329.666666667 136 329 132 c 2
 329 131 l 1
 326.333333333 105.666666667 317.666666667 83.6666666667 303 65 c 1
 302 65 l 1
 285.333333333 41 264 25.6666666667 238 19 c 0
 226 15.6666666667 214 14 202 14 c 0
 188 14 174.333333333 16.3333333333 161 21 c 1
 159 21 l 1
 144.333333333 26.3333333333 131.333333333 34.6666666667 120 46 c 0
 98.6666666667 67.3333333333 88 92.3333333333 88 121 c 0
 88 127 88.6666666667 133 90 139 c 0
 94.6666666667 176.333333333 108.666666667 205 132 225 c 1
EndSplineSet
Validated: 1
EndChar

StartChar: semicolon
Encoding: 59 59 23
Width: 1024
GlyphClass: 2
Flags: HMW
LayerCount: 2
Fore
SplineSet
282 110 m 1
 255 76 l 2
 253.666666667 72 242.333333333 61 221 43 c 1
 220 43 l 1
 191.333333333 19 162.333333333 7 133 7 c 0
 126.333333333 7 120 7.66666666667 114 9 c 2
 112 9 l 1
 92.6666666667 11.6666666667 77 18.6666666667 65 30 c 0
 53 42 47 57 47 75 c 0
 47 85.6666666667 49 97.6666666667 53 111 c 0
 60.3333333333 134.333333333 74.6666666667 161.333333333 96 192 c 1
 97 192 l 1
 108.333333333 208 118.5 219.5 127.5 226.5 c 128
 136.5 233.5 141 237.666666667 141 239 c 2
 144 243 l 2
 158 263.666666667 174.166666667 278.333333333 192.5 287 c 128
 210.833333333 295.666666667 224.166666667 300.166666667 232.5 300.5 c 128
 240.833333333 300.833333333 252 301 266 301 c 128
 280 301 292.666666667 296 304 286 c 0
 319.333333333 272.666666667 327 255 327 233 c 0
 327 223.666666667 325.666666667 213.666666667 323 203 c 0
 321 193.666666667 318 182.666666667 314 170 c 128
 310 157.333333333 299.333333333 138 282 112 c 1
 282 110 l 1
155 463 m 1
 125 485 110 515.666666667 110 555 c 0
 110 560.333333333 110.333333333 566 111 572 c 0
 111 584.666666667 115.333333333 598.333333333 124 613 c 0
 142.666666667 646.333333333 170 664.333333333 206 667 c 1
 221 667 l 1
 242 663 l 2
 244 662.333333333 249 661 257 659 c 128
 265 657 273.333333333 654.333333333 282 651 c 128
 290.666666667 647.666666667 299.666666667 640.5 309 629.5 c 128
 318.333333333 618.5 325 606.333333333 329 593 c 1
 329 592 l 1
 330 591 l 1
 332 579 333 568.166666667 333 558.5 c 128
 333 548.833333333 332 540 330 532 c 2
 330 531 l 1
 322.666666667 497 305 472 277 456 c 1
 277 455 l 1
 259.666666667 445 241.333333333 440 222 440 c 0
 219 440 219 440 216 440 c 0
 189.333333333 441.333333333 169 449 155 463 c 1
EndSplineSet
Validated: 1
EndChar

StartChar: qmark
Encoding: 63 63 24
Width: 800
GlyphClass: 2
Flags: HMW
LayerCount: 2
Fore
SplineSet
268 927 m 0
 273 927 273 927 278 927 c 0
 298.666666667 927 316.333333333 923.666666667 331 917 c 0
 342.333333333 911.666666667 353.333333333 904.333333333 364 895 c 256
 374.666666667 885.666666667 383.666666667 875.666666667 391 865 c 2
 392 864 l 1
 392 863 l 1
 393 862 l 2
 401.666666667 850 410 831.666666667 418 807 c 0
 425.333333333 787 430.666666667 766.666666667 434 746 c 0
 436.666666667 728 438.333333333 709.666666667 439 691 c 0
 439 688 439 688 439 685 c 0
 439 661 436.333333333 639 431 619 c 2
 430 616 l 1
 430 614 l 1
 422 588 414 570.666666667 406 562 c 0
 405 560 405 560 404 558 c 0
 394 540.666666667 380.333333333 524.333333333 363 509 c 1
 361 508 l 1
 347.666666667 496.666666667 330 485 308 473 c 2
 306 472 l 2
 289.333333333 463.333333333 280.666666667 442.333333333 280 409 c 2
 280 409 280 409 283 322 c 0
 283 298 273.333333333 277.333333333 254 260 c 0
 248.666666667 255.333333333 242.333333333 251.666666667 235 249 c 0
 225.666666667 245 216.333333333 243 207 243 c 0
 193.666666667 243 180.333333333 247 167 255 c 0
 148.333333333 266.333333333 135.666666667 282.666666667 129 304 c 1
 129 305 l 2
 128.333333333 306.333333333 127.666666667 308 127 310 c 0
 123 330.666666667 121.333333333 343.666666667 122 349 c 0
 124.666666667 391 124 432.666666667 120 474 c 0
 118 510 128.666666667 545.333333333 152 580 c 1
 153 582 l 2
 164.333333333 599.333333333 176.666666667 613 190 623 c 0
 207.333333333 635.666666667 224 646.333333333 240 655 c 0
 252.666666667 661.666666667 261.666666667 667.666666667 267 673 c 1
 268 673 l 1
 270 675.666666667 271.333333333 677.333333333 272 678 c 2
 273 679 l 2
 275.666666667 683 277 685.666666667 277 687 c 0
 277 688 277 688 277 688 c 2
 277 691 277 691 277 694 c 0
 277 702.666666667 276.333333333 708.666666667 275 712 c 0
 272.333333333 728 267.333333333 736 260 736 c 0
 252 736 239.333333333 735.333333333 222 734 c 2
 219 734 l 2
 195 732 176.666666667 729.666666667 164 727 c 0
 157.333333333 725.666666667 151 725 145 725 c 0
 125 725 102.333333333 731.666666667 77 745 c 0
 75 746.333333333 73 748.333333333 71 751 c 0
 61.6666666667 762.333333333 55.3333333333 775.333333333 52 790 c 0
 51.3333333333 795.333333333 51 801 51 807 c 0
 51 823 56 839 66 855 c 0
 67.3333333333 856.333333333 68.3333333333 857.666666667 69 859 c 0
 83 875.666666667 103.333333333 889 130 899 c 1
 132 900 l 1
 155.333333333 908.666666667 179.333333333 915 204 919 c 0
 228.666666667 923.666666667 250 926.333333333 268 927 c 0
199 186 m 1
 207.666666667 192.666666667 217.333333333 196 228 196 c 0
 232.666666667 196 237.666666667 195 243 193 c 0
 262.333333333 187 273.666666667 174.333333333 277 155 c 1
 285.666666667 143 291 130 293 116 c 0
 293.666666667 111.333333333 294 107 294 103 c 0
 294 80.3333333333 285 61 267 45 c 0
 257.666666667 37 247.333333333 31.3333333333 236 28 c 0
 226.666666667 25.3333333333 218 24 210 24 c 0
 186 24 165.666666667 35.6666666667 149 59 c 0
 138.333333333 73 133 88.6666666667 133 106 c 0
 133 110 133.333333333 114.333333333 134 119 c 0
 136 132.333333333 141 144.333333333 149 155 c 0
 152.333333333 159.666666667 156.333333333 164 161 168 c 0
 166.333333333 172.666666667 172 176.333333333 178 179 c 0
 184.666666667 182.333333333 191.666666667 184.666666667 199 186 c 1
EndSplineSet
Validated: 33
EndChar

StartChar: A
Encoding: 65 65 25
Width: 500
VWidth: 820
GlyphClass: 2
Flags: HMW
LayerCount: 2
Fore
SplineSet
286.844905795 487.105505958 m 1
 284.569762977 496.615120616 282.452606961 506.269627354 280.492794638 516.068688966 c 0
 276.671553138 535.17489647 271.23357381 553.236322808 265.289899126 571.066476247 c 0
 259.842813235 587.406936046 254.2855556 603.517647764 248.617854305 619.398020829 c 1
 236.320897245 575.432258755 222.471594556 529.041845294 209.610065427 484.945090842 c 1
 286.844905795 487.105505958 l 1
424.457794767 143.888482076 m 0
 404.935288174 143.888482076 387.707091336 153.366243528 376.914271535 164.159063329 c 0
 370.484738188 170.588596676 365.2693476 178.049376315 360.90161699 186.299297169 c 0
 359.481123825 188.982373857 358.583067543 191.870479651 358.207448141 194.812801059 c 0
 350.90955221 251.979058618 337.723540465 305.566987652 321.891668763 355.791386252 c 1
 178.529596124 354.114636864 l 1
 164.194534374 303.874738801 151.153247597 252.038823633 139.409746696 198.60430327 c 0
 139.147177598 197.409578298 138.796273652 196.230436973 138.357034856 195.077364757 c 0
 131.527939219 177.149894505 119.831991377 161.395527698 102.585057755 153.34639725 c 0
 93.4508517102 149.083470425 83.4177980945 146.616792364 73.2851369545 146.616792364 c 0
 47.3097281408 146.616792364 30.3697700826 161.15325842 20.1210793061 178.031896667 c 0
 13.4816638549 188.966394938 10.7488191282 201.263444955 10.7488191282 213.841656491 c 0
 10.7488191282 219.972296425 11.2785079831 226.635070594 12.6309155144 232.577487333 c 0
 34.7843598489 329.918706897 61.6149835384 429.184798195 93.1289133947 530.433058484 c 2
 173.128913395 788.433058484 l 2
 175.043933978 794.608999864 179.590759335 799.475560253 183.775987261 803.660788179 c 0
 194.007358143 813.892159061 206.650518458 821.049082541 220.586782565 824.894084278 c 0
 226.509965831 826.895909575 232.638740803 827.812666003 238.735215013 827.812666003 c 0
 246.076799072 827.812666003 253.371541193 826.483203682 260.203996128 824.118212699 c 0
 271.270131977 820.287771085 281.372303651 814.983035409 289.67766953 806.67766953 c 1
 287.58173951 807.545250942 l 1
 287.811481272 807.25646716 288.033910391 806.963760212 288.249026866 806.667379847 c 0
 319.423549291 763.716153882 342.666178925 720.779774212 357.611154423 677.724358961 c 0
 371.464285473 637.814470185 383.388802267 601.907583472 393.392854331 569.96204831 c 0
 402.696315633 549.22458488 419.285669545 496.504755683 426.030491224 472.897879805 c 2
 449.932461642 389.240983343 l 1
 466.926335698 335.585661056 480.659370516 279.552964415 487.826719476 217.90704331 c 0
 487.938971668 216.941569217 487.995097764 215.970784609 487.995097764 215 c 0
 487.995097764 180.615797676 466.049804288 150.785031446 435.749807724 144.957189853 c 0
 431.99300972 144.234614733 428.214886297 143.888482076 424.457794767 143.888482076 c 0
EndSplineSet
Validated: 1
Substitution2: "'liga' Standard-Ligaturen in Lateinisch Nachschlagetabelle 387 Subtabelle" A_under
MultipleSubs2: "Mehrfache Substitution Nachschlagetabelle 335 Subtabelle" A_under tp_name_end
MultipleSubs2: "Mehrfache Substitution Nachschlagetabelle 282 Subtabelle" tp_name_start A_under
EndChar

StartChar: B
Encoding: 66 66 26
Width: 500
VWidth: 820
GlyphClass: 2
Flags: HMW
LayerCount: 2
Fore
SplineSet
164.995097764 566.567428798 m 1
 169.269128104 566.389579963 172.951987947 566.332066554 178.322346959 566.332066554 c 0
 186.842281412 566.332066554 197.679061908 566.535731962 210.635410369 566.963675282 c 0
 231.512644 568.634801429 260.605852356 579.44143846 277.540713418 589.179634768 c 0
 288.541730519 595.505642624 297.63219398 603.026083756 305.463570759 612.207125025 c 0
 311.385232679 619.149329953 314.004902236 626.153833 314.004902236 636 c 0
 314.004902236 652.158701084 307.681467562 661.137273379 299.623675938 669.195065002 c 0
 282.986778743 685.831962197 252.253056981 696.004902236 220 696.004902236 c 0
 202.694885659 696.004902236 184.37956091 693.724261595 164.995097764 688.995878088 c 1
 164.995097764 566.567428798 l 1
201.040524766 435.405081472 m 0
 189.365561122 435.405081472 175.95057794 434.697486867 164.995097764 433.573413476 c 1
 164.995097764 280.482312572 l 1
 175.072515382 280.809454217 186.848512574 281.302419664 200.258163103 281.964462957 c 0
 249.913007558 284.415955386 291.952509436 294.702174951 320.625738367 318.315422306 c 0
 330.993485203 326.853566759 337.004902236 338.339143627 337.004902236 358 c 0
 337.004902236 373.319560594 330.804992551 387.902303573 322.033246252 396.674049873 c 0
 318.963379617 399.743916507 314.984952039 402.50832643 310.73870589 405.462389654 c 0
 297.731229875 414.511536875 283.57253024 421.11198785 267.891834493 425.38861717 c 0
 246.495790506 431.224005505 226.553518262 435.405081472 201.040524766 435.405081472 c 0
29.0049022365 216 m 0
 29.0049022365 223.667990378 30.5965497426 230.674580187 33.0141672101 237.579515714 c 0
 33.3833820975 418.231179056 33.853568193 549.702141192 34.4255037013 632.063812806 c 0
 34.7584656649 680.012058186 34.5247694649 700.198583126 35.6794313302 730.79926973 c 0
 35.6945356808 731.199563109 35.7003682571 731.555108318 35.7003682571 731.877759299 c 0
 35.7003682571 732.972134458 35.6332675806 733.688079102 35.6332675806 734.488147407 c 0
 35.6332675806 735.681071554 35.7824433977 737.061016407 36.5256456357 740.161256406 c 0
 39.8330721694 758.355196362 50.5680927876 774.478496429 64.0122142668 786.293425275 c 0
 78.6956171946 799.197456311 97.5732416069 808.455214017 120.296503493 815.78554095 c 0
 145.188604853 823.815516662 179.066007471 827.615054053 224.237333112 828.983547916 c 0
 224.491491804 828.991247814 224.745745902 828.995097764 225 828.995097764 c 0
 297.527769139 828.995097764 354.652018721 799.938525014 392.010789459 762.579754276 c 0
 408.049857205 746.54068653 420.860106881 728.705608291 430.093220906 709.213478683 c 0
 440.380519835 687.49584761 445.995097764 665.25210011 445.995097764 643 c 0
 445.995097764 613.283834992 438.220670919 584.413631419 423.41732982 557.463588486 c 0
 414.319039755 540.899806956 402.970952593 525.6806399 389.501987396 511.923901255 c 1
 410.553422597 497.31967096 428.789569396 479.271190155 442.226428988 457.715954519 c 0
 460.378911337 428.595978105 469.995097764 396.914510792 469.995097764 364 c 0
 469.995097764 314.971077056 450.346150667 275.019721667 427.412816864 244.880249494 c 0
 401.674804601 211.05480959 365.132472729 183.037857138 320.592374865 169.178420437 c 0
 269.024920344 152.477549765 219.158832399 149.004902236 152 149.004902236 c 2
 124.5 149.004902236 l 2
 114.87867996 149.004902236 105.112697267 149.360890843 95.2049965946 150.068953997 c 0
 95.0436126187 150.080487454 94.8823195386 150.108227098 94.7211419049 150.108227098 c 0
 75.6981370166 151.837130598 57.3114251253 159.187724119 45.3410495197 173.437614611 c 0
 35.3797431049 185.295849493 29.0049022365 200.05518707 29.0049022365 216 c 0
EndSplineSet
Validated: 1
Substitution2: "'liga' Standard-Ligaturen in Lateinisch Nachschlagetabelle 387 Subtabelle" B_under
MultipleSubs2: "Mehrfache Substitution Nachschlagetabelle 336 Subtabelle" B_under tp_name_end
MultipleSubs2: "Mehrfache Substitution Nachschlagetabelle 283 Subtabelle" tp_name_start B_under
EndChar

StartChar: C
Encoding: 67 67 27
Width: 500
VWidth: 820
GlyphClass: 2
Flags: HMW
LayerCount: 2
Fore
SplineSet
417 386.995097764 m 0
 433.733492477 386.995097764 449.791276596 380.564062463 461.67766953 368.67766953 c 0
 473.87741726 356.477921799 479.995097764 339.971704581 479.995097764 323 c 0
 479.995097764 312.381800414 477.330527425 302.409494414 473.328856818 292.00374386 c 0
 472.706184023 290.384575664 471.908992016 288.817352136 470.937280798 287.33119079 c 0
 446.48121436 249.927423173 417.666834899 213.888032417 381.852461229 187.386613006 c 0
 347.392978676 161.887766979 303.903092798 141.004902236 247 141.004902236 c 0
 208.468416695 141.004902236 176.339972976 147.322307108 153.253900835 166.079740723 c 0
 131.400022617 183.836016774 113.490008198 203.377966822 93.4852054856 226.767545726 c 0
 49.6980690427 277.963385924 20.0049022365 352.222123565 20.0049022365 443 c 0
 20.0049022365 473.194732315 23.9200185097 501.565010343 32.0477996884 528.166202279 c 0
 51.7208223927 594.212967317 75.328026851 639.955502583 111.083485763 690.433797518 c 0
 128.664159727 715.253572526 149.912775292 737.020546436 175.349762717 752.767252937 c 0
 196.614894734 765.931382281 214.777432363 776.634279418 230.027940428 784.952553742 c 0
 230.687420834 785.312262344 231.359729663 785.640075693 232.042591932 785.93599379 c 0
 252.906198373 794.977229492 272.458961229 802.051061647 290.851551811 807.100360267 c 0
 309.694760764 812.273366677 328.105148213 814.995097764 346 814.995097764 c 0
 374.253384121 814.995097764 400.773365947 806.60209592 423.513571648 790.35977165 c 0
 429.573736148 786.031263885 435.363357515 781.056726875 440.929597087 775.490487303 c 0
 456.913694941 759.506389448 471.002430895 738.845654509 484.175932836 713.553024779 c 0
 488.283902687 705.66587671 489.995097764 693.678140539 489.995097764 684 c 0
 489.995097764 666.755657895 484.177839471 649.822500412 471.67766953 637.32233047 c 0
 459.791276596 625.435937537 443.733492477 619.004902236 427 619.004902236 c 0
 406.769612684 619.004902236 388.54432002 628.100340921 374.32233047 642.32233047 c 0
 372.460643796 644.184017145 370.954192304 646.267280489 369.802975995 648.487560808 c 0
 361.062242448 665.345277743 353.296155484 676.348505456 349.32233047 680.32233047 c 0
 345.876993602 683.767667339 344.291149492 684.004902236 342 684.004902236 c 0
 322.158299472 684.004902236 304.371201726 679.958790657 284.907506179 672.994148134 c 0
 261.400916926 661.117056288 243.768287621 648.772924412 231.886896319 636.891532511 c 0
 230.239986326 635.244622518 228.698697992 633.604781202 227.260277584 631.974571406 c 0
 213.339985743 616.198240653 201.912214986 600.153793234 192.859765733 583.859384578 c 0
 184.262689387 568.384647156 175.569133045 546.039832038 167.580355409 517.279109084 c 0
 159.735322715 489.035888134 154.559546791 461.249721154 151.998093128 433.873755246 c 0
 152.246959431 387.077737923 168.384664612 345.829095663 189.560502972 317.423664185 c 0
 202.721296651 299.769674922 212.975707427 287.555598331 222.880594885 277.969921404 c 0
 226.575417457 274.394174014 231.572671567 271.739801888 241.373394335 271.739801888 c 0
 242.790486347 271.739801888 244.308001742 271.795295334 245.936523711 271.911520856 c 0
 272.895850616 274.40501264 294.732408202 283.987356328 311.474302234 298.760040076 c 0
 331.248920217 316.208733582 348.886229092 339.492087188 362.657647875 362.028136464 c 0
 364.104953951 364.396560628 366.07733685 366.651788586 368.253833834 368.420204839 c 0
 382.244007309 379.787300837 398.947576485 386.995097764 417 386.995097764 c 0
EndSplineSet
Validated: 1
Substitution2: "'liga' Standard-Ligaturen in Lateinisch Nachschlagetabelle 387 Subtabelle" C_under
MultipleSubs2: "Mehrfache Substitution Nachschlagetabelle 337 Subtabelle" C_under tp_name_end
MultipleSubs2: "Mehrfache Substitution Nachschlagetabelle 284 Subtabelle" tp_name_start C_under
EndChar

StartChar: D
Encoding: 68 68 28
Width: 500
VWidth: 820
GlyphClass: 2
Flags: HMW
LayerCount: 2
Fore
SplineSet
180.384325966 670.266550822 m 0
 168.150949449 670.266550822 166.903484128 668.631127146 157.995097764 666.556999354 c 1
 157.995097764 274.582264737 l 1
 195.984394983 278.86943022 210.838812132 280.270134553 242.296004247 300.914231882 c 0
 258.08643114 311.276857652 270.101701262 320.81421841 278.11348974 328.826006888 c 0
 280.652725336 331.365242484 282.479877019 333.606430297 284.537638622 335.857109994 c 0
 317.640371394 372.063271317 343.004902236 424.218952058 343.004902236 488 c 0
 343.004902236 541.563732274 321.759424058 583.885236882 292.82233047 612.82233047 c 0
 274.356056749 631.288604192 258.531424298 645.447892096 245.86741349 655.096956693 c 0
 237.22698155 661.680343836 222.184151656 667.30095492 199.068777478 669.079060626 c 0
 198.750285734 669.079060626 198.43217516 669.134129662 198.114634646 669.17076964 c 0
 191.062768227 669.984461816 185.078462187 670.266550822 180.384325966 670.266550822 c 0
183.180966632 801.741768069 m 0
 189.929858107 801.741768069 196.710497701 801.478791223 203.516888268 800.953296542 c 0
 252.664258172 798.837572437 290.981807318 790.819254938 317.766391174 771.176790739 c 0
 343.28793705 752.460575041 367.444051015 727.128564443 389.543152522 701.199239757 c 0
 416.016999812 670.136936981 437.197927922 636.725562027 452.880385739 601.084751542 c 0
 467.849907973 567.064197417 475.160443731 529.515403275 475.160443731 489.178638288 c 0
 475.160443731 439.840083912 468.516180511 397.423679877 451.343941433 352.543068538 c 0
 424.225447399 281.667361346 369.53155285 223.181393207 303.419574432 189.255073608 c 0
 275.683554741 175.021933247 243.858685122 164.389198569 208.070075562 157.020955424 c 0
 178.762733528 150.987090888 159.880776025 146.572685856 156.105611676 145.405795922 c 0
 149.090815211 142.330015976 145.294373807 142.300820777 138.302277778 141.260301437 c 0
 129.652526345 139.973100468 117.867701051 138.628737995 102.44492027 137.123874859 c 0
 101.632049593 137.044559777 100.816024796 137.004902236 100 137.004902236 c 0
 98.8888819868 137.004902236 97.7777639737 137.078427983 96.6746084454 137.225479477 c 0
 70.6606978521 140.693154083 47.8472871968 154.392956086 37.6376929689 174.812144542 c 0
 34.5845400487 180.918450382 32.0272199887 187.00996465 29.5102418527 193.933959449 c 0
 27.3560279511 199.860020402 26.0049532198 206.235476521 26.0049532198 212.94932254 c 2
 25.0049532198 709.94932254 l 2
 25.0049022365 711.189518595 25.0891700139 712.37903719 25.2577055686 713.558786073 c 0
 28.3203911691 734.997585277 41.2886150158 753.535070638 57.2761364613 765.833164057 c 0
 85.1834768405 787.300348964 133.899023213 801.741768069 183.180966632 801.741768069 c 0
EndSplineSet
Validated: 1
Substitution2: "'liga' Standard-Ligaturen in Lateinisch Nachschlagetabelle 387 Subtabelle" D_under
MultipleSubs2: "Mehrfache Substitution Nachschlagetabelle 338 Subtabelle" D_under tp_name_end
MultipleSubs2: "Mehrfache Substitution Nachschlagetabelle 285 Subtabelle" tp_name_start D_under
EndChar

StartChar: E
Encoding: 69 69 29
Width: 500
VWidth: 820
GlyphClass: 2
Flags: HMW
LayerCount: 2
Fore
SplineSet
316.790217189 672.754697756 m 0
 299.621310408 672.754697756 281.668156126 673.147841744 264.324215399 673.147841744 c 0
 234.974996289 673.147841744 206.489703118 672.110972669 178.867959325 670.04511851 c 1
 178.130463318 537.295837239 l 1
 185.188564586 537.169425425 192.254022274 537.106202843 199.326921219 537.106202843 c 0
 255.784048948 537.106202843 307.322638389 540.85477131 360.635540923 545.883845585 c 0
 362.468110639 546.05671423 364.496809041 546.073617045 366.413180494 546.073617045 c 0
 383.787030172 546.073617045 400.76034988 541.43351422 414.000347123 529.782378711 c 0
 425.462873121 519.695409565 434.452551371 505.590342507 436.742398506 489.558057475 c 0
 437.130658411 486.839669263 437.317572281 484.130951109 437.317572281 481.444219562 c 0
 437.317572281 463.97542209 428.707351622 446.589928528 418.104765409 435.987342316 c 0
 407.354244176 425.236821082 393.575524647 419.039150497 378.569596465 415.629121009 c 0
 377.483501627 415.382310856 376.38407318 415.20869049 375.279219096 415.10825991 c 0
 317.060672346 409.816228588 258.507517669 405.205069036 196.440800171 405.205069036 c 0
 190.228083674 405.205069036 184.028754418 405.252607812 177.842851741 405.347708391 c 1
 177.126340996 284.973903281 l 1
 195.713614605 282.99017294 214.663598666 281.994344825 233.989513963 281.994344825 c 0
 247.3931835 281.994344825 260.977685206 282.473362638 274.747429787 283.434042493 c 0
 317.513173848 286.417699055 358.763383953 289.897028522 398.49493935 293.870184061 c 0
 398.887912481 293.909481374 399.281641244 293.960259778 399.675769063 293.960259778 c 0
 401.375637769 294.049767937 403.074175292 294.095491625 404.768542649 294.095491625 c 0
 419.657893634 294.095491625 434.22521958 290.564654846 446.544029384 282.187055726 c 0
 461.93535817 271.719942056 474.797693533 255.364614272 474.797693533 230.800995143 c 0
 474.797693533 200.194142244 456.546803766 181.136059889 436.67137614 169.443725171 c 0
 434.784429912 168.33367072 432.782569471 167.492361035 430.7214364 166.919796115 c 0
 406.435225184 160.17329693 380.257109775 156.913939278 352.348282008 156.913939278 c 0
 338.220607727 156.913939278 323.934755656 157.405041113 309.94206377 157.405041113 c 0
 272.150459139 157.405041113 234.194949394 155.380037393 196.840240059 155.380037393 c 0
 158.380463698 155.380037393 126.359635792 157.616455134 93.0611890845 165.715970419 c 0
 91.260303917 166.154017787 89.498771638 166.794456608 87.8129567543 167.637286881 c 0
 74.2837661327 174.401262894 62.3826195345 183.781113759 54.6353183308 196.508475498 c 0
 48.7176843871 206.230037351 44.8854042952 217.510882855 44.8854042952 229.354102917 c 0
 44.8854042952 230.552354026 45.0049022365 231.753774244 45.0049022365 233 c 2
 45.0049022365 683.617261125 l 1
 40.7460822442 695.742091992 37.7671656336 706.872781732 36.257601494 717.441942525 c 0
 35.666868647 721.577937997 35.3386679526 725.74421232 35.3386679526 729.898061864 c 0
 35.3386679526 752.812767689 45.5833210598 768.575052693 57.4042926955 781.710106951 c 0
 61.0377739273 785.747505448 66.0507289834 788.52842189 71.184373793 789.530059473 c 0
 115.772140972 798.229684203 154.560536413 802.795273716 204.594431788 802.795273716 c 0
 224.943417641 802.795273716 247.217106259 801.32906638 267.656509479 801.32906638 c 0
 305.082461498 801.32906638 336.354823834 806.661808428 373.43963876 806.661808428 c 0
 382.534436836 806.661808428 391.753886089 806.446578988 401.097441585 806.018026376 c 0
 402.203734954 806.05488409 403.30926623 806.07361704 404.413180493 806.07361704 c 0
 421.787030172 806.07361704 438.76034988 801.433514215 452.000347123 789.782378711 c 0
 463.462873121 779.695409565 472.452551371 765.590342507 474.742398506 749.558057475 c 0
 475.130658411 746.839669263 475.317572281 744.130951109 475.317572281 741.444219562 c 0
 475.317572281 723.97542209 466.707351622 706.589928528 456.104765409 695.987342316 c 0
 445.354244176 685.236821082 431.575524647 679.039150497 416.569596465 675.629121009 c 0
 415.149181624 675.306338144 413.705961124 675.108738286 412.257624137 675.036321437 c 0
 381.803309698 673.513605715 349.983360991 672.754697756 316.790217189 672.754697756 c 0
EndSplineSet
Validated: 1
Substitution2: "'liga' Standard-Ligaturen in Lateinisch Nachschlagetabelle 387 Subtabelle" E_under
MultipleSubs2: "Mehrfache Substitution Nachschlagetabelle 339 Subtabelle" E_under tp_name_end
MultipleSubs2: "Mehrfache Substitution Nachschlagetabelle 286 Subtabelle" tp_name_start E_under
EndChar

StartChar: F
Encoding: 70 70 30
Width: 500
VWidth: 820
GlyphClass: 2
Flags: HMW
LayerCount: 2
Fore
SplineSet
164.995097764 598 m 0
 164.995097764 581.585334359 164.428886166 567.452390987 164.140959977 552.171562139 c 1
 223.479726316 552.969316601 336.54719467 558.545383879 386.287038884 561.936774529 c 0
 386.857304186 561.975656685 387.428652093 561.995097764 388 561.995097764 c 0
 409.456520655 561.995097764 430.186317973 555.379702322 444.271175477 541.294844818 c 0
 455.787925431 529.778094863 461.995097764 514.170976317 461.995097764 498 c 0
 461.995097764 481.606011667 455.646650588 465.858839644 444.008766266 454.220955321 c 0
 421.827416071 432.039605126 381.841070357 423.004902236 340 423.004902236 c 2
 254 423.004902236 l 2
 229.696183402 423.004902236 199.669303246 422.560091279 163.995097764 421.667120382 c 1
 163.995097764 207 l 2
 163.995097764 206.635070911 163.971304321 206.270141823 163.971304321 205.905494828 c 0
 163.118085657 186.291459331 156.687319069 167.222335955 142.415687143 154.091364169 c 0
 130.34424659 142.984733467 114.814961598 136.004902236 98 136.004902236 c 0
 80.6580230475 136.004902236 64.0139218447 144.020978152 52.6143481238 155.420551873 c 0
 40.4842001431 167.550699854 34.5618756969 183.539816074 32.2355697006 200.59977201 c 0
 32.0817913912 201.727504642 32.0049022365 202.863752321 32.0049022365 204 c 2
 32.0049022365 534 l 2
 32.0049022365 553.674664985 33.0049022365 576.296807038 33.0049022365 598 c 0
 33.0049022365 616.464688475 32.0496806506 634.202406719 30.1588249568 651.220107963 c 0
 28.4606668232 666.503531166 24.6015236701 676.717014313 20.3835412953 682.852720995 c 0
 19.4469519193 684.215134866 18.6606146503 685.650045558 18.0245294883 687.134192505 c 0
 13.1209090224 698.575574534 10.0049022365 710.075108004 10.0049022365 722 c 0
 10.0049022365 738.555867948 15.7077167803 754.882955926 27.7507016384 766.925940784 c 0
 36.3112898377 775.486528983 46.8484840291 781.092509297 58.2965034931 784.78554095 c 0
 59.5020194366 785.174429924 60.7313162759 785.469544075 61.9729251886 785.670883404 c 0
 87.6363631817 789.832467078 113.484028104 792.434599506 139.493407917 793.474974698 c 0
 191.06256061 795.537740806 269.941293705 797.459888887 327.337109155 798.986372794 c 0
 351.781799132 799.629976481 375.873954013 801.558612897 399.630098826 804.768546871 c 0
 400.747873802 804.919580799 401.873936901 804.995097764 403 804.995097764 c 0
 424.338471224 804.995097764 444.890376963 799.086577819 459.122366563 784.854588218 c 0
 470.801554818 773.175399964 476.995097764 757.357344275 476.995097764 741 c 0
 476.995097764 723.572635635 469.071477382 706.480665292 457.796420171 695.205608082 c 0
 447.257452648 684.666640559 433.826044371 678.436985486 419.093153468 674.754032534 c 0
 418.162061278 674.521276536 417.220144455 674.342758787 416.272447846 674.218479288 c 0
 376.923944741 669.058376139 337.546512848 666.475555627 298.167788743 666.475555627 c 0
 292.536860124 666.475555627 287.164929607 666.54307111 281.456115942 666.54307111 c 0
 249.12922488 666.54307111 209.128909758 665.262416565 161.6327936 662.678784112 c 1
 164.213717466 642.72231826 164.995097764 619.393356185 164.995097764 598 c 0
EndSplineSet
Validated: 1
Substitution2: "'liga' Standard-Ligaturen in Lateinisch Nachschlagetabelle 387 Subtabelle" F_under
MultipleSubs2: "Mehrfache Substitution Nachschlagetabelle 340 Subtabelle" F_under tp_name_end
MultipleSubs2: "Mehrfache Substitution Nachschlagetabelle 287 Subtabelle" tp_name_start F_under
EndChar

StartChar: G
Encoding: 71 71 31
Width: 500
VWidth: 820
GlyphClass: 2
Flags: HMW
LayerCount: 2
Fore
SplineSet
238 536.995097764 m 0
 297.977963792 536.995097764 361.25612812 540.995097764 421 540.995097764 c 0
 423.149828039 540.995097764 425.299656079 540.719848279 427.391810231 540.169349311 c 0
 443.655208265 535.89003565 458.712381122 527.6579304 468.705588921 514.88828938 c 0
 477.533307663 503.607947608 482.995097764 489.726492476 482.995097764 475 c 0
 482.995097764 450.994808289 468.14101641 431.416292503 451.995097764 420.869455813 c 1
 451.995097764 286 l 2
 451.995097764 265.562036033 444.642686568 246.280386998 430.479713647 231.629529063 c 0
 420.725188349 221.538980618 411.460386415 212.105047356 402.67766953 203.32233047 c 0
 378.313446157 178.958107098 348.304481172 161.257314015 313.629480383 150.190709431 c 0
 290.920192372 142.942989025 268.08298373 139.241814529 245.439854855 139.241814529 c 0
 233.421728202 139.241814529 221.458275561 140.284468585 209.597642623 142.392896856 c 0
 208.451844529 142.596581862 207.31756492 142.880463048 206.203874061 143.244540414 c 0
 167.163366053 156.007296983 139.262044827 169.77285517 118.510762618 190.524137379 c 0
 101.997529904 207.037370093 86.0728105269 229.545448085 69.3457246527 258.496717343 c 0
 50.9141311937 290.398151286 37.8857928506 322.775660897 30.6029251999 355.546965164 c 0
 23.5241314036 387.399981924 19.0853913351 424.394590775 17.0343313587 466.782829789 c 0
 17.0147119439 467.188294501 17.0049022365 467.594147251 17.0049022365 468 c 0
 17.0049022365 491.161069342 17.6864455037 514.002437677 19.0509979426 536.523051116 c 0
 20.5626282214 561.471041534 26.5210330134 587.738585767 36.4761830565 615.471756715 c 0
 46.0736828127 642.208581399 56.4027688704 667.020749492 67.5042321812 689.916818838 c 0
 80.1740880683 716.047599157 100.800005195 739.314259499 123.868844386 757.135727048 c 0
 137.577414097 769.706184687 155.977007195 780.706256705 179.702949015 792.053442958 c 0
 206.058643521 804.65834033 238.863466231 813.187938957 278.502537941 818.750977881 c 0
 279.662178164 818.913724469 280.831089082 818.995097764 282 818.995097764 c 0
 313.651670767 818.995097764 351.176278089 811.962516098 377.433177493 803.210216297 c 0
 410.930920437 792.044301982 448.995097764 769.471769009 448.995097764 727 c 0
 448.995097764 710.266507523 442.564062463 694.208723404 430.67766953 682.32233047 c 0
 418.477921799 670.12258274 401.971704581 664.004902236 385 664.004902236 c 0
 375.280233341 664.004902236 365.812414934 666.040856345 356.066822507 669.289783703 c 0
 338.680204631 675.085322995 322.135808158 680.855240466 303.821157365 685.908004514 c 0
 296.139570762 688.027250197 288.928360313 689.004902236 282 689.004902236 c 0
 279.544266982 689.004902236 275.059846496 688.294036649 268.805391976 685.792401435 c 0
 261.071938771 682.699201413 254.207407821 680.115184408 248.087370808 678.018061491 c 0
 226.911403079 666.379471477 209.605906192 654.374548857 196.143931753 642.344948595 c 0
 183.284848271 630.854091474 172.160991945 612.600212371 160.790642889 583.405002232 c 0
 152.083818481 561.048822403 147.291139745 532.501754608 147.291139745 497.624988007 c 0
 147.291139745 455.273047775 153.76885049 402.716172457 159.544040782 382.350277812 c 0
 165.047420352 362.942908901 175.109907821 341.150946752 190.148650744 317.339909754 c 0
 198.851283589 303.560918138 206.68094658 293.50768625 212.636385172 287.552247659 c 0
 216.897895483 283.290737348 220.073486362 281.329893628 221.106744301 280.870695906 c 0
 230.184176926 276.866003731 238.926181365 274.840490341 247.924200525 274.840490341 c 0
 255.783876582 274.840490341 263.838887792 276.385924774 272.483406387 279.507673738 c 0
 289.983654212 285.827445037 305.717115798 295.154377816 320.004902236 307.790584526 c 1
 320.004902236 407.258001581 l 1
 285.049354131 406.09212777 278.225762222 405.004902236 235 405.004902236 c 0
 233.863752321 405.004902236 232.727504642 405.081791391 231.59977201 405.235569701 c 0
 213.118311183 407.755712971 195.593978427 414.926520994 183.670748753 428.553069192 c 0
 173.461055292 440.221290291 167.004902236 455.031953445 167.004902236 471 c 0
 167.004902236 489.104031468 175.944667836 506.459935027 187.735594788 518.250861979 c 0
 201.187644317 531.702911508 219.470326582 536.995097764 238 536.995097764 c 0
EndSplineSet
Validated: 1
Substitution2: "'liga' Standard-Ligaturen in Lateinisch Nachschlagetabelle 387 Subtabelle" G_under
MultipleSubs2: "Mehrfache Substitution Nachschlagetabelle 341 Subtabelle" G_under tp_name_end
MultipleSubs2: "Mehrfache Substitution Nachschlagetabelle 288 Subtabelle" tp_name_start G_under
EndChar

StartChar: H
Encoding: 72 72 32
Width: 500
VWidth: 820
GlyphClass: 2
Flags: HMW
LayerCount: 2
Fore
SplineSet
28.0049022365 737 m 2
 28.0049022365 787.825742264 58.0295980754 816.995097764 109 816.995097764 c 0
 125.554117714 816.995097764 140.834013578 808.462334946 150.365882239 796.812790387 c 0
 161.83089178 782.800622964 164.995097764 765.219415817 164.995097764 747 c 2
 164.995097764 531.620199903 l 1
 335.111909671 548.631881093 l 1
 336.004902236 737 l 2
 336.004902236 750.967611107 338.171323258 764.256705028 344.138283712 776.189036866 c 0
 356.908084959 801.725238614 380.546875316 816.995097764 418 816.995097764 c 0
 434.627049845 816.995097764 450.516699152 808.850146474 460.365882239 796.812790387 c 0
 471.83089178 782.800622964 474.995097764 765.219415817 474.995097764 747 c 2
 474.995097764 219 l 2
 474.995097764 197.829818319 470.761586918 177.335811621 455.858171319 162.432396022 c 0
 442.927029648 149.501254351 421.077398341 141.004902236 401 141.004902236 c 0
 383.152756292 141.004902236 367.150449585 149.533097644 355.47247186 161.679125104 c 0
 340.863886043 176.873218521 336.005157759 197.359655351 336.005157759 218.886547411 c 2
 335.132408708 412.636836627 l 1
 164.995097764 390.982997052 l 1
 164.995097764 220 l 2
 164.995097764 198.829818319 160.761586918 178.335811621 145.858171319 163.432396022 c 0
 133.15857094 150.732795642 111.67824781 142.004902236 92 142.004902236 c 0
 74.082416882 142.004902236 57.9230783492 150.807780087 46.6188577519 163.054479038 c 0
 32.5501884739 178.296109878 28.0049022365 198.644749786 28.0049022365 220 c 2
 28.0049022365 737 l 2
EndSplineSet
Validated: 1
Substitution2: "'liga' Standard-Ligaturen in Lateinisch Nachschlagetabelle 387 Subtabelle" H_under
MultipleSubs2: "Mehrfache Substitution Nachschlagetabelle 342 Subtabelle" H_under tp_name_end
MultipleSubs2: "Mehrfache Substitution Nachschlagetabelle 289 Subtabelle" tp_name_start H_under
EndChar

StartChar: I
Encoding: 73 73 33
Width: 500
VWidth: 820
GlyphClass: 2
Flags: HMW
LayerCount: 2
Fore
SplineSet
233.982535825 802.70925109 m 0
 280.034070196 802.70925109 336.933953824 807.664522142 380.487901721 807.664522142 c 0
 392.032980388 807.664522142 402.914073114 807.433990809 413.143298608 806.969134372 c 0
 415.311284566 806.870612521 417.468852761 806.49169909 419.556705621 805.832394078 c 0
 435.669522886 800.744266754 450.298462581 791.939892285 460.017256971 778.981499765 c 0
 468.1866796 768.08893626 473.519789085 754.878511546 473.519789085 740.737077068 c 0
 473.519789085 722.649019309 464.991401793 706.999699097 453.785041513 695.793338817 c 0
 443.000288682 685.008585986 429.15147667 678.696037337 414.179737651 675.543788531 c 0
 412.61204471 675.213716106 411.018685663 675.035272801 409.42324157 675.008458614 c 2
 314.995097764 673.421430987 l 1
 314.995097764 284.995097764 l 1
 344.5 284.995097764 l 2
 371.867890234 284.995097764 390.398321922 285.37313465 398.204996595 285.931046003 c 0
 398.421821401 285.946541592 398.638810283 285.969098109 398.855903698 285.969098109 c 0
 400.376570274 286.038251533 401.896401745 286.073617045 403.413180494 286.073617045 c 0
 420.787030172 286.073617045 437.76034988 281.43351422 451.000347123 269.782378711 c 0
 462.462873121 259.695409565 471.452551371 245.590342507 473.742398506 229.558057475 c 0
 474.130658411 226.839669263 474.317572281 224.130951109 474.317572281 221.444219562 c 0
 474.317572281 203.97542209 465.707351622 186.589928528 455.104765409 175.987342316 c 0
 444.354244176 165.236821082 430.575524647 159.039150497 415.569596465 155.629121009 c 0
 414.05442255 155.284804572 412.513298645 155.082930753 410.967695607 155.023499554 c 0
 387.438664767 154.118766263 359.89823266 153.670663911 328.27846742 153.670663911 c 0
 312.440319376 153.670663911 295.578688206 153.783090423 277.685036803 154.006871646 c 0
 224.490709832 154.672129466 162.587419744 155.004902236 92 155.004902236 c 0
 90.8637523208 155.004902236 89.7275046416 155.081791391 88.5997720101 155.235569701 c 0
 69.861381045 157.790748121 52.095950543 165.444231459 40.3410495197 179.437614611 c 0
 30.5435151548 191.100890383 24.4842483236 205.727863485 24.4842483236 221.300531573 c 0
 24.4842483236 239.562472876 32.4648095803 255.331754889 44.36242935 267.229374659 c 0
 57.5010966639 280.368041973 76.0573999422 286.995097764 95 286.995097764 c 2
 151.5 286.995097764 l 2
 163.683460224 286.995097764 174.141826395 286.93843441 183.004902236 286.811732388 c 1
 183.004902236 672.793970115 l 1
 89.0000074724 672.004013016 l 2
 87.8637597933 672.004013016 86.7275046416 672.081791391 85.5997720101 672.235569701 c 0
 66.861381045 674.790748121 49.095950543 682.444231459 37.3410495197 696.437614611 c 0
 27.5435151548 708.100890383 21.4842483236 722.727863485 21.4842483236 738.300531573 c 0
 21.4842483236 756.562472876 29.4648095803 772.331754889 41.36242935 784.229374659 c 0
 54.5848482078 797.451793516 72.3971816769 803.129674237 90.8559036983 803.969098109 c 1
 90.8992701788 803.01168651 l 1
 104.78972829 803.015927373 135.726944495 803.312500844 181.626998644 803.99233563 c 0
 181.751324991 803.994177052 181.875662495 803.995097764 182 803.995097764 c 0
 182.419350731 803.995097764 182.838701462 803.984624697 183.257624137 803.963678563 c 0
 199.974359048 803.127841817 216.882327452 802.70925109 233.982535825 802.70925109 c 0
EndSplineSet
Validated: 1
Substitution2: "'liga' Standard-Ligaturen in Lateinisch Nachschlagetabelle 387 Subtabelle" I_under
MultipleSubs2: "Mehrfache Substitution Nachschlagetabelle 343 Subtabelle" I_under tp_name_end
MultipleSubs2: "Mehrfache Substitution Nachschlagetabelle 290 Subtabelle" tp_name_start I_under
EndChar

StartChar: J
Encoding: 74 74 34
Width: 500
VWidth: 820
GlyphClass: 2
Flags: HMW
LayerCount: 2
Fore
SplineSet
520.067094598 743.159200817 m 0
 520.067094598 724.636555927 513.370238527 708.956184026 501.467616305 697.053561804 c 0
 490.234225691 685.82017119 475.700123085 679.647019027 459.932003427 676.492933127 c 0
 458.76414326 676.259326878 457.582773715 676.109586037 456.397594614 676.043710604 c 0
 443.805153952 675.343788975 429.698805276 675.004902236 414 675.004902236 c 2
 399.064618997 675.004902236 l 1
 399.995097764 340 l 2
 399.995097764 298.584337604 389.897940252 260.706410617 369.267033403 227.849408092 c 0
 340.366911952 181.166349938 292.951634601 147.998665891 233.940736589 132.343577432 c 0
 215.57051854 127.470115101 196.853548154 125.004902236 178 125.004902236 c 0
 152.680161497 125.004902236 130.348068486 129.034760764 112.061765363 140.102971837 c 0
 95.1841742672 150.318527128 78.2640525711 167.083103798 64.537821181 183.120364014 c 0
 60.4142138667 187.387522538 57.09527836 191.984190684 51.7278965502 199.364467162 c 0
 40.6259455374 214.711350038 27.8205534417 231.995709466 17.8973195291 247.587582965 c 0
 14.174845677 253.436517084 11.8362695913 256.907798783 9.5000009251 262.461786507 c 0
 1.60115187187 274.085080378 -2.99509776351 287.718993864 -2.99509776351 302 c 0
 -2.99509776351 318.943956915 3.56783735604 335.437435037 15.4270751122 347.296672793 c 0
 27.3654874756 359.235085157 43.5525629027 364.995097764 60 364.995097764 c 0
 76.6566602557 364.995097764 92.3756766654 358.996212165 105.765753069 349.177258677 c 0
 106.78369367 348.43080204 107.757733402 347.597605657 108.67766953 346.67766953 c 0
 125.328587349 330.026751711 137.479216232 308.128432408 147.697655647 285.990143499 c 0
 148.595150903 284.045716523 151.809186437 278.322745513 156.778826484 270.485569991 c 0
 161.410960802 265.861384024 168.81615437 260.548539132 179.188505231 255.361982133 c 0
 182.109874033 253.901190746 185.461657211 252.901905123 189.795101935 252.901905123 c 0
 194.128713381 252.901905123 199.444061909 253.901267638 206.292458316 256.437834602 c 0
 220.744433755 261.790679454 232.695015068 269.97920912 242.449297012 280.75998053 c 0
 245.620604695 284.265019999 249.821146171 287.299731282 252.462373947 290.600540656 c 0
 258.291298548 297.88509564 260.805628383 304.352369068 264.578996077 314.125056941 c 0
 270.528289781 361.821616088 272.004902236 411.666877623 272.004902236 464 c 0
 272.004902236 533.666592728 270.266295752 605.608560216 267.893259856 673.240083243 c 1
 238.915726442 672.418125121 213.468012104 672.004902236 191.5 672.004902236 c 2
 184 672.004902236 l 2
 182.752016722 672.004902236 181.504033443 672.097657081 180.267332379 672.283166769 c 0
 162.479900062 674.951346758 145.776653753 682.864318743 134.217621289 695.999652877 c 0
 124.391445382 707.165821344 117.92835541 721.430062499 117.92835541 736.85665571 c 0
 117.92835541 755.048838266 124.104175474 770.155333686 136.184462359 782.235620542 c 0
 144.872038566 790.923196749 155.468646749 797.174998757 167.461978859 802.113186469 c 0
 170.427736574 803.334320693 173.581476745 803.961177919 176.740232345 803.993758147 c 0
 241.451370384 804.661205666 286.46742986 804.995097764 312 804.995097764 c 0
 336.934502446 804.995097764 382.240039334 805.658620663 447.486224213 806.989857002 c 0
 447.657463368 806.993350843 447.828731684 806.995097764 448 806.995097764 c 2
 452 806.995097764 l 2
 452.399614187 806.995097764 452.799228373 806.966566427 453.198472143 806.966566427 c 0
 472.027784808 806.069494681 490.27645293 799.145201434 502.908635831 785.415687143 c 0
 513.449581291 773.95907173 520.067094598 759.096206763 520.067094598 743.159200817 c 0
EndSplineSet
Validated: 1
Substitution2: "'liga' Standard-Ligaturen in Lateinisch Nachschlagetabelle 387 Subtabelle" J_under
MultipleSubs2: "Mehrfache Substitution Nachschlagetabelle 344 Subtabelle" J_under tp_name_end
MultipleSubs2: "Mehrfache Substitution Nachschlagetabelle 291 Subtabelle" tp_name_start J_under
EndChar

StartChar: K
Encoding: 75 75 35
Width: 500
VWidth: 820
GlyphClass: 2
Flags: HMW
LayerCount: 2
Fore
SplineSet
87 149.004902236 m 0
 68.9335931042 149.004902236 51.6354342717 157.818590172 39.9359512986 169.518073145 c 0
 27.8223529256 181.631671518 21.5575050232 197.571868392 19.2355697006 214.59977201 c 0
 19.0817913912 215.727504642 19.0049022365 216.863752321 19.0049022365 218 c 0
 19.0049022365 218.064611145 19.0051508553 218.129222289 19.0056480928 218.193831868 c 0
 19.6721499918 304.797117415 20.0049022365 390.732518859 20.0049022365 476 c 0
 20.0049022365 561.267488407 19.6721456447 650.207462577 19.0055546383 742.818717619 c 0
 19.0051197038 742.879144225 19.0049022365 742.939572113 19.0049022365 743 c 0
 19.0049022365 745.047663173 19.2546123357 747.095326345 19.7540325342 749.093153468 c 0
 23.8695748062 765.556528399 31.1637397402 780.571342447 43.1949669655 791.50984135 c 0
 54.5606939483 801.843283634 69.3503197573 807.995097764 85 807.995097764 c 0
 102.442332417 807.995097764 119.533156436 799.701115082 130.514003575 788.720267943 c 0
 140.490817971 778.743453546 146.552542351 766.137372221 150.169349311 752.391810231 c 0
 150.719848279 750.299656079 150.995097764 748.149828039 150.995097764 746 c 0
 150.995097764 682.468768374 150.252514137 628.971385113 150.05712566 567.047479031 c 1
 185.873306265 586.897756781 214.029817227 611.394386366 240.546501926 640.366799188 c 0
 257.970850644 659.404828639 275.494162523 680.487869243 293.08379423 703.615295697 c 0
 311.426609614 727.73303283 332.382994528 753.584110744 355.969822783 781.214451682 c 0
 356.953614733 782.366896034 358.08113119 783.467377231 359.253833834 784.420204839 c 0
 373.244007309 795.787300837 389.947576485 802.995097764 408 802.995097764 c 0
 424.733492477 802.995097764 440.791276596 796.564062463 452.67766953 784.67766953 c 0
 464.87741726 772.477921799 470.995097764 755.971704581 470.995097764 739 c 0
 470.995097764 728.381800414 468.330527425 718.409494414 464.328856818 708.00374386 c 0
 463.332133495 705.411912778 461.88824013 702.953179357 459.997176722 700.746969493 c 0
 440.190049304 677.638976554 422.408168411 656.066607955 406.66430567 636.059102699 c 0
 375.704167624 596.714557151 345.292121959 559.9367829 311.17766953 525.82233047 c 0
 301.075627044 515.720287985 290.407534556 506.09323944 279.182284355 496.94064831 c 1
 350.967260635 420.554035429 422.143582134 345.323630045 493.403374032 267.92140426 c 0
 493.850191248 267.436072404 494.274292977 266.937292775 494.675679218 266.4264327 c 0
 505.097035328 253.162762392 510.995097764 236.976684681 510.995097764 220 c 0
 510.995097764 202.99886808 504.649043677 186.240566132 492.25516339 174.409518869 c 0
 480.294978393 162.992471851 464.409728066 157.004902236 448 157.004902236 c 0
 424.138753732 157.004902236 406.076174293 168.158628895 394.171823329 181.551841186 c 0
 390.031026973 186.283560981 381.41410813 195.582666299 368.867874202 208.788566524 c 0
 356.097640518 222.23024415 341.601647977 237.803499404 325.169976197 255.499174204 c 2
 221.13228913 367.539939253 l 2
 199.032581766 391.444621221 182.720520075 408.429028189 163.711910455 428.801003316 c 1
 159.039590558 426.817761058 154.142949051 424.816194341 149.01748702 422.79260354 c 1
 149.205632837 351.016338397 150.504823384 291.431768233 152.979616606 220.882937547 c 0
 152.989937378 220.588723733 152.995097764 220.294361866 152.995097764 220 c 0
 152.995097764 199.912468388 145.573691681 180.117790235 131.415687143 167.091364169 c 0
 119.34424659 155.984733467 103.814961598 149.004902236 87 149.004902236 c 0
EndSplineSet
Validated: 1
Substitution2: "'liga' Standard-Ligaturen in Lateinisch Nachschlagetabelle 387 Subtabelle" K_under
MultipleSubs2: "Mehrfache Substitution Nachschlagetabelle 345 Subtabelle" K_under tp_name_end
MultipleSubs2: "Mehrfache Substitution Nachschlagetabelle 292 Subtabelle" tp_name_start K_under
EndChar

StartChar: L
Encoding: 76 76 36
Width: 500
VWidth: 820
GlyphClass: 2
Flags: HMW
LayerCount: 2
Fore
SplineSet
163.995097764 745 m 0
 163.995097764 587.810378574 162.13832388 436.692481381 162.005998134 279.86590241 c 1
 197.589153265 281.241388829 232.952787134 283.260914031 268.098039769 285.923173158 c 0
 312.494843007 289.286238886 357.549258273 291.64010941 403.259737724 292.984216698 c 0
 403.506433656 292.991470742 403.753216828 292.995097764 404 292.995097764 c 0
 406.551022935 292.995097764 409.10204587 292.607529868 411.556705621 291.832394078 c 0
 427.669522886 286.744266754 442.298462581 277.939892285 452.017256971 264.981499765 c 0
 460.1866796 254.08893626 465.519789085 240.878511546 465.519789085 226.737077068 c 0
 465.519789085 208.649019309 456.991401793 192.999699097 445.785041513 181.793338817 c 0
 435.000288682 171.008585986 421.15147667 164.696037337 406.179737651 161.543788531 c 0
 404.68756812 161.229617304 403.172145839 161.052817672 401.653805372 161.013389636 c 0
 350.160571305 159.676221092 298.997815833 158.839540385 248.165535542 158.50544622 c 0
 198.660159882 158.180073109 149.850546598 154.435531659 101.699606915 147.278230037 c 0
 100.473726817 147.096011503 99.2368634087 147.004902236 98 147.004902236 c 0
 97.1424850895 147.004902236 96.2849701791 147.048695008 95.4311153698 147.13628055 c 0
 78.4333632075 148.879852559 62.2715055362 154.873399545 50.0724525406 167.072452541 c 0
 37.8733995451 179.271505536 31.8798525588 195.433363208 30.1362805503 212.43111537 c 0
 30.0486950077 213.284970179 30.0049022365 214.14248509 30.0049022365 215 c 0
 30.0049022365 391.833390295 32.0049022365 564.869538836 32.0049022365 742 c 0
 32.0049022365 743.73671441 32.1845310013 745.47342882 32.543788531 747.179737651 c 0
 36.0224495314 763.701785192 43.7217059266 779.106416931 56.1115504355 789.880263379 c 0
 67.4574679855 799.746341473 81.2394036615 806.519789085 97.7370770676 806.519789085 c 0
 115.283965946 806.519789085 132.238834487 797.679032468 142.966910937 786.950956018 c 0
 152.465540828 777.452326127 158.707526313 765.619122559 162.832394078 752.556705621 c 0
 163.607529868 750.10204587 163.995097764 747.551022935 163.995097764 745 c 0
EndSplineSet
Validated: 1
Substitution2: "'liga' Standard-Ligaturen in Lateinisch Nachschlagetabelle 387 Subtabelle" L_under
MultipleSubs2: "Mehrfache Substitution Nachschlagetabelle 346 Subtabelle" L_under tp_name_end
MultipleSubs2: "Mehrfache Substitution Nachschlagetabelle 293 Subtabelle" tp_name_start L_under
EndChar

StartChar: M
Encoding: 77 77 37
Width: 500
VWidth: 820
GlyphClass: 2
Flags: HMW
LayerCount: 2
Fore
SplineSet
220.424009163 676.405621723 m 1
 224.435094686 660.535939083 243.146245492 599.348018732 250.572920157 573.85053009 c 1
 259.229987854 618.773746952 266.568310723 653.984343799 272.680657723 679.791699274 c 0
 279.14055083 707.066453033 289.938074812 738.208062953 304.979198169 773.759353854 c 0
 305.463062086 774.903017559 306.035865667 776.017865481 306.697608913 777.093304284 c 0
 318.321720047 795.984347375 338.115111695 813.995097764 367 813.995097764 c 0
 384.702295281 813.995097764 401.683710889 805.42162817 412.33391953 794.77141953 c 0
 420.045816144 787.059522915 426.040794514 777.830880492 431.362307031 767.187855458 c 0
 431.789906901 766.332655719 432.165420885 765.457968438 432.488848984 764.568541166 c 0
 442.274576665 737.657790044 450.543769142 687.032276851 460.311873815 606.532002969 c 0
 468.730752029 537.150887123 473.473383825 498.173951632 474.525808277 490.886795154 c 0
 474.672950607 489.867957952 474.853568436 488.856844865 474.928292017 487.833131795 c 0
 480.013625413 418.163968932 488.902600821 304.329680473 491.917045024 242.985541064 c 0
 492.430274067 232.541296006 492.687651509 225.30226063 492.687651509 219.483195835 c 0
 492.687651509 215.077819042 492.713981493 212.505891197 491.671403757 208.296089466 c 0
 490.109264761 190.379205921 483.559715503 173.184856101 470.415687143 161.091364169 c 0
 458.34424659 149.984733467 442.814961598 143.004902236 426 143.004902236 c 0
 408.3312064 143.004902236 391.127535239 151.335366215 379.636624003 162.826277451 c 0
 367.293095636 175.169805818 361.665654985 191.584871255 360.108227098 208.721141905 c 0
 360.052023108 209.33955049 360.018748415 209.959658579 360.008403017 210.580079493 c 0
 359.783767188 224.05165135 359.670957784 236.97640418 359.670957784 249.358819188 c 0
 359.670957784 273.482123603 360.099119849 295.54701379 360.962712365 315.586624931 c 0
 358.374177905 349.478941945 356.417222727 383.371853589 355.091972983 417.266397924 c 0
 351.272879267 438.627785756 348.78538707 459.124827744 347.674433917 478.774459888 c 1
 344.455594468 465.555908839 341.340080854 452.545549587 338.327712531 439.7437564 c 0
 331.353184078 410.103798289 322.558760374 383.403275231 311.757681711 359.640902173 c 0
 309.643509793 354.989723953 305.931424556 351.167025951 302.494071563 347.729672959 c 0
 289.821402886 335.057004282 272.717690947 326.004902236 254 326.004902236 c 0
 251.430898211 326.004902236 248.861796422 326.39798291 246.39112112 327.184144256 c 0
 227.425039488 333.219093595 210.876035643 344.620365312 200.789103936 360.759160542 c 0
 199.758116471 362.408710283 198.937794671 364.152755217 198.328138534 365.952678207 c 0
 180.208798256 419.447452011 172.301910202 441.643813945 161.285688336 477.655818007 c 1
 152.604352314 382.666357014 144.503807282 282.984700407 134.859677071 190.392008123 c 0
 134.613362588 188.027158148 134.031035068 185.690820159 133.112694511 183.460784133 c 0
 123.043393977 159.009176539 101.858188312 135.004902236 69 135.004902236 c 0
 51.7427606168 135.004902236 35.5900629477 143.004551597 24.1468228074 154.447791737 c 0
 11.7517940734 166.842820471 5.76598979119 183.307937363 4.11823292559 200.613609469 c 0
 4.04267913286 201.407118021 4.00490223649 202.20355901 4.00490223649 203 c 0
 4.00490223649 203.789173033 4.04199280935 204.578346066 4.11617395507 205.364666211 c 0
 21.1611314579 385.963917081 38.133391833 566.667881045 55.1153448693 747.35586135 c 0
 55.2130595554 748.395545611 55.3756144191 749.430261187 55.6030094603 750.453413976 c 0
 59.1654988289 766.48265944 67.0353497286 781.379152409 79.1115504355 791.880263379 c 0
 90.6495296942 801.913352718 105.365274067 807.995097764 121 807.995097764 c 0
 138.907031575 807.995097764 155.528187025 800.516986032 168.028194897 788.016978161 c 0
 171.974206667 784.07096639 175.488009885 779.736098509 178.670447046 775.068420412 c 0
 179.615754466 773.681938757 180.406088772 772.221144803 181.041449964 770.710403974 c 0
 201.750887843 721.468187506 214.247586643 691.266864189 218.342997759 682.00636886 c 1
 220.424009163 676.405621723 l 1
EndSplineSet
Validated: 1
Substitution2: "'liga' Standard-Ligaturen in Lateinisch Nachschlagetabelle 387 Subtabelle" M_under
MultipleSubs2: "Mehrfache Substitution Nachschlagetabelle 347 Subtabelle" M_under tp_name_end
MultipleSubs2: "Mehrfache Substitution Nachschlagetabelle 294 Subtabelle" tp_name_start M_under
EndChar

StartChar: N
Encoding: 78 78 38
Width: 500
VWidth: 820
GlyphClass: 2
Flags: HMW
LayerCount: 2
Fore
SplineSet
331.69901286 463.609599423 m 1
 334.216066334 565.060703644 335.004902236 658.402264448 335.004902236 766 c 0
 335.004902236 768.047663173 335.254612336 770.095326345 335.754032534 772.093153468 c 0
 339.869574806 788.556528399 347.16373974 803.571342447 359.194966965 814.50984135 c 0
 370.560693948 824.843283634 385.350319757 830.995097764 401 830.995097764 c 0
 418.442332417 830.995097764 435.533156436 822.701115082 446.514003575 811.720267943 c 0
 456.490817971 801.743453546 462.552542351 789.137372221 466.169349311 775.391810231 c 0
 466.719848279 773.299656079 466.995097764 771.149828039 466.995097764 769 c 0
 466.995097764 574.217748603 465.59147921 406.569214458 455.303592177 219.857800483 c 0
 455.764596191 217.934665674 455.99509821 215.967332978 455.99509821 214.000000281 c 0
 455.99509821 210.654239783 455.328431433 207.308479282 453.995097764 204.180115312 c 1
 453.995097764 198 l 2
 453.995097764 195.014620068 453.464313197 192.029240136 452.402744064 189.198302724 c 0
 443.221954904 164.715451164 422.138303759 141.004902236 390 141.004902236 c 0
 370.022202495 141.004902236 352.292168682 150.352492259 338.32233047 164.32233047 c 0
 334.589955998 168.054704943 332.773898548 173.870762393 329.32233047 177.32233047 c 0
 325.939655078 180.705005863 323.729778288 184.819210173 322.692700718 189.157690565 c 0
 296.809495585 234.83046536 276.47256602 276.490909489 261.708780585 314.406482695 c 0
 247.341116106 351.304757323 232.390186689 384.257984555 216.937054177 413.232608015 c 0
 201.080464517 442.963713626 183.88199896 473.89012275 165.341712462 506.003664245 c 0
 160.95253049 513.606145327 156.504232725 521.553619167 151.995097764 529.847816025 c 1
 151.995097764 433.5 l 2
 151.995097764 358.623244066 152.995097764 287.960591987 152.995097764 209 c 0
 152.995097764 188.912468388 145.573691681 169.117790235 131.415687143 156.091364169 c 0
 119.34424659 144.984733467 103.814961598 138.004902236 87 138.004902236 c 0
 69.6580230475 138.004902236 53.0139218447 146.020978152 41.6143481238 157.420551873 c 0
 29.4842001431 169.550699854 23.5618756969 185.539816074 21.2355697006 202.59977201 c 0
 21.0838686236 203.712271266 21.0069512444 204.833057004 21.0049022436 205.953954754 c 2
 20.0049022365 753 l 2
 20.0049022365 754.829655656 20.2042713111 756.659311311 20.6030094603 758.453413976 c 0
 24.1072512955 774.220577532 31.4956948965 788.873147994 43.1949669655 799.50984135 c 0
 54.5606939483 809.843283634 69.3503197573 815.995097764 85 815.995097764 c 0
 85.5987497885 815.995097764 86.1974995771 815.973747177 86.7950034054 815.931046003 c 0
 101.453358885 814.883472833 115.205105813 809.358378769 128.240839458 801.210896064 c 0
 130.90150985 799.547946621 133.383643641 797.232301134 135.235029261 794.686645906 c 0
 168.11720926 749.473648408 205.816769145 688.975439339 248.783026298 612.777721204 c 0
 291.49573389 537.029655874 317.433891319 490.65062325 327.016371874 472.854301456 c 0
 328.485424162 470.126017574 330.044445088 467.04746435 331.69901286 463.609599423 c 1
EndSplineSet
Validated: 1
Substitution2: "'liga' Standard-Ligaturen in Lateinisch Nachschlagetabelle 387 Subtabelle" N_under
MultipleSubs2: "Mehrfache Substitution Nachschlagetabelle 348 Subtabelle" N_under tp_name_end
MultipleSubs2: "Mehrfache Substitution Nachschlagetabelle 295 Subtabelle" tp_name_start N_under
EndChar

StartChar: O
Encoding: 79 79 39
Width: 500
VWidth: 820
GlyphClass: 2
Flags: HMW
LayerCount: 2
Fore
SplineSet
343.097317874 448.02828823 m 0
 343.097317874 449.679881502 343.004902236 451.342249994 343.004902236 453 c 0
 343.004902236 453.857411136 343.048684409 454.714822271 343.136248754 455.568574634 c 0
 345.721828577 480.777977913 349.004902236 504.224033129 349.004902236 532 c 0
 349.004902236 547.71682773 347.495769011 563.836960707 344.42498408 580.420818849 c 0
 341.498941858 596.222990028 336.064363248 609.907167291 328.950984527 623.20652608 c 0
 314.157596458 650.86463109 300.205644659 672.217570981 287.840583619 686.938169249 c 0
 280.985299656 695.099380981 272.512235518 700.360171419 261.300829812 700.360171419 c 0
 260.103293697 700.360171419 258.86245195 700.312048907 257.572578648 700.217221423 c 0
 240.971671847 696.512195521 225.39958692 678.083676579 215.033822761 661.980002371 c 0
 197.640975406 634.959442861 183.926103784 605.244856976 173.887072252 572.618693801 c 0
 163.432802653 538.643035422 157.73103912 515.230840317 156.841249444 507.220777653 c 0
 155.507742519 495.21628454 152.924275759 473.894820222 149.062066521 442.969185305 c 1
 151.442038365 389.663364449 162.363147509 339.530859543 182.814826116 308.854277807 c 0
 191.903394161 295.22184177 199.464282312 285.405108842 204.114903482 280.319280989 c 0
 212.258500029 275.123219695 217.221083907 274.175980781 219.711575629 274.175980781 c 0
 222.277141505 274.175980781 224.46668463 274.995097764 227 274.995097764 c 0
 238.521106856 274.995097764 247.157103042 275.50947516 251.751461683 276.142700302 c 0
 252.619486197 276.565148308 259.01763005 279.785125013 267.651047084 286.921614625 c 0
 290.361460292 307.469511869 302.516259468 330.134363938 315.598586382 360.036825455 c 0
 322.438926862 375.671889409 329.131037841 391.993131983 335.671749778 408.997833343 c 0
 340.68804007 422.039306374 343.097317874 434.876187244 343.097317874 448.02828823 c 0
478.995097764 533 m 0
 478.995097764 499.273237742 475.9320709 466.578235608 470.816654274 436.808157839 c 0
 465.884130748 378.802961332 442.8211391 319.977333203 419.464872528 277.0505533 c 0
 394.578696523 231.311933358 356.936205001 189.510671073 311.187391336 166.637460914 c 0
 310.407177303 166.247374306 309.610744305 165.900639313 308.801697276 165.597255936 c 0
 287.505952288 157.611595268 261.171202477 147.329501718 236.121045039 144.199092041 c 0
 235.085081555 144.069632171 234.042540777 144.004902236 233 144.004902236 c 0
 232.104674176 144.004902236 231.209348353 144.052642113 230.318188453 144.148121866 c 0
 211.596503321 146.153981722 196.530889553 147.827908619 185.05956888 149.177185028 c 0
 183.132776654 149.403817633 181.227384436 149.8540463 179.385618782 150.527871027 c 0
 148.233079705 161.925277156 121.826284478 180.501089635 102.400296945 204.977355874 c 0
 69.0050628553 247.054529008 41.4003166256 297.217952959 29.9353318131 358.365285044 c 0
 24.6563067672 386.520428975 22.0049022365 414.758003921 22.0049022365 443 c 0
 22.0049022365 464.806772887 23.2838340787 485.538374035 26.3063160488 504.883852686 c 0
 39.0247922481 586.288808026 66.9544156534 667.037723641 102.461410009 727.201389776 c 0
 115.38074687 749.092137888 129.94715971 768.30249877 146.32233047 784.67766953 c 0
 158.563675543 796.919014602 174.794504572 805.165832597 194.930958693 812.488667109 c 0
 216.56990388 820.357898387 242.094514 824.552292101 271.802403052 825.966608108 c 0
 272.201355631 825.985601212 272.600677816 825.995097764 273 825.995097764 c 0
 274.129888879 825.995097764 275.259777758 825.919066793 276.381293749 825.767004851 c 0
 321.326501801 819.673060884 357.257047538 805.209348553 383.013278674 779.453117417 c 0
 405.151414036 757.314982055 425.207245835 725.381364181 445.337256379 683.249945266 c 0
 467.195662138 641.905801897 478.995097764 592.141176631 478.995097764 533 c 0
EndSplineSet
Validated: 1
Substitution2: "'liga' Standard-Ligaturen in Lateinisch Nachschlagetabelle 387 Subtabelle" O_under
MultipleSubs2: "Mehrfache Substitution Nachschlagetabelle 349 Subtabelle" O_under tp_name_end
MultipleSubs2: "Mehrfache Substitution Nachschlagetabelle 296 Subtabelle" tp_name_start O_under
EndChar

StartChar: P
Encoding: 80 80 40
Width: 500
VWidth: 820
GlyphClass: 2
Flags: HMW
LayerCount: 2
Fore
SplineSet
157.995097764 470.305263123 m 1
 176.449947467 466.985823721 196.786432621 464.995097764 218 464.995097764 c 0
 227.169657687 464.995097764 244.15867561 468.258348291 266.773574738 476.110437087 c 0
 287.66353557 483.363612371 303.112723697 493.006785895 314.709796406 505.047175273 c 0
 333.266750118 525.549923838 348.004902236 553.519183427 348.004902236 588 c 0
 348.004902236 609.18618793 343.007910925 628.585095896 332.609686285 647.414536017 c 0
 315.044997801 679.22123971 280.646686492 703.776299005 232.706254862 704.003236648 c 0
 211.369866075 702.729007483 196.472074544 699.402480589 189.168363698 696.156588715 c 0
 180.84923916 692.459425702 170.403960533 687.36366181 157.995097764 680.919717419 c 1
 157.995097764 470.305263123 l 1
92 799.995097764 m 0
 95.2706712312 799.995097764 98.5903406675 799.909087044 102.020285297 799.430334819 c 0
 125.719964473 809.592943365 149.391793775 817.8448109 173.027950681 824.148093837 c 0
 198.976020791 831.067917065 217.571407653 834.995097764 233 834.995097764 c 0
 280.629488808 834.995097764 318.018333481 825.330675538 350.866118825 807.013233884 c 0
 390.966794947 786.128892951 424.673045727 751.839473377 446.763161751 712.812882656 c 0
 466.250230424 678.385093655 481.995097764 634.260371989 481.995097764 584 c 0
 481.995097764 540.933964502 470.363472796 499.534786763 447.001797262 463.43037912 c 0
 423.70595908 427.427720111 394.259043581 397.174490923 358.397058444 374.387552675 c 0
 309.910428615 343.578833202 258.752416941 333.004902236 187 333.004902236 c 0
 176.713566425 333.004902236 167.06835898 333.793626428 157.995097764 335.610759013 c 1
 157.995097764 281 l 2
 157.995097764 249.175268466 158.326715353 220.717317888 158.986372794 195.662890845 c 0
 158.99218944 195.44196899 158.995097764 195.220984495 158.995097764 195 c 0
 158.995097764 174.912468388 151.573691681 155.117790235 137.415687143 142.091364169 c 0
 125.34424659 130.984733467 109.814961598 124.004902236 93 124.004902236 c 0
 75.6580230475 124.004902236 59.0139218447 132.020978152 47.6143481238 143.420551873 c 0
 35.4842001431 155.550699854 29.5618756969 171.539816074 27.2355697006 188.59977201 c 0
 27.0859082085 189.697313978 27.0090741597 190.802921182 27.0050675542 191.9087443 c 2
 26.0049022365 468 l 1
 26.0049022365 736 l 2
 26.0049022365 738.047663173 26.2546123357 740.095326345 26.7540325342 742.093153468 c 0
 30.8804117667 758.599879416 38.3234795849 773.768104247 50.6760488239 784.436157452 c 0
 62.0954336678 794.298284328 76.7057277611 799.995097764 92 799.995097764 c 0
EndSplineSet
Validated: 1
Substitution2: "'liga' Standard-Ligaturen in Lateinisch Nachschlagetabelle 387 Subtabelle" P_under
MultipleSubs2: "Mehrfache Substitution Nachschlagetabelle 350 Subtabelle" P_under tp_name_end
MultipleSubs2: "Mehrfache Substitution Nachschlagetabelle 297 Subtabelle" tp_name_start P_under
EndChar

StartChar: Q
Encoding: 81 81 41
Width: 500
VWidth: 820
GlyphClass: 2
Flags: HMW
LayerCount: 2
Fore
SplineSet
348.604801234 514.678756358 m 0
 348.604801234 544.607685441 344.42429382 570.118108852 337.867445336 594.469961486 c 0
 333.83384146 609.450592412 327.840621769 623.474358364 319.791312359 636.751683112 c 0
 311.576098712 649.499387181 303.610630305 659.534028371 296.32233047 666.82233047 c 0
 288.970916171 674.173744769 282.31546876 678.719329838 276.831122495 681.156817067 c 0
 275.448083758 681.77150095 273.288582796 682.24322053 270.287953007 682.24322053 c 0
 262.277014512 682.24322053 248.270864926 678.881002557 227.038972063 665.900725991 c 0
 213.148358486 653.238614632 201.494284129 637.721810309 194.296272561 621.726229048 c 0
 177.962054542 585.427966785 159.821439053 537.820555372 155.389025305 489.691109974 c 0
 154.197811993 476.756298543 153.611415558 464.366669391 153.611415558 452.523248047 c 0
 153.611415558 442.373985123 154.04204723 432.625840568 154.891718212 423.279459768 c 0
 154.93890079 422.760451406 154.96993272 422.240245653 154.984814002 421.719662245 c 0
 155.59206013 400.476716798 158.981163156 375.682661517 165.370663434 347.570544944 c 0
 172.364324278 316.800281171 181.305197805 300.799927598 193.804485074 288.300640329 c 0
 204.046463668 278.058661734 216.073989734 269.418870716 230.187391336 262.362539086 c 0
 231.765561158 261.573495456 232.823499211 261.140832547 234.071751014 261.140832547 c 0
 235.184466683 261.140832547 236.448411035 261.484638719 238.366896794 262.226285316 c 0
 240.305440833 262.975686025 242.87980696 264.373877341 245.929318054 266.610208235 c 1
 242.868860702 270.120913177 238.701649395 274.200797557 235.641087709 278.485225276 c 0
 229.814528666 286.641725169 221.965139793 294.159802997 213.471657915 300.904820574 c 0
 202.098888664 309.936396741 191.512410016 319.364556654 184.589399337 331.951345976 c 0
 178.99794512 342.117220261 175.737628409 353.567282622 174.199092041 365.878954961 c 0
 173.895975252 368.30455546 173.747256406 370.725734437 173.747256406 373.131098336 c 0
 173.747256406 389.154086353 180.524561127 404.397112424 191.613113853 415.485665151 c 0
 199.410343582 423.282894879 211.489046698 430.954500419 225.272155141 430.954500419 c 0
 227.946608488 430.954500419 230.68523428 430.665657336 233.469205158 430.032842277 c 0
 251.363221104 429.484602146 267.965279826 419.504642701 279.511023663 406.803732521 c 0
 294.757451417 390.031880295 306.51281188 375.521123308 318.509557539 360.745222735 c 1
 326.573870223 372.671930852 330.869077226 383.328831868 332.315758492 392.443813985 c 0
 335.681906282 413.652616229 340.61996961 439.20802395 347.137569849 469.309641144 c 0
 347.862172627 484.201767192 348.604801234 499.234233846 348.604801234 514.678756358 c 0
20.8637447248 435.988636908 m 0
 20.8637447248 449.575322199 23.0049022365 463.706365309 23.0049022365 477 c 0
 23.0049022365 477.507937263 23.0202674719 478.015874526 23.0509979426 478.523051116 c 0
 24.4530735515 501.662948052 27.575100724 527.189602577 32.3635445538 555.23391192 c 0
 42.8091661678 616.410413982 68.8050459525 669.032865642 97.271732707 714.713005074 c 0
 112.747160516 739.546232284 130.494355578 760.327644646 152.573431039 777.675572155 c 0
 168.183299211 789.940526907 188.363552901 800.103989342 212.134738242 809.683561868 c 0
 224.399198083 814.626028172 237.501434577 816.874417915 251.332876184 816.874417915 c 0
 272.693972974 816.874417915 295.794319339 811.511714289 320.233984994 802.428023256 c 0
 347.135091951 792.429468141 371.607320441 776.165640605 393.415791261 754.357169786 c 0
 406.938670222 740.834290825 420.05367209 725.092561259 431.211058414 707.240579699 c 0
 457.378190626 665.372784843 473.028864253 616.750188375 477.88932425 557.322550861 c 0
 479.624648813 540.568017591 480.493727086 523.872233115 480.493727086 507.249867902 c 0
 480.493727086 490.533068727 479.614746055 473.890525393 477.853903468 457.337159827 c 0
 477.801517519 456.844688939 477.734554384 456.353481073 477.653014062 455.86423914 c 0
 471.50640541 418.984587224 463.634154856 383.872448671 454.011783857 350.536979234 c 0
 445.417408166 320.762867614 430.668771603 292.145674757 410.269458752 264.690530526 c 1
 426.025794795 248.856545121 451.423481963 225.416556688 464.955793437 213.178545767 c 0
 470.342998917 209.825754453 475.329561732 205.967098093 479.805678689 201.490979956 c 0
 493.088799852 188.207858793 500.088810514 171.350545169 500.088810514 151.192534148 c 0
 500.088810514 134.605799835 493.125606055 117.891654116 482.429909024 107.195957086 c 0
 472.49116402 97.2572120814 459.497353254 91.8706713428 446.121045039 90.1990920409 c 0
 445.085081555 90.0696321713 444.042540777 90.0049022365 443 90.0049022365 c 0
 429.444240568 90.0049022365 415.932544566 93.6264100887 404.679349368 101.503811561 c 0
 403.123433977 102.592975125 401.621650091 103.926157849 400.338013283 105.363832578 c 0
 375.302983403 133.403095382 354.48681397 155.389175263 329.094767809 178.43862418 c 1
 323.144887012 174.299226602 315.507729499 168.95934174 306.357046754 162.529337858 c 0
 305.519945704 161.941123497 304.654714045 161.410263716 303.766837599 160.936758513 c 0
 293.514564636 155.469213333 284.049129181 150.647690566 275.329030777 146.461879824 c 0
 262.943613017 140.516647064 249.120947242 138.221125308 234.201312795 138.01962302 c 0
 230.083056628 137.383990622 225.928966608 137.084035692 221.741903767 137.084035692 c 0
 210.356432755 137.084035692 198.727158682 139.301920823 186.911605299 143.019455537 c 0
 163.884001559 149.357565808 141.501021913 164.040216491 117.47470599 185.239603667 c 0
 111.452473277 190.553262103 105.819628811 195.8248948 100.571815509 201.072708102 c 0
 63.9952000311 237.64932358 50.6037535628 267.312853028 36.6267535445 328.940831934 c 0
 29.1650871295 361.841126691 24.3014923286 390.855153647 22.1424912735 416.306870319 c 0
 21.2932175347 422.879685736 20.8637447248 429.449329356 20.8637447248 435.988636908 c 0
EndSplineSet
Validated: 1
Substitution2: "'liga' Standard-Ligaturen in Lateinisch Nachschlagetabelle 387 Subtabelle" Q_under
MultipleSubs2: "Mehrfache Substitution Nachschlagetabelle 351 Subtabelle" Q_under tp_name_end
MultipleSubs2: "Mehrfache Substitution Nachschlagetabelle 298 Subtabelle" tp_name_start Q_under
EndChar

StartChar: R
Encoding: 82 82 42
Width: 500
VWidth: 820
GlyphClass: 2
Flags: HMW
LayerCount: 2
Fore
SplineSet
211 711.004902236 m 0
 194.330806327 711.004902236 181.32184824 710.32133737 172.720158055 709.211677877 c 0
 171.846279107 709.09894328 171.350725862 708.989603212 170.995097764 708.829757715 c 2
 170.995097764 482.795787866 l 1
 182.98426424 483.876665104 192.62814116 485.153098331 199.683692155 486.529926467 c 0
 210.912498847 488.721128402 229.384990298 494.745406376 253.432084001 503.489076308 c 0
 279.346298908 512.911642898 302.258360516 532.075801253 318.36009264 552.471852755 c 0
 331.888296332 569.608017803 345.004902236 593.025361155 345.004902236 620 c 0
 345.004902236 631.262167399 342.422312682 642.242134737 336.637397629 653.812735242 c 0
 330.555128359 665.978083779 319.531945646 676.107994463 307.56647764 684.583290863 c 0
 282.895072707 702.058367416 250.420821188 711.004902236 211 711.004902236 c 0
39.0049022365 206 m 0
 39.0049022365 325.75671186 39.7961586711 425.99209371 39.7961586711 506.39007417 c 0
 39.7961586711 628.119189509 39.1969675205 704.52213723 38.0235089759 735.032059388 c 0
 38.011104483 735.354576205 38.0049022365 735.677288103 38.0049022365 736 c 0
 38.0049022365 737.042823597 38.0696672958 738.085647194 38.1991974145 739.121888143 c 0
 40.4493883981 757.123416012 44.2516659564 773.383401912 56.316889449 786.157610621 c 0
 62.2353373943 792.4238426 68.9841747383 798.716082316 75.4876314505 803.360630916 c 0
 76.1221873409 803.813809249 76.7732411239 804.23375227 77.4383729459 804.620459979 c 0
 107.707331324 822.218835474 135.386164302 833.841576161 161.500747739 838.58968224 c 0
 178.64093347 841.706079646 193.108771641 843.545117771 205.896429616 843.545117771 c 0
 209.881584142 843.545117771 213.703559704 843.366510538 217.392385755 842.992296011 c 0
 304.211275595 842.642735536 367.899768351 811.741512764 413.738892404 765.90238871 c 0
 431.570330038 748.070951077 445.66570542 728.671297631 455.593168115 707.713590129 c 0
 469.038427134 679.329519149 475.995097764 649.48768103 475.995097764 619 c 0
 475.995097764 564.025773926 455.917835149 518.524114955 431.583062583 483.304264106 c 0
 409.299331833 451.052897413 380.034675513 423.320475999 345.885858571 402.75317748 c 1
 390.09738198 353.270151012 445.46438465 293.382312729 488.551027796 245.759621534 c 0
 499.809096472 233.316333108 505.995097764 215.041170489 505.995097764 198 c 0
 505.995097764 180.99886808 499.649043677 164.240566132 487.25516339 152.409518869 c 0
 475.294978393 140.992471851 459.409728066 135.004902236 443 135.004902236 c 0
 419.22186147 135.004902236 400.650064867 146.157573085 389.002146713 159.747758841 c 0
 374.79038671 176.329302067 352.74981126 199.992093685 334.653925901 219.516564859 c 0
 298.438519766 258.59100853 258.090819881 305.14875882 221.752184052 343.91115327 c 0
 217.055842687 348.920736934 213.013925846 353.271428978 209.577357883 357.024422518 c 1
 196.726815064 354.997521519 183.864412327 353.454003262 170.995097764 352.39666839 c 1
 170.995097764 209 l 2
 170.995097764 208.635070911 170.971304321 208.270141823 170.971304321 207.905494828 c 0
 170.118085657 188.291459331 163.687319069 169.222335955 149.415687143 156.091364169 c 0
 137.34424659 144.984733467 121.814961598 138.004902236 105 138.004902236 c 0
 87.6580230475 138.004902236 71.0139218447 146.020978152 59.6143481238 157.420551873 c 0
 47.4842001431 169.550699854 41.5618756969 185.539816074 39.2355697006 202.59977201 c 0
 39.0817913912 203.727504642 39.0049022365 204.863752321 39.0049022365 206 c 0
EndSplineSet
Validated: 1
Substitution2: "'liga' Standard-Ligaturen in Lateinisch Nachschlagetabelle 387 Subtabelle" R_under
MultipleSubs2: "Mehrfache Substitution Nachschlagetabelle 352 Subtabelle" R_under tp_name_end
MultipleSubs2: "Mehrfache Substitution Nachschlagetabelle 299 Subtabelle" tp_name_start R_under
EndChar

StartChar: S
Encoding: 83 83 43
Width: 500
VWidth: 820
GlyphClass: 2
Flags: HMW
LayerCount: 2
Fore
SplineSet
279 265.995097764 m 0
 282.318114564 265.995097764 286.641187353 265.497010214 289.192038541 265.497010214 c 0
 291.203815132 265.497010214 292.728974422 265.58182942 293.680220368 265.658153237 c 0
 297.745031875 268.694891723 301.484209852 271.199132323 305.815393364 273.363931145 c 0
 306.279068904 273.595684024 308.020298153 274.633878847 310.399459344 276.537626053 c 0
 314.057078712 279.464364551 319.392057825 283.401920351 327.030258566 288.885170672 c 0
 331.973633981 295.913242276 335.485527603 301.388233477 340.458757106 308.440097703 c 1
 347.004902236 328.078533093 l 1
 347.004902236 337.5 l 2
 347.004902236 340.087576706 346.829491236 343.244916398 346.431347933 346.896665735 c 0
 344.326326145 353.591981086 341.296147167 359.310203032 338.563418081 365.574805926 c 0
 332.38085537 372.694461456 327.080825485 378.28204706 320.911901374 385.376818546 c 0
 315.629233197 388.428469967 310.374607496 391.699249942 305.146013371 395.184979762 c 0
 300.944466921 397.986010728 296.322931889 399.494355921 290.894690669 401.347859131 c 0
 264.128536437 410.48731163 242.655795928 416.73551874 227.199358134 420.069556189 c 0
 209.613424099 423.862937525 190.484441602 428.648872246 169.758068307 434.425498932 c 0
 136.01358009 443.830391355 103.477170731 461.645569038 80.3441933593 484.77854641 c 0
 67.9769097294 497.14583004 55.7762477389 512.179086603 44.7887792225 529.759680089 c 0
 40.8447317414 536.070387178 37.7308342056 541.002533588 35.7546597586 548.904338002 c 0
 32.2580863063 562.885512377 31.0049022365 582.196043224 31.0049022365 599 c 0
 31.0049022365 644.971646611 47.2898443617 674.116467391 68.6014159147 700.272738989 c 0
 77.120475486 710.728412582 87.9877387908 723.430105173 99.3175808434 734.759947226 c 0
 123.322126292 758.764492675 155.796256679 775.700866381 192.434923324 785.623093181 c 0
 224.357200229 794.268060383 242.077516692 797.995097764 280 797.995097764 c 2
 294.5 797.995097764 l 2
 299.896786944 797.995097764 305.354536909 797.597476702 310.864057466 796.839712708 c 0
 328.560365968 795.229838772 345.588628254 790.902915963 361.565702178 783.8887582 c 0
 374.09924061 778.386360191 387.100076117 773.795325447 400.607921067 770.111449496 c 0
 403.299327859 769.377445752 405.891617932 768.186166036 408.26129411 766.537610346 c 0
 412.908122408 763.304866858 417.222850305 759.765513462 421.158208519 755.830155249 c 0
 434.177988791 742.810374976 441.995097764 725.615023045 441.995097764 707 c 0
 441.995097764 690.141440986 434.851908241 674.496569182 423.17766953 662.82233047 c 0
 409.752978968 649.397639908 391.513157657 644.004902236 373 644.004902236 c 0
 369.566210586 644.004902236 366.491996572 644.408817485 363.478818995 645.010295032 c 0
 361.126400771 645.058984204 358.779565219 645.437359246 356.5139155 646.145420305 c 0
 335.671164893 652.659197297 317.440665318 657.646760345 301.993868809 661.11478551 c 0
 288.143766976 664.224330047 274.941176655 665.815283314 262.318281095 665.988922445 c 0
 246.268557848 662.893279109 233.86375429 660.404550908 225.267584826 658.562448952 c 0
 225.055630979 658.517028686 220.922612641 657.160130545 215.093396684 654.079004584 c 0
 208.427655027 650.555719493 199.384354036 645.019463309 188.408292562 637.603345264 c 0
 181.778179989 629.0851713 175.024241994 622.159375971 168.046038913 614.122133136 c 0
 165.831214534 609.494676036 163.852729032 604.848151881 162.064317762 599.946207853 c 0
 162.164830405 597.002195721 162.383328968 593.850893509 162.708341846 591.083009886 c 0
 165.224697431 587.548667948 167.193193731 583.984431909 169.667241688 580.43384811 c 1
 203.53166944 562.262691755 l 1
 234.072950399 553.354776733 256.771431829 546.504038139 289.565076676 537.623093181 c 0
 328.514549717 527.075069995 359.604583165 515.024779807 393.400597527 495.71327678 c 0
 405.380509568 488.867791831 416.025698425 479.739515171 424.538631532 469.099284 c 0
 431.116028954 460.878259803 437.356799971 453.158020016 443.258786496 445.943685267 c 0
 465.623986783 419.318310952 479.995097764 382.758064554 479.995097764 337 c 0
 479.995097764 275.168243394 452.826516938 222.220741573 417.367556889 192.099453538 c 0
 405.148739288 181.268378187 391.382327418 172.203873625 377.853653845 163.184757909 c 0
 348.061612385 143.324089646 309.174796 131.004902236 262 131.004902236 c 0
 238.10865468 131.004902236 216.486738049 133.683789581 197.152917004 139.602424185 c 0
 179.634456441 144.965325117 160.322743873 152.296945865 139.001837963 161.581710259 c 0
 95.9840988742 180.31494673 57.3433836781 205.682982359 29.0027105103 238.747101055 c 0
 27.3244529698 240.705068185 25.9983926292 242.861924429 25.0245294883 245.134192505 c 0
 20.0285403814 256.791093846 17.0049022365 268.769473122 17.0049022365 281 c 0
 17.0049022365 297.64971346 22.7113789725 314.066718032 34.8223304703 326.17766953 c 0
 46.615252778 337.970591837 62.5961344085 343.995097764 79 343.995097764 c 0
 95.6566602557 343.995097764 111.375676665 337.996212165 124.765753069 328.177258677 c 0
 129.247662783 324.890670783 132.642731707 319.962607352 136.521282201 316.084056859 c 0
 154.039541364 298.565797695 178.234627534 285.226347299 204.583745948 277.476606589 c 0
 221.010000668 272.645355201 233.82785278 269.537935861 242.136544987 268.152883362 c 0
 249.871444019 266.863481736 262.49482227 265.995097764 279 265.995097764 c 0
EndSplineSet
Validated: 1
Substitution2: "'liga' Standard-Ligaturen in Lateinisch Nachschlagetabelle 387 Subtabelle" S_under
MultipleSubs2: "Mehrfache Substitution Nachschlagetabelle 353 Subtabelle" S_under tp_name_end
MultipleSubs2: "Mehrfache Substitution Nachschlagetabelle 300 Subtabelle" tp_name_start S_under
EndChar

StartChar: T
Encoding: 84 84 44
Width: 500
VWidth: 820
GlyphClass: 2
Flags: HMW
LayerCount: 2
Fore
SplineSet
391.570429662 797.371692511 m 0
 406.966177165 797.371692511 429.267871089 797.995097764 439 797.995097764 c 0
 441.68170728 797.995097764 444.36341456 797.566803941 446.933177493 796.710216297 c 0
 462.484991809 791.526278192 476.547968291 782.607218005 486.017256971 769.981499765 c 0
 494.049631124 759.27166756 499.096912019 746.295420924 499.096912019 732.523158191 c 0
 499.096912019 714.147596328 491.700014149 698.829553126 480.063005624 687.192544601 c 0
 468.697774778 675.827313754 453.967530054 669.700508255 437.932003427 666.492933127 c 0
 436.305472059 666.1675792 434.652530703 665.978724721 432.999963294 666.002332827 c 2
 318.047108603 667.644516465 l 1
 318.995097764 205 l 0
 318.995097764 184.912468388 311.573691681 165.117790235 297.415687143 152.091364169 c 0
 285.34424659 140.984733467 269.814961598 134.004902236 253 134.004902236 c 0
 235.658023048 134.004902236 219.013921845 142.020978152 207.614348124 153.420551873 c 0
 195.484200143 165.550699854 189.561875697 181.539816074 187.235569701 198.59977201 c 0
 187.084105537 199.71053386 187.007233795 200.829556407 187.004954473 201.948703266 c 2
 186.054393031 668.674371603 l 1
 63.3149228034 672.014221133 l 2
 61.9674254445 672.050887728 60.6223365985 672.195756979 59.2938712483 672.448828887 c 0
 41.3396052814 675.869106535 24.6477733702 683.977754871 13.3410495197 697.437614611 c 0
 3.94257982845 708.625831948 -2.08280637211 722.610249856 -2.08280637211 737.655906751 c 0
 -2.08280637211 756.909756198 6.05212371405 772.918080745 18.3164511587 785.182408189 c 0
 32.1223560796 798.98831311 50.9257931205 803.995097764 70 803.995097764 c 2
 112.5 803.995097764 l 2
 163.51183437 803.995097764 199.747820004 802.176968216 255.536023124 800.989393251 c 0
 286.986563417 800.319899126 315.956230478 799.483280244 342.455719359 798.4769581 c 0
 362.028331813 797.733685148 378.460220305 797.371692511 391.570429662 797.371692511 c 0
EndSplineSet
Validated: 1
Substitution2: "'liga' Standard-Ligaturen in Lateinisch Nachschlagetabelle 387 Subtabelle" T_under
MultipleSubs2: "Mehrfache Substitution Nachschlagetabelle 354 Subtabelle" T_under tp_name_end
MultipleSubs2: "Mehrfache Substitution Nachschlagetabelle 301 Subtabelle" tp_name_start T_under
EndChar

StartChar: U
Encoding: 85 85 45
Width: 500
VWidth: 820
GlyphClass: 2
Flags: HMW
LayerCount: 2
Fore
SplineSet
155.995097764 751 m 0
 155.995097764 692.781883602 153.370233852 626.020110063 153.370233852 564.754109597 c 0
 153.370233852 487.719849574 157.603712917 407.813299654 170.925665805 346.322744065 c 0
 174.5112831 329.772497907 180.199447968 315.236040282 187.928247173 302.336670374 c 0
 193.224108057 296.828496265 204.565134474 285.914293869 207.754418608 283.278961817 c 0
 210.419804127 282.821269832 217.791295092 281.995097915 228 281.995097764 c 0
 263.295447876 281.995097764 284.306442698 299.524064637 296.637286881 324.187043246 c 0
 320.557052054 372.030953697 330.384366383 447.251984375 335.059456713 518.15676013 c 0
 338.722352628 573.710085338 341.790441256 633.378857121 342.506967836 689.322562892 c 0
 342.841803617 715.465283829 343.34440251 737.641685388 344.022174575 755.932600014 c 0
 344.086493512 757.668363787 344.330446165 759.398683883 344.754032534 761.093153468 c 0
 348.869574806 777.556528399 356.16373974 792.571342447 368.194966965 803.50984135 c 0
 379.560693948 813.843283634 394.350319757 819.995097764 410 819.995097764 c 0
 427.442332417 819.995097764 444.533156436 811.701115082 455.514003575 800.720267943 c 0
 465.490817971 790.743453546 471.552542351 778.137372221 475.169349311 764.391810231 c 0
 475.719848279 762.299656079 475.995097764 760.149828039 475.995097764 758 c 0
 475.995097764 757.866685439 475.994039304 757.733370878 475.991922385 757.60007007 c 0
 474.596037008 669.702210174 471.615456533 571.088702869 463.372088891 488.01406142 c 0
 458.966559953 443.61621908 452.855032502 401.805825471 445.007157194 362.568448136 c 0
 437.013525094 322.602323971 425.968728464 288.026057235 411.362469471 258.812469427 c 0
 411.125225928 258.337964965 410.871947696 257.869459574 410.602634777 257.407764181 c 0
 400.299186313 239.744093612 388.348329493 223.992990434 374.67766953 210.32233047 c 0
 359.668682622 195.313343562 340.663833692 183.735778116 318.30585824 174.792587935 c 0
 297.639090779 166.525880951 279.299517388 160.205897646 262.971755778 155.851827883 c 0
 251.167391317 152.70399736 240.978910744 150.344481247 230.860228853 150.344481247 c 0
 227.856585211 150.344481247 224.859091867 150.552389569 221.827309224 151.00930276 c 0
 204.468815387 151.080251478 189.783541713 152.013546688 177.180215519 154.129772957 c 0
 166.699805379 155.88954011 157.425273184 158.321672782 148.745168941 163.204082419 c 0
 137.180446761 169.70904013 126.263785702 176.79851092 116.018166159 184.48299359 c 0
 101.553279505 195.332036965 91.5808373356 208.125070862 80.6170190356 224.748503146 c 0
 68.8509514195 242.588312499 60.5514343962 262.274300082 55.8646289165 283.348390457 c 0
 27.9843854633 367.794867351 22.6047623022 475.006353924 22.6047623022 586.842952255 c 0
 22.6047623022 639.613679218 24.0049022365 698.613829739 24.0049022365 748 c 0
 24.0049022365 750.047663173 24.2546123357 752.095326345 24.7540325342 754.093153468 c 0
 28.8695748062 770.556528399 36.1637397402 785.571342447 48.1949669655 796.50984135 c 0
 59.5606939483 806.843283634 74.3503197573 812.995097764 90 812.995097764 c 0
 107.442332417 812.995097764 124.533156436 804.701115082 135.514003575 793.720267943 c 0
 145.490817971 783.743453546 151.552542351 771.137372221 155.169349311 757.391810231 c 0
 155.719848279 755.299656079 155.995097764 753.149828039 155.995097764 751 c 0
EndSplineSet
Validated: 1
Substitution2: "'liga' Standard-Ligaturen in Lateinisch Nachschlagetabelle 387 Subtabelle" U_under
MultipleSubs2: "Mehrfache Substitution Nachschlagetabelle 355 Subtabelle" U_under tp_name_end
MultipleSubs2: "Mehrfache Substitution Nachschlagetabelle 302 Subtabelle" tp_name_start U_under
EndChar

StartChar: V
Encoding: 86 86 46
Width: 500
VWidth: 820
GlyphClass: 2
Flags: W
LayerCount: 2
Fore
SplineSet
430 815.995097764 m 0
 447.492478309 815.995097764 464.145059512 808.262957265 475.908052535 796.499964242 c 0
 488.081403721 784.326613055 493.995097764 767.838008842 493.995097764 751 c 0
 493.995097764 740.660241896 491.468441413 730.932946938 487.640882845 720.821480265 c 0
 456.880272851 621.249756192 426.234246621 534.491297773 395.597886676 460.424905416 c 0
 365.919095579 388.673530386 338.053797147 300.122353988 312.27258512 195.014335723 c 0
 312.039185804 194.062784667 311.749238786 193.122316846 311.402744064 192.198302724 c 0
 305.793512739 177.239896044 295.809240301 164.114303057 283.362955919 154.894382975 c 0
 271.689053763 146.246625812 258.201402956 140.004902236 243 140.004902236 c 0
 224.834977322 140.004902236 207.785132272 149.193151344 197.211870448 159.766413168 c 0
 190.807628516 166.1706551 185.730750516 173.626885866 181.638157117 181.811216293 c 0
 181.286573263 182.514310433 180.970196182 183.230578082 180.689025872 183.957380912 c 0
 145.334932147 275.344894128 110.479784025 366.400171564 76.1255425039 457.123237967 c 0
 41.2054834071 549.340521772 16.8886497321 641.42779677 3.27643181545 733.312510987 c 0
 2.65131655106 737.53214204 2.00490223649 741.417032553 2.00490223649 746 c 0
 2.00490223649 764.513157657 7.39763990837 782.752978968 20.8223304703 796.17766953 c 0
 32.4965691817 807.851908241 48.1414409861 814.995097764 65 814.995097764 c 0
 83.6150230453 814.995097764 100.810374976 807.177988791 113.830155249 794.158208519 c 0
 117.765513462 790.222850305 121.304866858 785.908122408 124.537610346 781.26129411 c 0
 125.677644487 779.622579833 126.598999742 777.877406959 127.301676111 776.066616804 c 0
 145.162978833 730.038213786 156.915793063 687.766783599 162.260228439 648.930901147 c 0
 167.00004475 614.488544534 175.691390873 580.305744933 188.411689298 546.277805333 c 0
 201.872557361 510.268775504 214.493941197 474.088062871 226.275183116 437.735530678 c 0
 230.268175163 425.414641851 234.440873372 412.849785302 238.793353829 400.041510751 c 1
 262.971091704 473.963338545 289.240520615 545.793475302 314.394095019 618.739466568 c 0
 333.038670918 672.34201266 350.680756386 723.772381663 367.321937648 773.028991132 c 0
 367.914296592 774.782327791 368.706473123 776.482788126 369.698467242 778.094699104 c 0
 373.771523864 784.713089838 378.344279762 790.729571848 383.662052724 796.04734481 c 0
 395.95588542 808.341177507 412.250851845 815.995097764 430 815.995097764 c 0
EndSplineSet
Validated: 1
Substitution2: "'liga' Standard-Ligaturen in Lateinisch Nachschlagetabelle 387 Subtabelle" V_under
MultipleSubs2: "Mehrfache Substitution Nachschlagetabelle 356 Subtabelle" V_under tp_name_end
MultipleSubs2: "Mehrfache Substitution Nachschlagetabelle 303 Subtabelle" tp_name_start V_under
EndChar

StartChar: W
Encoding: 87 87 47
Width: 500
VWidth: 820
GlyphClass: 2
Flags: HMW
LayerCount: 2
Fore
SplineSet
446 833.995097764 m 0
 463.234566742 833.995097764 479.405251311 826.460272713 491.162036602 814.703487422 c 0
 505.213533126 800.651990899 509.995097764 781.481892908 509.995097764 762 c 2
 509.995097764 758 l 2
 509.995097764 756.670488823 509.889828144 755.340977646 509.679288905 754.0251074 c 0
 501.730440467 704.344804667 496.127056029 663.240998145 492.867693404 630.970156708 c 0
 489.495162396 597.578838865 482.800400041 539.878283912 472.789693553 457.790490711 c 0
 466.644352755 409.993062206 457.097312304 361.436927559 444.175573288 312.131891005 c 0
 431.549851303 263.95635649 420.262124069 218.967908608 410.312500431 177.179489328 c 0
 408.68239125 170.333030768 403.676412329 165.035461476 399.188298306 160.547347453 c 0
 388.618440834 149.977489982 375.785733924 140.004902236 358 140.004902236 c 0
 356.423712442 140.004902236 354.847424883 140.152877787 353.293871248 140.448828887 c 0
 342.128806636 142.575767465 331.115689431 147.206632718 322.40255237 155.91976978 c 0
 315.74905062 162.57327153 311.36012922 170.870012511 309.097685811 179.502928166 c 0
 293.692756649 219.866843865 282.471582395 256.568205546 275.532948393 289.872018891 c 0
 270.470158341 314.172224605 265.799234728 335.837911789 261.527523311 354.844114135 c 1
 258.459593419 342.299837659 255.055959428 328.088208398 251.32774144 312.243879253 c 0
 240.392930006 265.772682552 225.739339318 218.095890064 207.402656435 169.198069043 c 0
 206.428491405 166.600295629 205.007372307 164.132576133 203.139299142 161.914249938 c 0
 198.292873002 156.159146628 194.267889694 151.627041329 190.535427465 147.894579099 c 0
 188.353276346 145.712427981 186.35535674 143.809516638 183.571961673 141.761259476 c 0
 181.519076899 140.250573483 175.366122517 135.887451234 167.035897516 135.887451234 c 0
 148.827886763 135.887451234 133.014395022 142.60425618 120.790980894 154.827670251 c 0
 114.152083493 161.466567653 108.929553779 169.227973829 104.637460914 177.812608664 c 0
 104.219976471 178.647621233 103.852147121 179.501211062 103.533972863 180.368959038 c 0
 81.1219296907 241.492713145 64.414721106 302.09686438 53.4726757097 362.158125485 c 0
 42.1874525669 415.784935102 30.3433757297 477.574509188 19.4724305462 533.171629377 c 0
 8.09000311953 591.349098205 -5.29937253684 667.990401261 -10.8722846983 730.50175985 c 0
 -11.4573352072 735.829418602 -11.8031129454 740.748425053 -11.8031129454 745.4840104 c 0
 -11.8031129454 751.972440555 -11.4671689246 756.792465002 -9.84629173475 762.570890305 c 0
 -8.84395444502 777.909625167 -2.77880294079 792.57653638 8.32233047034 803.67766953 c 0
 20.208723404 815.564062463 36.2665075233 821.995097764 53 821.995097764 c 0
 80.5751584683 821.995097764 100.27083989 806.171314136 111.81540848 788.853404249 c 0
 114.100307585 785.42584639 115.448397115 781.556665063 115.859677071 777.607991877 c 0
 121.63663245 722.143803818 136.609668061 625.089401546 144.661641085 574.087011026 c 0
 152.696227094 527.208993957 157.745764965 493.749251476 159.870184061 472.50506065 c 0
 160.478844617 466.418455092 162.304626279 456.856936836 165.350902907 444.123159121 c 1
 168.868040694 456.479797905 171.713928662 469.729211333 174.472430546 483.828370623 c 0
 180.61039425 515.200518113 186.548377848 539.20163472 192.996746102 557.028822709 c 0
 198.689615252 572.767354465 204.305434293 586.091611658 210.164362036 597.303633016 c 0
 212.780216746 603.741380468 216.514817361 607.870156333 220.10003591 611.455374969 c 0
 228.134533807 619.489872866 238.182417221 626.046327796 251.59903861 633.71306886 c 0
 255.428022253 635.901088129 259.714011126 636.995097764 264 636.995097764 c 0
 265.136247679 636.995097764 266.272495358 636.918208609 267.40022799 636.764430299 c 0
 286.867232233 634.109897728 304.833374794 624.484011056 316.527811622 609.90189891 c 0
 325.266592013 601.230642578 329.28442555 591.340253436 333.211243235 579.819892087 c 0
 338.148315799 565.335680061 342.264716455 547.095565812 346.142136946 524.20050132 c 0
 347.148102103 518.260563365 348.097341455 512.670300038 348.988724904 507.435247283 c 1
 356.720481775 550.280881657 361.556972447 591.230855275 363.53722781 630.275622454 c 0
 365.921558202 677.287551622 371.198343355 725.243905365 379.346985938 774.13576086 c 0
 379.456414467 774.792332038 379.592096666 775.445362549 379.754032534 776.093153468 c 0
 383.938397905 792.831840961 391.828169082 808.244544872 404.597191002 818.791877333 c 0
 416.177573332 828.357382289 430.715595156 833.995097764 446 833.995097764 c 0
EndSplineSet
Validated: 1
Substitution2: "'liga' Standard-Ligaturen in Lateinisch Nachschlagetabelle 387 Subtabelle" W_under
MultipleSubs2: "Mehrfache Substitution Nachschlagetabelle 357 Subtabelle" W_under tp_name_end
MultipleSubs2: "Mehrfache Substitution Nachschlagetabelle 304 Subtabelle" tp_name_start W_under
EndChar

StartChar: X
Encoding: 88 88 48
Width: 500
VWidth: 820
GlyphClass: 2
Flags: HMW
LayerCount: 2
Fore
SplineSet
408.135676599 818.236561959 m 0
 427.843502078 818.236561959 443.728682128 812.626656789 456.67766953 799.67766953 c 0
 468.87741726 787.477921799 474.995097764 770.971704581 474.995097764 754 c 0
 474.995097764 743.197502126 472.306129479 731.014165365 467.500010256 721.091935294 c 0
 446.549775281 677.840188553 423.910365324 635.433413054 399.583489232 593.874999731 c 0
 377.793529067 556.650484449 355.144721489 516.471576664 331.64538215 473.347144777 c 1
 352.005975478 438.311043992 376.578739858 399.107313952 405.336906758 355.821100233 c 0
 437.777129905 306.992729683 461.72363166 269.833628482 477.397171203 243.937998312 c 0
 482.064603192 236.226524314 483.995097764 223.189115911 483.995097764 213 c 0
 483.995097764 195.755657895 478.177839471 178.822500412 465.67766953 166.32233047 c 0
 453.791276596 154.435937537 437.733492477 148.004902236 421 148.004902236 c 0
 400.769612684 148.004902236 382.54432002 157.100340921 368.32233047 171.32233047 c 0
 367.087022781 172.55763816 366.008120973 173.890503457 365.085625048 175.296222259 c 0
 336.853561691 218.316837496 314.897487781 254.083700148 299.067266159 282.991675077 c 0
 287.733630042 303.688319541 272.876180949 329.153368603 254.549756224 359.26364976 c 1
 232.749774247 330.387164857 215.898255735 304.745560609 204.023731853 282.659377561 c 0
 186.055075731 249.238329928 159.012684898 212.198635044 122.887158227 170.619482804 c 0
 121.173687039 168.647340501 119.056485024 166.873705631 116.856052138 165.5534459 c 0
 105.302146525 158.621102532 94.314797132 153.558169489 82.4983845691 151.410160013 c 0
 81.0121424948 151.139988162 79.5060712474 151.004902236 78 151.004902236 c 0
 61.3502865395 151.004902236 44.9332819682 156.711378972 32.8223304703 168.82233047 c 0
 20.7113789725 180.933281968 15.0049022365 197.35028654 15.0049022365 214 c 0
 15.0049022365 228.859073995 19.8524679978 243.407449121 27.7267336241 256.140518265 c 0
 59.2699130427 307.147368126 87.7001144853 350.397412245 113.140514793 386.013972676 c 0
 134.625619175 416.09311881 154.97994376 446.535806448 174.205867936 477.342859107 c 1
 145.622471413 519.696618664 120.287589987 560.485300403 98.2042012895 599.744957612 c 0
 75.0616823033 640.887527478 54.7332062654 676.404436672 37.2415064423 706.262705132 c 1
 25.4445462377 717.903860727 16.0049022365 735.193921285 16.0049022365 757 c 0
 16.0049022365 773.943956915 22.567837356 790.437435037 34.4270751122 802.296672793 c 0
 46.3654874756 814.235085157 62.5525629027 819.995097764 79 819.995097764 c 0
 79.4934149811 819.995097764 79.9868299622 819.980598574 80.4795476668 819.951600195 c 0
 96.4097500967 819.01404498 111.578946599 813.599562978 124.514774724 804.358912291 c 0
 126.912229274 802.646301408 129.118653494 800.377159612 130.760215382 797.935841892 c 0
 157.070472795 758.80743736 181.056786944 720.299702584 202.713172817 682.400779464 c 0
 217.82578246 655.953539636 234.495082823 628.095193167 252.717503246 598.83786688 c 1
 269.123995479 628.359969009 282.659227136 653.434551327 293.291656784 673.990581979 c 0
 308.506568805 703.406078554 330.100968311 743.070789166 358.181172166 793.214010337 c 0
 359.537528286 795.636074837 361.419279306 797.962307206 363.553683213 799.829788497 c 0
 375.939840055 810.666967014 391.300560233 818.236561959 408.135676599 818.236561959 c 0
EndSplineSet
Validated: 1
Substitution2: "'liga' Standard-Ligaturen in Lateinisch Nachschlagetabelle 387 Subtabelle" X_under
MultipleSubs2: "Mehrfache Substitution Nachschlagetabelle 358 Subtabelle" X_under tp_name_end
MultipleSubs2: "Mehrfache Substitution Nachschlagetabelle 305 Subtabelle" tp_name_start X_under
EndChar

StartChar: Y
Encoding: 89 89 49
Width: 500
VWidth: 820
GlyphClass: 2
Flags: HMW
LayerCount: 2
Fore
SplineSet
247 146.004902236 m 0
 229.658023048 146.004902236 213.013921845 154.020978152 201.614348124 165.420551873 c 0
 189.484200143 177.550699854 183.561875697 193.539816074 181.235569701 210.59977201 c 0
 181.081791391 211.727504642 181.004902236 212.863752321 181.004902236 214 c 0
 181.004902236 293.145135977 180.052093839 370.028531937 180.00734111 449.347643083 c 1
 145.177809522 493.768291417 112.003537453 536.990774476 80.482743029 579.018500235 c 0
 46.3941960686 624.469896182 17.9323765539 672.758944724 -4.83050782142 723.802651666 c 0
 -5.69796438237 725.747844453 -5.97196588909 728.031970486 -6.86100728547 729.809545431 c 0
 -8.12279223654 732.332376151 -9.22440260217 734.719600151 -10.2169707451 737.697902395 c 0
 -11.0101953074 740.078053835 -11.9950977635 742.87666488 -11.9950977635 748 c 0
 -11.9950977635 766.513157657 -6.60236009163 784.752978968 6.82233047034 798.17766953 c 0
 18.4965691817 809.851908241 34.1414409861 816.995097764 51 816.995097764 c 0
 76.0417405067 816.995097764 97.5010198926 801.195763064 110.234971251 783.68672567 c 0
 110.642599676 783.12624125 111.024047977 782.552586104 111.379316155 781.967452022 c 0
 133.99751893 744.714801387 157.617493652 706.289613554 182.240765559 666.692927954 c 0
 201.017957547 636.497323956 221.804764951 605.742718805 244.605354407 574.440976276 c 1
 308.628588737 663.997261633 l 2
 335.589376675 701.808251985 362.245907262 741.454087556 388.593316916 782.93373461 c 0
 395.372741152 794.647100577 404.326432243 804.985865222 416.099159892 811.713138164 c 0
 426.002380742 817.372121507 437.192066267 820.995097764 449 820.995097764 c 0
 466.492478309 820.995097764 483.145059512 813.262957265 494.908052535 801.499964242 c 0
 507.081403721 789.326613055 512.995097764 772.838008842 512.995097764 756 c 0
 512.995097764 745.381800414 510.330527425 735.409494414 506.328856818 725.00374386 c 0
 505.706170802 723.384541286 504.908958165 721.817285586 503.937218904 720.331096128 c 0
 438.0774665 619.604415982 379.320351911 539.915590944 311.995097764 446.368922024 c 1
 311.995097764 336.5 l 2
 311.995097764 296.973971215 312.326922051 257.280953036 312.991596983 217.419920507 c 0
 312.992673339 217.355370644 312.993142706 217.290817395 312.993142706 217.226262321 c 0
 312.993142706 216.785926169 312.971304321 216.345505125 312.971304321 215.905494828 c 0
 312.118085657 196.291459331 305.687319069 177.222335955 291.415687143 164.091364169 c 0
 279.34424659 152.984733467 263.814961598 146.004902236 247 146.004902236 c 0
EndSplineSet
Validated: 1
Substitution2: "'liga' Standard-Ligaturen in Lateinisch Nachschlagetabelle 387 Subtabelle" Y_under
MultipleSubs2: "Mehrfache Substitution Nachschlagetabelle 359 Subtabelle" Y_under tp_name_end
MultipleSubs2: "Mehrfache Substitution Nachschlagetabelle 306 Subtabelle" tp_name_start Y_under
EndChar

StartChar: Z
Encoding: 90 90 50
Width: 500
VWidth: 820
GlyphClass: 2
Flags: HMW
LayerCount: 2
Fore
SplineSet
279 281.995097764 m 0
 285.850005678 281.995097764 292.688856623 281.423335617 299.417304637 281.423335617 c 0
 315.099787539 281.423335617 330.394977002 282.530073691 345.33931368 284.727524085 c 0
 367.157059294 287.935656685 390.069918808 292.448392201 414.061189084 298.284029581 c 0
 417.873116556 299.211242946 422.24705715 299.265841297 426.588545612 299.265841297 c 0
 442.901792993 299.265841297 459.279007166 294.104612198 471.073523262 281.77291079 c 0
 481.722561187 270.638858753 488.733420566 256.637379512 490.774520523 241.325391555 c 0
 490.921572017 240.222236026 490.995097764 239.111118013 490.995097764 238 c 0
 490.995097764 208.44862216 472.20316295 188.602178883 452.400597527 177.28672322 c 0
 450.476739902 176.187404764 448.437515787 175.364267064 446.340892015 174.81731012 c 0
 416.151569751 166.94166755 386.638717935 159.158717636 352.863511428 156.159497035 c 0
 342.600617503 154.726051225 332.300843126 154.004902309 322 154.004902236 c 2
 294 154.004902236 l 2
 259.361714124 154.004902236 237.391144909 154.583724881 223.493044953 156.825862357 c 0
 214.914451272 158.209820339 204.000294883 159.004902236 191 159.004902236 c 0
 148.232149902 159.004902236 125.124053507 159.259392818 89.7487272553 152.456982063 c 0
 88.1813935628 152.155595512 86.5906967814 152.004902236 85 152.004902236 c 2
 81 152.004902236 l 2
 65.1252730776 152.004902236 49.2645391891 157.350168725 37.5767098704 169.037998043 c 0
 32.9642614911 173.650446423 29.2633025036 178.887090521 26.3192508568 184.483390083 c 0
 20.2408097916 194.156737668 17.0049029167 205.522522242 17.0049022365 217 c 0
 17.0049022365 228.006677296 19.9807830628 238.91063635 25.5856213975 248.317787617 c 0
 27.1543464226 253.691286628 29.8669908717 257.767193998 32.6310583685 260.88430262 c 0
 100.005216093 354.060514373 156.92787599 437.418720426 203.358007393 510.850445809 c 0
 241.917076318 571.833670737 278.094698193 631.553291962 311.891286085 690.004902236 c 1
 262.5 690.004902236 l 2
 239.298967987 690.004902236 209.037336327 689.347008877 171.898690412 688.020940927 c 0
 171.599231022 688.010248467 171.299615511 688.004902236 171 688.004902236 c 0
 162.690454144 688.004902236 128.381133157 686.63833236 112.403037759 686.63833236 c 0
 101.805637951 686.63833236 93.0126346029 687.108451479 85.3921779149 688.264024703 c 0
 66.6912811537 690.840613753 49.4700716601 697.108040049 36.9056879507 709.672423759 c 0
 26.290391435 720.287720274 20.0049022365 734.755339138 20.0049022365 750 c 0
 20.0049022365 767.655259674 27.9767927354 784.375528864 39.8431797065 796.241915835 c 0
 53.1157066289 809.514442757 71.8712455308 815.995097764 91 815.995097764 c 0
 91.5777526191 815.995097764 92.1555052382 815.97521838 92.7321384353 815.935459613 c 0
 111.510982443 814.640661306 129.933005184 813.995097764 148 813.995097764 c 2
 204 813.995097764 l 2
 313.468763016 813.995097764 317.150814757 817.995097764 426 817.995097764 c 0
 428.539742665 817.995097764 431.079485331 817.610949833 433.524137482 816.842653972 c 0
 446.727971484 812.693003886 458.646613665 806.576540352 468.198616539 797.024537478 c 0
 479.945106509 785.278047509 485.995097764 769.359740348 485.995097764 753 c 0
 485.995097764 734.274352047 478.585746462 719.125490484 469.65537876 707.932149861 c 0
 443.212505105 644.283441642 411.171932276 587.545720824 373.418924695 537.888279903 c 0
 337.211756311 490.264118258 308.940235535 445.250539241 288.495962262 403.083582199 c 0
 287.731303713 401.506449877 286.791173678 399.993280769 285.675572155 398.573431039 c 0
 271.622729479 380.688079966 254.768224664 356.990362577 235.35071042 327.699699425 c 0
 225.696175411 313.136160071 215.74322836 299.26780488 205.484428852 286.099268653 c 1
 228.55823116 284.084135376 249.846945186 281.995097764 279 281.995097764 c 0
EndSplineSet
Validated: 33
Substitution2: "'liga' Standard-Ligaturen in Lateinisch Nachschlagetabelle 387 Subtabelle" Z_under
MultipleSubs2: "Mehrfache Substitution Nachschlagetabelle 360 Subtabelle" Z_under tp_name_end
MultipleSubs2: "Mehrfache Substitution Nachschlagetabelle 307 Subtabelle" tp_name_start Z_under
EndChar

StartChar: bracketleft
Encoding: 91 91 51
Width: 1024
GlyphClass: 2
Flags: HMW
LayerCount: 2
Fore
SplineSet
609 1033 m 0
 613 1033 613 1033 619 1033 c 0
 629 1033 629 1033 644 1033 c 0
 662 1031.66666667 682 1030.33333333 704 1029 c 0
 724.666666667 1028.33333333 745 1027 765 1025 c 0
 783.666666667 1023 797.333333333 1021 806 1019 c 2
 807 1019 l 1
 832.333333333 1013 849.666666667 1000.66666667 859 982 c 0
 862.333333333 975.333333333 864.333333333 968 865 960 c 0
 865 958 865 958 865 955 c 0
 865 925 847.666666667 904 813 892 c 1
 812 891 l 1
 802 887.666666667 786.666666667 885 766 883 c 0
 748.666666667 881 727.666666667 879.333333333 703 878 c 2
 702 878 l 2
 653.333333333 876 625.333333333 874.666666667 618 874 c 0
 612 873.333333333 601.333333333 871.666666667 586 869 c 0
 585 869 585 869 583 869 c 0
 571 867 560.666666667 865.333333333 552 864 c 1
 552.666666667 852.666666667 553.666666667 830 555 796 c 0
 556.333333333 749.333333333 557.333333333 714 558 690 c 2
 558 683 l 2
 559.333333333 650.333333333 560.333333333 617.666666667 561 585 c 2
 561 579 l 2
 561 532 561 532 561 475 c 0
 561 456 561 456 561 436 c 2
 561 416 l 2
 561 345.333333333 561.666666667 298.333333333 563 275 c 2
 563 270 l 2
 563.666666667 244.666666667 564 212.666666667 564 174 c 0
 564 169 564 169 564 163 c 2
 564 148 l 2
 564 113 564 113 564 95 c 1
 567.333333333 95.6666666667 569.333333333 96 570 96 c 0
 610 100 638.666666667 102.666666667 656 104 c 2
 657 104 l 1
 658 104 l 1
 659 104 l 2
 672.333333333 104.666666667 683 105.333333333 691 106 c 1
 692 107 l 1
 692 107 l 1
 694.666666667 107 697.666666667 107.333333333 701 108 c 0
 719 114.666666667 735.333333333 118 750 118 c 0
 753 118 753 118 755 118 c 0
 757 118 759 117.666666667 761 117 c 0
 799.666666667 113 826.333333333 92.3333333333 841 55 c 1
 842 54 l 1
 847.333333333 39.3333333333 850 25 850 11 c 0
 850 7.66666666667 849.666666667 4.33333333333 849 1 c 2
 849 -1 l 2
 848.333333333 -7 847 -13 845 -19 c 2
 845 -20 l 1
 845 -20 l 1
 835.666666667 -45.3333333333 819 -62.3333333333 795 -71 c 0
 785.666666667 -74.3333333333 776.333333333 -76 767 -76 c 0
 753.666666667 -76 740.666666667 -72.3333333333 728 -65 c 0
 727.333333333 -65 726.333333333 -64.6666666667 725 -64 c 0
 720.333333333 -64.6666666667 715.666666667 -65 711 -65 c 2
 709 -66 l 1
 698.333333333 -66.6666666667 685 -67.3333333333 669 -68 c 2
 664 -68 l 2
 649.333333333 -68.6666666667 622.666666667 -70 584 -72 c 0
 548.666666667 -74.6666666667 523.666666667 -76 509 -76 c 0
 505 -76 505 -76 503 -76 c 2
 501 -75 l 1
 481.666666667 -74.3333333333 465.666666667 -71.6666666667 453 -67 c 1
 452 -67 l 1
 451 -67 l 1
 450 -66 l 1
 431.333333333 -58.6666666667 417 -45.6666666667 407 -27 c 0
 399 -13 395 1.66666666667 395 17 c 0
 395 21.6666666667 395.333333333 26.3333333333 396 31 c 0
 396.666666667 33.6666666667 397.666666667 41.6666666667 399 55 c 0
 399 57 399 57 399 58 c 0
 399 62 399.333333333 70.6666666667 400 84 c 0
 400 102 400 102 400 125 c 0
 400 136 400 136 400 148 c 2
 400 162 l 2
 400 204 399.333333333 237.333333333 398 262 c 2
 398 263 l 2
 396.666666667 292.333333333 396 343.333333333 396 416 c 2
 396 456 l 2
 396 502.666666667 395.666666667 543.333333333 395 578 c 2
 395 584 l 2
 395 617.333333333 394.666666667 648.333333333 394 677 c 0
 392.666666667 711 391.666666667 749.666666667 391 793 c 2
 391 804 l 2
 390.333333333 838.666666667 389.666666667 864.666666667 389 882 c 2
 388 893 l 2
 387.333333333 907.666666667 387 919 387 927 c 2
 387 928 l 1
 387 929 l 1
 387 930 l 2
 387.666666667 962 401.333333333 987 428 1005 c 0
 444.666666667 1016.33333333 464.333333333 1022.33333333 487 1023 c 0
 488 1023 488 1023 489 1023 c 0
 502.333333333 1023 514 1023.33333333 524 1024 c 2
 526 1024 l 2
 534 1024.66666667 546 1026 562 1028 c 0
 579.333333333 1030.66666667 595 1032.33333333 609 1033 c 0
EndSplineSet
Validated: 5
EndChar

StartChar: backslash
Encoding: 92 92 52
Width: 500
VWidth: 820
GlyphClass: 2
Flags: W
VStem: 348.344 126.651<110.517 186.225>
LayerCount: 2
Fore
SplineSet
43.0049022365 832 m 0
 43.0049022365 850.513157657 48.3976399084 868.752978968 61.8223304703 882.17766953 c 0
 73.4965691817 893.851908241 89.1414409861 900.995097764 106 900.995097764 c 0
 124.615023045 900.995097764 141.810374976 893.177988791 154.830155249 880.158208519 c 0
 158.765513462 876.222850305 162.304866858 871.908122408 165.537610346 867.26129411 c 0
 166.468199431 865.923641521 167.253079292 864.515053874 167.892249928 863.057744822 c 0
 217.859052426 749.133435128 268.018876432 636.317185201 318.31688724 524.727836103 c 2
 469.81688724 186.227836103 l 2
 473.434224439 178.145534837 474.995097764 167.301726111 474.995097764 158 c 0
 474.995097764 140.1326646 468.857899155 122.44146561 455.77291079 109.926476738 c 0
 444.026294566 98.6915587367 428.51876682 92.0049022365 412 92.0049022365 c 0
 393.134034901 92.0049022365 374.972467611 101.552274327 364.125723113 112.399018826 c 0
 357.472527474 119.052214464 352.334256393 126.863317761 348.343769647 135.413764355 c 0
 247.139615039 360.731798458 147.226424254 587.367842939 46.1891385809 812.758710979 c 0
 44.8055094293 815.845268317 44.0792368983 819.155841986 43.9916876107 822.57422735 c 0
 43.4088174848 825.491996572 43.0049022365 828.566210586 43.0049022365 832 c 0
EndSplineSet
Validated: 1
EndChar

StartChar: bracketright
Encoding: 93 93 53
Width: 1024
GlyphClass: 2
Flags: HMW
LayerCount: 2
Fore
SplineSet
381 -28 m 2
 369 -28 369 -28 357 -28 c 128
 345 -28 345 -28 333 -28 c 2
 325 -28 l 2
 321 -28 321 -28 317 -28 c 0
 295.666666667 -28 277.333333333 -27.3333333333 262 -26 c 0
 248 -24.6666666667 236.666666667 -23.3333333333 228 -22 c 0
 223 -22 223 -22 219 -22 c 0
 214.333333333 -22 209.333333333 -21.6666666667 204 -21 c 1
 204 -21 l 1
 199 -20 199 -20 194 -19 c 0
 162.666666667 -9 143.666666667 11.6666666667 137 43 c 0
 136.333333333 48.3333333333 136 53.6666666667 136 59 c 0
 136 65.6666666667 137 72.6666666667 139 80 c 0
 142.333333333 90.6666666667 147.333333333 100.333333333 154 109 c 0
 168.666666667 127.666666667 188.333333333 137.666666667 213 139 c 0
 216 139 216 139 220 139 c 0
 221 139 221 139 221.5 139 c 128
 222 139 222 139 223 139 c 2
 224 139 l 2
 234 138.333333333 243.333333333 137.333333333 252 136 c 2
 254 136 l 2
 255.333333333 135.333333333 263 134.333333333 277 133 c 0
 284.333333333 132.333333333 295.666666667 132 311 132 c 0
 317 132 317 132 323 132 c 2
 331 132 l 2
 350.333333333 132.666666667 369.666666667 133 389 133 c 2
 390 133 l 2
 414 132.333333333 434 131 450 129 c 0
 454.666666667 128.333333333 459.666666667 127.333333333 465 126 c 1
 465 129.333333333 464.333333333 137.333333333 463 150 c 0
 462.333333333 165.333333333 461.666666667 194 461 236 c 0
 461 260.666666667 460.666666667 317.666666667 460 407 c 0
 460 548.333333333 459.666666667 634.333333333 459 665 c 0
 458.333333333 683 458 701.666666667 458 721 c 0
 458 737.666666667 458.333333333 754.333333333 459 771 c 2
 459 792 l 2
 459.666666667 818 460.333333333 838.666666667 461 854 c 0
 461.666666667 864 462.333333333 872.666666667 463 880 c 1
 454.333333333 880.666666667 446.333333333 881 439 881 c 2
 433 881 l 2
 400.333333333 882.333333333 372 884 348 886 c 0
 327.333333333 888 301.666666667 891 271 895 c 0
 237.666666667 899 212.666666667 903.666666667 196 909 c 1
 195 910 l 1
 175.666666667 916.666666667 162 926.666666667 154 940 c 0
 148.666666667 949.333333333 146 958.666666667 146 968 c 0
 146 973.333333333 147 979 149 985 c 0
 155 1005 170 1019.33333333 194 1028 c 0
 194.666666667 1028 195.333333333 1028.33333333 196 1029 c 0
 214.666666667 1035 240.666666667 1038 274 1038 c 0
 277 1038 277 1038 280 1038 c 0
 299 1038 299 1038 317.5 1038 c 128
 336 1038 336 1038 354 1038 c 2
 359 1038 l 2
 377.666666667 1038.66666667 404.333333333 1039.33333333 439 1040 c 2
 450 1040 l 2
 480.666666667 1041.33333333 504.666666667 1042 522 1042 c 0
 523 1042 523 1042 524 1042 c 2
 524 1042 524 1042 525 1042 c 0
 527 1042 527 1042 530 1042 c 0
 548 1042 562.333333333 1040.66666667 573 1038 c 0
 580.333333333 1036.66666667 587.333333333 1034 594 1030 c 0
 623.333333333 1014 639 986.666666667 641 948 c 2
 641 947 l 2
 641 946 641 946 641 945 c 0
 641 926.333333333 637.333333333 908 630 890 c 1
 629 889 l 2
 627.666666667 884.333333333 626.333333333 879 625 873 c 256
 623.666666667 867 622.666666667 858.666666667 622 848 c 2
 622 846 l 2
 622 835 622 835 622 820 c 0
 622 807 622 807 622 790 c 2
 622 771 l 2
 623.333333333 717 624 685 624 675 c 2
 624 669 l 2
 624.666666667 636.333333333 625 571.666666667 625 475 c 0
 625 450 625 450 625 423 c 2
 625 407 l 2
 625 294 625 294 625 237 c 0
 625 200.333333333 624.666666667 172.666666667 624 154 c 0
 624 153 624 153 624 152 c 0
 624 138 624 138 624 129 c 256
 624 120 624 120 624 115 c 0
 624.666666667 105 625.333333333 95.3333333333 626 86 c 0
 626 85 626 85 626 85 c 2
 626 73 625.333333333 61.3333333333 624 50 c 0
 622 31.3333333333 617.333333333 15.3333333333 610 2 c 0
 608 -2 605.333333333 -6 602 -10 c 0
 585.333333333 -31.3333333333 558.333333333 -42.6666666667 521 -44 c 0
 517 -44 517 -44 512 -44 c 0
 494 -44 475.333333333 -41.6666666667 456 -37 c 0
 454.666666667 -36.3333333333 453.666666667 -35.6666666667 453 -35 c 0
 443.666666667 -33 435 -31.3333333333 427 -30 c 0
 417 -28.6666666667 404.333333333 -28 389 -28 c 2
 381 -28 l 2
EndSplineSet
Validated: 5
EndChar

StartChar: asciicircum
Encoding: 94 94 54
Width: 500
VWidth: 820
GlyphClass: 2
Flags: W
HStem: 528.005 287.99
LayerCount: 2
Fore
SplineSet
467.995097764 590 m 0
 467.995097764 566.900879076 462.495142758 549.042291174 447.601896352 538.852416956 c 0
 433.659279147 529.312957813 417.767033047 528.004902236 400 528.004902236 c 0
 379.93130069 528.004902236 361.003467568 535.451960457 346.816368157 549.639059868 c 0
 342.745963231 553.709464794 339.139470405 558.189276301 335.929450646 563.005975554 c 2
 251.411774087 662.151711517 l 1
 163.314816043 565.081915153 l 2
 160.739780406 561.69205932 157.972831693 558.492520528 154.986509973 555.506198808 c 0
 140.535988529 541.055677364 121.469435958 533.004902236 101 533.004902236 c 0
 78.4828555043 533.004902236 60.6632010255 536.245535289 48.7041219109 548.204614404 c 0
 37.4406674725 559.468068842 34.0049022365 574.791788489 34.0049022365 595 c 0
 34.0049022365 613.665142037 40.8156723086 631.267347697 52.579795161 645.746166166 c 0
 53.2641638486 646.588460158 54.0256428775 647.410136815 54.8236274014 648.165371796 c 0
 94.7144262662 685.919144945 128.92902793 723.236546236 167.755325073 769.959782729 c 0
 168.24622942 770.550532854 168.768564552 771.123903612 169.32233047 771.67766953 c 0
 195.771980276 798.127319335 222.801987254 815.995097764 253 815.995097764 c 0
 280.610527733 815.995097764 304.73756644 799.908103461 327.784674207 776.860995693 c 0
 330.313215038 774.332454863 332.896021407 771.741841964 335.383812348 768.948532837 c 2
 449.682843056 640.61277906 l 2
 450.154108904 640.083638458 450.598986618 639.539210592 451.017476198 638.981207458 c 0
 461.724126917 624.705237511 467.995097764 607.812564536 467.995097764 590 c 0
EndSplineSet
Validated: 1
EndChar

StartChar: underscore
Encoding: 95 95 55
Width: 500
VWidth: 820
GlyphClass: 2
Flags: W
HStem: 73.0049 131.99<-1.01682 504.105>
LayerCount: 2
Fore
SplineSet
-20.9950977635 139 m 0
 -20.9950977635 156.285031716 -13.411198877 172.455746432 -1.63702974664 184.229915562 c 0
 11.5245899226 197.391535231 29.1545601686 203.277841146 47.8193015552 204.900500339 c 0
 48.5447101822 204.963565289 49.2723550911 204.995097764 50 204.995097764 c 2
 459 204.995097764 l 2
 461.149828039 204.995097764 463.299656079 204.719848279 465.391810231 204.169349311 c 0
 481.89607179 199.826658331 497.158121479 191.127013754 507.017256971 177.981499765 c 0
 515.357679186 166.860936811 520.995097764 153.538791682 520.995097764 139 c 0
 520.995097764 122.223097937 513.612153536 106.194421731 502.389537993 94.9718061874 c 0
 491.485713007 84.0679812011 477.525969948 77.611954064 462.093153468 73.7540325342 c 0
 460.095326345 73.2546123357 458.047663173 73.0049022365 456 73.0049022365 c 2
 47 73.0049022365 l 2
 46.2395297055 73.0049022365 45.479059411 73.039343857 44.7211419049 73.1082270979 c 0
 25.6981370166 74.8371305983 7.31142512535 82.1877241192 -4.65895048027 96.4376146106 c 0
 -14.6202568951 108.295849493 -20.9950977635 123.05518707 -20.9950977635 139 c 0
EndSplineSet
Validated: 1
EndChar

StartChar: grave
Encoding: 96 96 56
Width: 500
VWidth: 820
GlyphClass: 2
Flags: W
HStem: 551.861 266.42
VStem: 120.358 283.448
LayerCount: 2
Fore
SplineSet
403.805181911 628.495506893 m 0
 403.805181911 624.381878865 403.314671766 620.181272334 402.245732261 615.905905723 c 0
 398.489764138 600.883408539 390.705710909 587.35037185 379.67766953 576.32233047 c 0
 367.984876879 564.629537819 353.135190043 557.1018713 336.81334152 553.57229902 c 0
 331.677422656 552.461665208 326.40253056 551.860722007 321.134309361 551.860722007 c 0
 308.070813481 551.860722007 292.591185792 556.053475148 283.32233047 565.32233047 c 0
 272.504271731 576.14038921 253.184790431 593.075169969 226.200546285 615.123213106 c 0
 198.579230878 637.691788691 169.992470622 662.0757539 140.431989568 688.277380147 c 0
 139.060141313 689.493350049 137.777218531 690.911602135 136.716828495 692.379779347 c 0
 126.480014705 706.553296851 120.357534402 723.020890725 120.357534402 740.259966086 c 0
 120.357534402 760.269093514 126.364032253 777.953981718 138.171017388 791.447237813 c 0
 151.114340381 806.239123285 169.87039915 818.280290893 191.324655432 818.280290893 c 0
 207.32563557 818.280290893 221.353059981 812.38978057 234.123252295 803.632955104 c 0
 234.625088427 803.288834098 235.117119223 802.92435281 235.598184396 802.539511242 c 0
 262.414288502 781.087217171 290.050281137 758.475670315 318.509050693 734.703627431 c 0
 347.191016564 710.745145272 365.52040115 694.704222882 383.110928577 676.233718144 c 0
 383.580955633 675.740177685 384.026913833 675.232075596 384.448803178 674.710903201 c 0
 395.199401569 661.430370798 403.805181911 645.725938253 403.805181911 628.495506893 c 0
EndSplineSet
Validated: 1
EndChar

StartChar: a
Encoding: 97 97 57
Width: 500
VWidth: 820
GlyphClass: 2
Flags: HMW
LayerCount: 2
Fore
SplineSet
314.338290753 465.125684023 m 0
 314.338290753 483.887060466 314.453957181 502.155406159 314.685740748 519.931558135 c 1
 307.673857619 518.827767835 294.189139604 515.718069823 289.215736388 513.902645353 c 0
 281.845338299 509.848791165 276.475795036 509.030357861 267.501109453 507.048115441 c 0
 256.611619024 502.429329963 238.788455291 492.732556511 215.766055591 478.304885334 c 0
 196.606341802 466.297881884 180.904158995 452.684319606 171.062797989 434.23233083 c 0
 159.241620857 412.0683001 152.656593004 388.248083967 152.656593004 357.291488587 c 0
 152.656593004 338.633276965 156.00269116 321.200959471 161.402481156 306.802398355 c 0
 162.888069507 302.841071214 164.223580515 298.856665003 165.404691142 294.8519139 c 0
 169.596481795 290.488099404 173.884425645 285.527773041 178.443524461 281.425171005 c 0
 187.149247741 277.755386488 195.956731322 275.035698354 205.098532842 271.988431181 c 1
 216.577910136 271.952168962 232.83307516 271.453075952 248.909390985 271.453075952 c 0
 260.832872477 271.453075952 270.13345763 272.514646135 276.455453822 274.021313872 c 1
 303.146013371 291.815020238 l 2
 311.400587032 297.318338049 318.850074993 305.399720704 325.609819796 314.175093013 c 1
 318.520974961 351.038031508 314.812819672 388.101896217 314.505760668 425.292054344 c 0
 314.394164498 438.808281349 314.338290753 452.086064234 314.338290753 465.125684023 c 0
727.086408145 1033.91277891 m 1024
447.995097764 579 m 0
 447.995097764 533.54364737 447.661184269 487.754947109 446.992450523 441.634838231 c 0
 446.933526164 437.571041705 446.904063387 433.510199601 446.904063387 429.452271411 c 0
 446.904063387 388.911231523 449.844790531 348.661034155 455.7274357 308.661287355 c 0
 456.11063968 306.055646233 456.803618955 302.500063144 460.683698409 295.038102815 c 0
 468.482273844 280.040301556 479.223004373 263.562637596 487.44682898 249.855593994 c 0
 489.994074799 245.609977001 492.013918585 241.987163128 493.725626905 238.064591095 c 0
 495.035762402 235.062268326 496.897297682 231.948530959 496.991383617 224.586715816 c 0
 498.889883592 218.278284175 499.964503158 211.704766517 499.964503158 205.070632755 c 0
 499.964503158 200.355380961 499.421632869 195.609507463 498.245862931 190.906428378 c 0
 495.177286168 178.632121325 488.467773139 167.07072431 479.024890268 158.739247437 c 0
 469.15374946 150.029917618 456.913482738 145.16130392 444.186697614 143.276314587 c 0
 441.122290801 142.822439229 438.068198959 142.606856233 435.033153727 142.606856233 c 0
 422.792321749 142.606856233 410.861309592 146.113616201 399.812956754 151.637286881 c 0
 397.470745774 152.808285157 395.274694587 154.369966353 393.32233047 156.32233047 c 0
 384.381875601 165.262785339 376.200332646 177.127111578 368.548371187 189.752588697 c 1
 363.082953862 185.862554236 357.896902014 181.869559707 352.986539729 177.777591136 c 0
 338.66254723 165.84093072 322.140551731 156.474326355 303.801930957 149.597343565 c 0
 301.368477708 148.684798596 298.820903104 148.164452529 296.257302629 148.036305364 c 0
 269.471115002 146.697339307 238.883463546 145.35971884 204.477093771 144.023862688 c 0
 201.698851397 143.915995098 198.939089112 143.86186362 196.198931102 143.86186362 c 0
 160.850648758 143.86186362 128.764758973 152.870007366 102.354591055 171.735044651 c 0
 81.1395066317 187.097950661 62.8644713188 206.980949689 50.4474267784 230.213180175 c 0
 38.8923786541 251.83261952 30.7286233138 275.289605177 25.9518216938 300.278188094 c 0
 23.4603906744 313.31145503 22.252624452 326.89269455 22.252624452 340.995645271 c 0
 22.252624452 378.60428638 32.2194223208 428.586351687 41.9964470107 450.806220466 c 0
 47.9037524355 465.249059695 52.3309101289 476.238743284 55.2237008424 483.631741398 c 0
 58.7578494062 492.663837874 63.4307632304 501.502479042 69.115159479 510.230499434 c 0
 78.0272360506 529.088489627 89.0053641393 545.159308489 102.874268677 558.2131684 c 0
 114.532998282 569.186740436 125.491241767 578.170369695 136.180738851 585.189516352 c 0
 153.022764431 599.062109565 173.575129969 612.242740991 193.812144542 622.362307031 c 0
 215.227693365 633.070081443 260.999368676 641.721380178 289.047708557 646.182894525 c 0
 299.689718046 647.875667724 310.430703341 648.720296899 321.22141051 648.720296899 c 0
 345.171299855 648.720296899 366.661353943 645.211817787 384.039213775 638.313661944 c 0
 394.744262702 634.297853037 404.324247793 630.599858359 412.805391976 627.207598565 c 0
 429.983430761 620.336785677 440.597206023 604.405706669 446.589794727 587.285636867 c 0
 447.526663418 584.609121229 447.995097764 581.804560615 447.995097764 579 c 0
EndSplineSet
Validated: 1
Substitution2: "'liga' Standard-Ligaturen in Lateinisch Nachschlagetabelle 387 Subtabelle" a_under
MultipleSubs2: "Mehrfache Substitution Nachschlagetabelle 361 Subtabelle" a_under tp_name_end
MultipleSubs2: "Mehrfache Substitution Nachschlagetabelle 308 Subtabelle" tp_name_start a_under
Substitution2: "Einzelne Substitution Nachschlagetabelle 8 Subtabelle" tp_a
EndChar

StartChar: b
Encoding: 98 98 58
Width: 500
VWidth: 820
GlyphClass: 2
Flags: HMW
LayerCount: 2
Fore
SplineSet
233.510924662 279.057283455 m 0
 242.383311103 279.057283455 250.094997115 280.460661067 256.803139636 282.941788059 c 0
 271.814007273 288.493827075 288.193939349 299.307932252 305.404689447 316.518682349 c 0
 309.041573018 320.15556592 312.71650883 324.076247053 316.420635023 328.281117064 c 0
 325.865287593 351.743694292 332.004902236 371.825360535 332.004902236 400.5 c 0
 332.004902236 428.588627069 326.629765376 450.289585002 318.268011934 473.640851059 c 0
 314.42828834 478.004435332 311.708283737 482.851378293 308.050107903 487.319719602 c 0
 304.068440645 489.299553534 300.482902246 492.051153969 296.50122116 493.992625203 c 0
 292.06033716 494.834486905 286.39495456 495.736975196 281.834160902 496.57801747 c 0
 256.447065831 491.722653515 241.775010199 484.051930669 232.848914925 473.166495297 c 0
 219.704519006 457.136812899 204.162781655 436.542063664 186.395417554 411.536465131 c 0
 185.409497639 410.14889197 184.218569885 408.863230826 182.995097764 407.639758704 c 1
 182.995097764 292.720247397 l 2
 183.977591656 292.055499479 184.923124557 291.313224321 185.823073939 290.493420534 c 0
 187.254448252 289.686869344 188.577772631 288.817070841 189.809355606 287.903820422 c 0
 206.854710409 281.722112911 221.284826242 279.057283455 233.510924662 279.057283455 c 0
102.922331334 162.310239014 m 0
 100.791339095 162.310239014 98.6481268755 162.414497186 96.4949393497 162.629815939 c 0
 82.0162752529 164.077682348 67.9743457484 169.670315192 57.3223304703 180.32233047 c 0
 46.6703151923 190.974345748 41.0776823483 205.016275253 39.6298159387 219.49493935 c 0
 39.4144971861 221.648126876 39.3102390145 223.791339095 39.3102390145 225.922331334 c 0
 39.3102390145 240.003889921 43.8627166489 253.551857866 51.0049022365 265.918556319 c 1
 51.0049022365 777 l 2
 51.0049022365 778.73671441 51.1845310013 780.47342882 51.543788531 782.179737651 c 0
 55.0224495314 798.701785192 62.7217059266 814.106416931 75.1115504355 824.880263379 c 0
 86.4574679855 834.746341473 100.239403662 841.519789085 116.737077068 841.519789085 c 0
 134.283965946 841.519789085 151.238834487 832.679032468 161.966910937 821.950956018 c 0
 171.465540828 812.452326127 177.707526313 800.619122559 181.832394078 787.556705621 c 0
 182.607529868 785.10204587 182.995097764 782.551022935 182.995097764 780 c 2
 182.995097764 591.708346508 l 1
 186.081712046 593.450154586 189.206307441 595.101541111 192.368590815 596.661127224 c 0
 210.230611671 608.914118468 225.471465627 617.386767651 240.905905723 621.245732261 c 0
 258.933904111 625.753144474 270.219692122 629.202207455 289.546677025 629.202207455 c 0
 304.188953857 629.202207455 318.555645534 626.588797285 332.132241747 621.276103371 c 0
 348.743173014 614.776035751 364.870468113 606.893196783 380.638287538 597.575705778 c 0
 403.732483679 584.037889634 422.247222374 564.418024773 434.362307031 540.187855458 c 0
 453.233692728 502.445084064 463.137827502 458.092579679 463.137827502 404.611406151 c 0
 463.137827502 376.586702264 460.736271733 349.974695481 456.714457036 327.202246583 c 0
 453.349625035 301.426237384 441.117744329 279.620358805 430.045911527 260.182456645 c 0
 408.789597256 218.087545365 370.725780713 187.803167502 325.602664626 170.212344502 c 0
 296.643908325 158.923045346 264.086614855 152.029354821 230.088521363 149.283981422 c 0
 226.546959578 148.997997458 223.637260529 148.736705925 220.613743767 148.736705925 c 0
 218.603675693 148.736705925 216.543303143 148.852190002 214.213523326 149.152677914 c 0
 183.492840109 151.875536082 156.333704186 157.632257375 133.050295291 168.996288901 c 1
 123.47503441 164.804207348 113.344840445 162.310239014 102.922331334 162.310239014 c 0
EndSplineSet
Validated: 1
Substitution2: "'liga' Standard-Ligaturen in Lateinisch Nachschlagetabelle 387 Subtabelle" b_under
MultipleSubs2: "Mehrfache Substitution Nachschlagetabelle 362 Subtabelle" b_under tp_name_end
MultipleSubs2: "Mehrfache Substitution Nachschlagetabelle 309 Subtabelle" tp_name_start b_under
EndChar

StartChar: c
Encoding: 99 99 59
Width: 500
VWidth: 820
GlyphClass: 2
Flags: HMW
LayerCount: 2
Fore
SplineSet
377.321687904 323.061154007 m 0
 395.469869203 323.061154007 411.491876449 316.863462611 423.67766953 304.67766953 c 0
 435.858157162 292.497181898 442.061154007 276.4539434 442.061154007 258.321687904 c 0
 442.061154007 240.749980052 434.219238431 222.96854266 422.440247646 210.118734531 c 0
 398.446988583 183.944270099 368.185447614 163.666679829 334.512637475 152.316418931 c 0
 311.465878707 144.5479338 286.824968688 140.785429718 260.876434698 140.785429718 c 0
 248.798660156 140.785429718 236.437595736 141.600556501 223.822134147 143.206258446 c 0
 174.020049305 149.545091468 131.373552069 169.194185795 101.257108363 199.3106295 c 0
 81.8284409006 218.739296963 67.0301476269 242.502534062 56.7207929949 269.869618042 c 0
 43.9929936386 301.223891899 35.4261714095 336.798444496 35.4261714095 378.291330513 c 0
 35.4261714095 384.398876741 35.6347161725 390.490723853 36.0539385001 396.570829655 c 0
 41.199842374 478.905291637 77.9380904395 552.991902227 124.215916342 599.26972813 c 0
 147.90074474 622.954556528 175.675621073 640.654203005 206.952024393 651.996317135 c 0
 224.790973183 658.4654559 244.551209951 661.470755062 266.196553896 661.470755062 c 0
 289.810069782 661.470755062 315.667097555 657.894075455 343.720662227 651.336057711 c 0
 344.465478455 651.161943723 345.20383663 650.953329918 345.933177493 650.710216297 c 0
 387.258490173 636.93511207 418.45281599 617.902523069 446.67766953 589.67766953 c 0
 447.782340361 588.572998699 448.761936752 587.390313135 449.616458705 586.147279005 c 0
 458.939901662 572.584891546 464.995097764 557.340440195 464.995097764 541 c 0
 464.995097764 524.852830539 459.044151592 508.608939003 447.780091747 497.344879158 c 0
 438.355894253 487.920681663 426.341748627 482.16326962 413.593784528 479.525848621 c 0
 409.405394489 478.659314344 405.221544587 478.255903855 401.065134397 478.255903855 c 0
 388.521042303 478.255903855 376.226881829 481.930324325 364.812144542 487.637692969 c 0
 362.470238088 488.808646196 360.274468911 490.37019203 358.32233047 492.32233047 c 0
 338.416885725 512.227775216 320.851298557 522.102055144 306.841120531 525.039406176 c 0
 301.176341428 526.227074507 295.131849508 526.856651672 288.666482244 526.856651672 c 0
 277.254680034 526.856651672 264.531657853 524.895229682 250.271063295 520.579284735 c 0
 229.069610702 514.162700783 214.951092461 505.00152484 204.291480429 491.222100668 c 0
 182.716513718 463.332659956 166.995097764 423.773537108 166.995097764 376.5 c 0
 166.995097764 339.298903187 181.257365322 302.28059044 203.244677256 286.192696606 c 0
 213.858344143 278.426783857 224.051999323 274.50757349 234.720816812 273.347668295 c 0
 236.964746196 273.103710111 239.483299192 272.975317606 242.26627658 272.975317606 c 0
 252.845383947 272.975317606 267.245519221 274.830635642 284.906428378 279.245862931 c 0
 305.405109769 284.370533279 318.497435906 291.866072518 327.449297012 301.75998053 c 0
 328.271769194 302.66900537 329.185514494 303.541125059 330.125796815 304.315470439 c 0
 343.655725471 315.457696047 359.722387787 323.061154007 377.321687904 323.061154007 c 0
EndSplineSet
Validated: 1
Substitution2: "'liga' Standard-Ligaturen in Lateinisch Nachschlagetabelle 387 Subtabelle" c_under
MultipleSubs2: "Mehrfache Substitution Nachschlagetabelle 363 Subtabelle" c_under tp_name_end
MultipleSubs2: "Mehrfache Substitution Nachschlagetabelle 310 Subtabelle" tp_name_start c_under
EndChar

StartChar: d
Encoding: 100 100 60
Width: 500
VWidth: 820
GlyphClass: 2
Flags: HMW
LayerCount: 2
Fore
SplineSet
333.004902236 330.583870341 m 1
 333.004902236 418.5 l 2
 333.004902236 442.904923262 332.778050367 466.267989063 332.324802608 488.586387601 c 0
 331.197831471 489.429898181 330.145275855 490.292548531 329.027878541 491.140939384 c 0
 314.58173396 495.102443519 299.518584599 497.105675014 283.61230637 497.105675014 c 0
 262.294267119 497.105675014 243.902619277 493.489513236 232.359324483 488.242421315 c 0
 220.409019382 482.810319783 206.88066991 473.997514351 192.220311464 461.474826578 c 0
 180.318817664 451.308725155 172.061120386 438.08837312 167.159948351 419.572568415 c 0
 163.278960006 404.532583735 161.599364641 391.816780714 161.599364641 381.450237637 c 0
 161.599364641 378.882835209 161.702385377 376.459528492 161.900500339 374.180698445 c 0
 163.105164436 360.323972449 164.891431945 344.016452944 167.261692209 325.335322362 c 0
 171.255387618 317.117235082 174.622053942 308.966226775 178.609832807 300.745506252 c 1
 191.8330376 287.522301459 l 1
 197.195068208 285.318259366 202.294357004 282.591454873 206.993062603 279.204357965 c 0
 214.680606772 278.608240703 221.971856877 278.319176341 228.861914032 278.319176341 c 0
 241.401317347 278.319176341 252.611915254 279.276596672 262.464178017 281.083005202 c 0
 275.994421294 283.563770022 291.550280513 291.054851166 308.78053737 305.463396364 c 0
 310.751372456 308.215021439 312.724948589 310.080289262 314.82233047 312.17766953 c 0
 320.84535052 318.350907006 327.168431853 324.224083198 333.004902236 330.583870341 c 1
461.995097764 271.161484782 m 1
 472.969238976 258.582639941 481.890433566 239.853632469 481.890433566 221.753065302 c 0
 481.890433566 218.774033033 481.670951012 215.76373463 481.211191343 212.729912907 c 0
 478.861206065 197.223038758 471.826886441 182.414054916 460.25926252 171.948647392 c 0
 448.531310385 161.338188465 433.286670066 156.482925829 417.948486785 156.482925829 c 0
 395.538695402 156.482925829 377.484507214 168.25276692 363.477505631 183.267200724 c 1
 331.452992691 161.482676583 281.025093899 140.363643487 232.858715921 140.363643487 c 0
 230.352990176 140.363643487 227.857857364 140.41886635 225.373449711 140.530110105 c 0
 198.947152031 141.713394412 171.79421662 149.312090302 143.899676796 162.353527937 c 0
 92.3475373007 186.455521245 54.4398727666 232.560442259 39.275673664 292.32092292 c 0
 33.1048824138 316.639348752 30.0049022365 341.429453677 30.0049022365 366.5 c 0
 30.0049022365 419.499640963 44.7086054525 469.371091786 62.3021214362 507.489660536 c 0
 80.6391104509 547.219057267 117.128300128 580.153539301 155.079290676 599.98425727 c 0
 172.683864463 609.880989235 192.492415669 617.252089805 214.289001042 622.338314651 c 0
 230.11878121 626.03218767 242.773238575 628.583894342 254.485211533 628.583894342 c 0
 257.6591196 628.583894342 260.763812266 628.396498774 263.843727084 627.993655219 c 0
 286.603118403 627.958040309 310.82379186 628.014316857 331.618815879 625.118867966 c 1
 331.084040348 668.43753334 330.004902236 745.267024489 330.004902236 782 c 0
 330.004902236 783.73671441 330.184531001 785.47342882 330.543788531 787.179737651 c 0
 334.022449531 803.701785192 341.721705927 819.106416931 354.111550435 829.880263379 c 0
 365.457467986 839.746341473 379.239403662 846.519789085 395.737077068 846.519789085 c 0
 413.283965946 846.519789085 430.238834487 837.679032468 440.966910937 826.950956018 c 0
 450.465540828 817.452326127 456.707526313 805.619122559 460.832394078 792.556705621 c 0
 461.607529868 790.10204587 461.995097764 787.551022935 461.995097764 785 c 2
 461.995097764 271.161484782 l 1
EndSplineSet
Validated: 1
Substitution2: "'liga' Standard-Ligaturen in Lateinisch Nachschlagetabelle 387 Subtabelle" d_under
MultipleSubs2: "Mehrfache Substitution Nachschlagetabelle 364 Subtabelle" d_under tp_name_end
MultipleSubs2: "Mehrfache Substitution Nachschlagetabelle 311 Subtabelle" tp_name_start d_under
EndChar

StartChar: e
Encoding: 101 101 61
Width: 500
VWidth: 820
GlyphClass: 2
Flags: HMW
LayerCount: 2
Fore
SplineSet
290 522.004902236 m 0
 272.841041507 522.004902236 245.92378998 516.308308221 231.508355226 509.247519718 c 0
 229.175532111 505.316273991 225.498574172 501.849720181 221.425779398 499.758258879 c 0
 194.547188292 485.955566562 177.492935533 465.124643426 167.891011737 434.732506262 c 1
 179.978182348 438.183843418 183.17040273 438.597861772 197.745168941 446.795917581 c 0
 198.426783505 447.179314073 199.122610455 447.528250282 199.830094928 447.842726209 c 0
 208.605320615 451.743302601 219.548460621 454.906115353 234.906048261 458.745767899 c 0
 261.692249109 465.442763983 291.258350383 475.765476731 312.407439039 488.102445114 c 0
 318.186257801 491.473422725 321.321676415 493.875306554 324.197318195 497.298879532 c 0
 324.030352074 509.202097686 321.471259428 512.634815724 319.146013371 514.184979762 c 0
 311.668372758 519.170073503 302.62518064 522.004902236 290 522.004902236 c 0
411.127879894 338.546023583 m 0
 438.933628951 338.546023583 459.233895263 322.446849077 468.862806826 303.186855813 c 0
 473.228966841 294.453551748 475.247446752 284.93961357 475.247446752 275.406968583 c 0
 475.247446752 244.565092704 457.718748813 226.048664031 437.47113608 214.327183496 c 0
 393.797564997 189.181147873 338.641887915 163.192098374 280.825916684 154.29733357 c 0
 267.251619313 152.208980128 254.17668754 151.117881112 241.6197069 151.117881112 c 0
 228.023824401 151.117881112 215.035143833 152.396992954 202.677255935 155.074334195 c 0
 168.075304074 162.570860582 125.744736595 187.727008635 100.420361315 213.051383915 c 0
 81.983562755 231.488182475 67.2370700271 253.401106644 56.1569001055 278.33093566 c 0
 39.4349705092 315.954442213 30.9587822713 354.167473501 30.9587822713 396.426128643 c 0
 30.9587822713 433.575831875 38.1571395222 469.679520019 52.4063108989 504.085236286 c 0
 67.9888356449 541.710436444 93.622323512 572.640722633 126.042758579 594.745810031 c 0
 158.296798801 616.482340083 190.936092641 633.04720936 223.990174193 644.184528626 c 0
 243.97920187 650.919678193 265.005516642 654.192115443 286.760864832 654.192115443 c 0
 334.767731749 654.192115443 370.537380879 642.067399178 398.567698777 617.222896092 c 0
 428.7556204 590.466013966 457.054680866 549.28284076 457.054680866 496.108562029 c 0
 457.054680866 473.842899515 450.934802184 452.292059756 439.37971159 433.03319929 c 0
 425.312203555 409.862116473 405.510689149 391.46752449 382.001910184 377.141643712 c 0
 338.883535921 350.865983461 284.951458564 331.517893898 229.487187533 319.110540103 c 0
 213.361130875 315.503142285 200.556256964 312.13275288 191.920455412 309.499632106 c 1
 197.507951748 303.331368723 203.582996263 298.025959325 210.750722804 293.044960619 c 0
 224.865310865 283.236446794 236.487412097 279.605468802 246.713504495 279.605468802 c 0
 248.721822069 279.605468802 250.654528216 279.845037736 252.563642506 279.954104869 c 0
 272.169880002 281.0742034 292.322634816 286.515659583 313.437504276 296.924545304 c 0
 336.64992502 308.367449807 357.634001942 319.597523196 376.361712462 330.575705778 c 0
 377.558927367 331.277513071 378.802205184 331.87128943 380.077364757 332.357034856 c 0
 390.114335206 336.180409272 400.646267757 338.546023583 411.127879894 338.546023583 c 0
EndSplineSet
Validated: 1
Substitution2: "'liga' Standard-Ligaturen in Lateinisch Nachschlagetabelle 387 Subtabelle" e_under
MultipleSubs2: "Mehrfache Substitution Nachschlagetabelle 365 Subtabelle" e_under tp_name_end
MultipleSubs2: "Mehrfache Substitution Nachschlagetabelle 312 Subtabelle" tp_name_start e_under
Substitution2: "Einzelne Substitution Nachschlagetabelle 9 Subtabelle" tp_e
EndChar

